<svg clip-rule="evenodd" fill-rule="evenodd" stroke-linejoin="round" stroke-miterlimit="2" viewBox="0 0 662 915" xmlns="http://www.w3.org/2000/svg"><filter id="glowright" x="-50%" y="-50%" width="200%" height="200%"><feGaussianBlur stdDeviation="1 1" result="glow"/><feMerge><feMergeNode in="glow"/><feMergeNode in="glow"/></feMerge></filter><linearGradient id="shadow_l" gradientUnits="userSpaceOnUse" x1="0" x2="0" y1="0" y2="18"><stop offset="0" stop-color="#fff" stop-opacity=".5"/><stop offset=".25" stop-color="#000" stop-opacity="0"/><stop offset="1" stop-color="#000" stop-opacity=".75"/></linearGradient><g fill="#fff" fill-opacity=".1875" style="filter:url(#glowright)" transform="translate(18 0)"><path d="m639.22 811.642c1.716 2.124 12 15.598 12 33.358 0 19.375-12.241 33.651-12.241 33.651l-.299.349 2.76 6s2.095-2.444 2.093-2.443c0 0 13.687-15.928 13.687-37.557 0-16.95-8.4-30.399-12-35.374z"/><path d="m645.22 809.626v-502.688s-3.683-88.586-6.021-118.484c-1.595-20.388-4.144-41.21-7.927-60.858l-.181-.935c-2.645-13.57-8.946-36.164-12.539-48.661h-6.243c3.451 11.942 10.154 35.759 12.893 49.809 3.84 19.703 6.413 40.63 8.015 61.113 2.334 29.842 6.002 118.036 6.002 118.036l.001.021v504.663z"/></g></svg>