<svg clip-rule="evenodd" fill-rule="evenodd" stroke-linejoin="round" stroke-miterlimit="3" viewBox="0 0 662 915" xmlns="http://www.w3.org/2000/svg"><filter id="glowleft" x="-50%" y="-50%" width="200%" height="200%"><feGaussianBlur stdDeviation="1 1" result="glow"/><feMerge><feMergeNode in="glow"/><feMergeNode in="glow"/></feMerge></filter><linearGradient id="shadow_l" gradientUnits="userSpaceOnUse" x1="0" x2="0" y1="0" y2="18"><stop offset="0" stop-color="#fff" stop-opacity=".5"/><stop offset=".25" stop-color="#000" stop-opacity="0"/><stop offset="1" stop-color="#000" stop-opacity=".75"/></linearGradient><path d="m654.38 879 2.84 6h-1.84s-210.373 0-252.448 0h-5.172c-6.34 8.864-26.363 32-62.76 32-34.855 0-56.738-23.495-63.507-32h-259.713s-2.095-2.444-2.093-2.443c0 0-13.687-15.928-13.687-37.557 0-16.95 8.4-30.399 12-35.374v-502.688s3.683-88.586 6.021-118.484c1.62-20.711 4.225-41.87 8.108-61.793 0 0 .032-.165 0 0 2.645-13.57 8.946-36.164 12.539-48.661h-22.391s-1.991-1.825-1.987-1.822c-.278-.248-14.29-12.888-14.29-38.178 0-25.201 16.599-34.877 16.973-35.211l.86-.789.767 2-.017.026-.259.237s-12.324 11.234-12.324 33.737 12.324 33.737 12.324 33.737l.287.263h28.05c-1.995 6.766-11.29 38.608-14.643 55.809-3.84 19.703-6.413 40.63-8.015 61.113-2.334 29.842-6.002 118.036-6.002 118.036l-.001.021v504.663c-1.716 2.124-12 15.598-12 33.358 0 19.375 12.241 33.651 12.241 33.651l.299.349h259.936c2.758 3.904 23.886 32 60.524 32 38.384 0 57.022-27.882 59.566-32z" fill-opacity=".75" style="filter:url(#glowleft)"/><path d="m40.668 78h-28.391s-1.991-1.825-1.987-1.822c-.278-.248-10.29-12.888-10.29-38.178 0-.201 6-.503 6 0 0 22.503 8.324 33.737 8.324 33.737l.287.263h28.05z" fill-opacity=".75" transform="matrix(-1 0 0 1 670.22 0)" style="filter:url(#glowleft)"/></svg>