<svg clip-rule="evenodd" fill-rule="evenodd" stroke-linejoin="round" stroke-miterlimit="2" viewBox="0 0 157 938" xmlns="http://www.w3.org/2000/svg"><path d="m12.496 275.114c-.089 3.24-2.743 5.83-5.996 5.83l.002-.002c3.251 0 5.904-2.589 5.994-5.828zm144.504 662.886c-27 0-93-8-128-23-19-8-20-32-20-49v-306c0-9.967-8.941-17.947-9-26.912 0-.029 0-.059 0-.088v-18c0-10.333 4.126-24.039 13.875-31.852 4.928-7.332 6.261-15.186 6.026-23.881-8.363-66.85-14.002-107.27-13.459-178.325l.058.002-.001-.002-.057-.001v-.006l.057.007-.057-.07c.014-1.957.034-3.93.058-5.928v-.002c.921-71.834 6.909-119.141 16.426-186.978-.027-6.279-2.32-10.531-9.926-15.964l.171.005c-3.525-1.194-6.751-3.378-9.105-6.083-2.548-2.926-4.066-6.439-4.066-9.922v-18c0-15.302 9.048-38 32-38l-5.126 6.504c-15.186 3.118-20.874 20.008-20.874 31.496v18c0 2.117 1.042 4.203 2.59 5.982 1.682 1.932 3.989 3.487 6.507 4.34.95.322 1.773.863 2.425 1.551 8.963 6.67 11.371 12.257 11.404 20.065.001.288-.018.575-.058.859-9.478 67.564-15.451 114.678-16.368 186.221-.909 74.498 4.798 115.103 13.354 183.504.024.194.039.388.044.583.271 9.984-1.384 18.971-7.043 27.39-.34.505-.753.955-1.228 1.335-8.293 6.646-11.627 18.38-11.627 27.17v18 .049c.024 3.585 2.065 6.887 3.858 10.376 2.677 5.206 5.142 10.626 5.142 16.575v306c0 7.992.173 17.636 2.641 26.216 2.126 7.39 5.994 14.015 13.687 17.254l.036.015c32.069 13.744 90.667 21.45 119.869 22.411"/></svg>