<svg clip-rule="evenodd" fill-rule="evenodd" stroke-linejoin="round" stroke-miterlimit="2" viewBox="0 0 32 915" xmlns="http://www.w3.org/2000/svg"><path d="m644.075 908.278c6.121-3.515 9.392-9.485 11.284-16.062 2.468-8.58 2.641-18.224 2.641-26.216v-306c0-5.949 2.465-11.369 5.142-16.575 1.793-3.489 3.834-6.791 3.858-10.376v-.049-18c0-8.79-3.334-20.524-11.627-27.17-.475-.38-.889-.83-1.228-1.335-5.658-8.418-7.313-17.405-7.043-27.39.005-.195.02-.389.044-.583 8.556-68.401 14.263-109.006 13.354-183.502-.917-71.545-6.89-118.659-16.368-186.223-.04-.284-.059-.571-.058-.859.033-7.808 2.441-13.395 11.404-20.065.652-.688 1.475-1.229 2.425-1.551 2.518-.853 4.825-2.408 6.507-4.34 1.548-1.779 2.59-3.865 2.59-5.982v-18c0-11.859-6.061-29.474-22.375-31.754l-3.625-6.246c22.952 0 32 22.698 32 38v18c0 3.483-1.518 6.996-4.066 9.922-2.354 2.705-5.58 4.889-9.105 6.083l.171-.005c-7.606 5.433-9.899 9.685-9.926 15.964 9.517 67.837 15.505 115.144 16.426 186.98v.001c.912 74.83-4.806 115.617-13.401 184.322-.235 8.696 1.098 16.55 6.026 23.881 9.749 7.813 13.875 21.519 13.875 31.852v18 .088c-.059 8.965-9 16.945-9 26.912v306c0 17-1 41-20 49" transform="translate(-641)"/></svg>