<svg clip-rule="evenodd" fill-rule="evenodd" stroke-linejoin="round" stroke-miterlimit="2" viewBox="0 0 157 938" xmlns="http://www.w3.org/2000/svg"><path d="m157 938c-27 0-93-8-128-23-19-8-20-32-20-49v-236c0-9.935-8.883-17.896-8.999-26.824-.001-.059-.001-.117-.001-.176v-18c0-7.62 2.244-17.074 7.331-24.645 0 0 2.624-3.434 2.821-3.656 6.005-7.147 8.043-15.759 8.216-25.135-1.129-10.322-3.296-32.572-3.296-32.572-12.733-136.878-11.278-273.76 6.852-410.642-.086-6.449-2.116-11.286-8.442-16.242-3.646-1.17-6.992-3.402-9.416-6.186-2.548-2.926-4.066-6.439-4.066-9.922v-18c0-15.302 9.048-38 32-38l-5.185 6.517c-15.142 3.149-20.815 20.01-20.815 31.483v18c0 2.117 1.042 4.203 2.59 5.982 1.731 1.987 4.122 3.577 6.724 4.412.677.217 1.309.552 1.869.991 8.116 6.359 10.63 12.611 10.74 20.885.004.29-.013.58-.051.867-18.071 136.435-19.517 272.87-6.826 409.299.004.046 3.326 32.984 3.321 33.239-.199 10.794-2.708 20.656-9.621 28.884l-.991 1.172c-5.438 6.789-7.755 16.006-7.755 23.269l.001 18.099c.046 3.58 2.086 6.881 3.879 10.368 2.67 5.193 5.12 10.6 5.12 16.533v236c0 7.992.173 17.636 2.641 26.216 2.126 7.39 5.994 14.015 13.687 17.254l.036.015c31.669 13.573 89.21 21.256 118.765 22.373h-.001z"/></svg>