<svg clip-rule="evenodd" fill-rule="evenodd" viewBox="0 0 673 940" xmlns="http://www.w3.org/2000/svg"><g transform="translate(-35 -30)"><g fill="#372f2f"><path d="m84 577c-22 3-21-28-25-49l-9 1c3 22 8 44-6 59zm-2-474c-14 0-15 19-19 40l-9-1c3-22 6-31 6-41z"/><path d="m659 577c22 3 21-28 25-49l9 1c-3 22-8 44 6 59zm35-474c-12 9-8 19-5 39l-9 1c-4-20-5-38-16-40h-3l35-2z"/><path d="m694 644 14-11c0 9-9 17-9 27v236c0 17-1 41-20 49-35 15-101 23-128 23-9-8-23-8-34-9h-107l2-6h183c44-1 87-9 94-23v-265c0-10-5-15-15-15h-572c-10 0-15 5-15 15v265c6 14 50 22 94 23h231l-2 6h-184c-12 1-25 1-34 9-27 0-93-8-128-23-19-8-20-32-20-49v-236c0-10-9-18-9-27l14 11z"/></g><g fill="none" stroke="#372f2f"><path d="m54 647c-8 0-16-7-16-14v-18c0-14 8-35 29-35h609c21 0 29 21 29 35v18c0 7-8 14-16 14zm25-547 1-67h596c21 0 29 21 29 35v18c0 7-8 14-16 14z" stroke-width="6"/><g stroke-miterlimit="1.5" stroke-width="9"><path d="m23 4c-23 160-23 320-4 480" transform="translate(41 96)"/><path d="m23 4c-23 160-23 320-4 480" transform="matrix(-1 0 0 1 702 96)"/></g></g></g><path d="m38 70c-18.765 0-34-14.735-34-33.5s15.235-33.5 34-33.5h12c18.765 0 34 14.735 34 33.5s-15.235 33.5-34 33.5z" fill="#372f2f" stroke="#372f2f" stroke-width="6"/></svg>
