<svg clip-rule="evenodd" fill-rule="evenodd" stroke-linejoin="round" stroke-miterlimit="2" viewBox="0 0 32 895" xmlns="http://www.w3.org/2000/svg"><path d="m23 866c0 17-10.767 33.606-8.641 26.216 2.468-8.58 2.641-18.224 2.641-26.216v-236c0-5.933 2.45-11.34 5.12-16.533 1.793-3.487 3.833-6.788 3.879-10.368l.001-.099v-18c0-7.263-2.317-16.48-7.755-23.269.802 1.002 1.895 1.709 3.107 2.037h.003c-1.04-.295-1.99-.869-2.741-1.674-.23-.246-.455-.494-.675-.742l-.685-.793c-6.913-8.228-9.422-18.09-9.621-28.884-.005-.255.007-.51.034-.763 1.125-10.282 2.17-20.567 3.136-30.86.009-.091.019-.182.032-.273.056-.401.108-1.206.108-1.206.003-.046.007-.091.011-.137 12.726-136.799 11.237-273.618-6.978-410.445-.051-.389-.065-.781-.04-1.172.454-7.161 3.044-12.931 10.111-18.351 0 0 2.192-1.909 3.035-2.208 2.447-.865 4.685-2.392 6.328-4.278 1.548-1.779 2.59-3.865 2.59-5.982v-18c0-11.473-5.673-28.334-20.815-31.483l-5.185-6.517c22.952 0 32 22.698 32 38v18c0 3.483-1.518 6.996-4.066 9.922-2.298 2.639-5.425 4.783-8.851 5.995l-1.083 1.083c-5.61 4.207-7.723 8.634-8.076 14.199 18.274 137.277 19.772 274.544 7.004 411.793 0 0-.076 1.082-.151 1.621-.969 10.323-2.018 20.638-3.145 30.951.173 9.376 2.211 17.988 8.216 25.135.197.222.391.447.582.674.186.21.376.419.57.627l-.072-.02c6.319 7.889 9.072 18.58 9.072 27.02v18c0 .059 0 .117-.001.176-.116 8.928-8.999 16.889-8.999 26.824z"/></svg>