<svg clip-rule="evenodd" fill-rule="evenodd" stroke-linejoin="round" stroke-miterlimit="2" viewBox="0 0 666 926" xmlns="http://www.w3.org/2000/svg"><path d="m664 920v-310.551c4.224-5.209 12-17.32 12-36.449 0-19.147-7.792-31.259-12.001-36.447.001-33.351.001-430.754.001-464.104 4.224-5.209 12-17.32 12-36.449 0-26.228-14.583-39.338-14.947-39.661.001.002-.832-.762-.832-.762-1.106-1.014-2.553-1.577-4.054-1.577h-641.334c-1.501 0-2.948.563-4.054 1.577l4.054 4.423h641.334l.86.789s12.973 11.7 12.973 35.211c0 19.567-8.986 30.954-12 34.223v468.557c2.978 3.229 12 14.616 12 34.22 0 19.567-8.986 30.954-12 34.223v312.777z" fill="#fff" fill-opacity="0.375"/></svg>