<svg clip-rule="evenodd" fill-rule="evenodd" stroke-linejoin="round" stroke-miterlimit="2" viewBox="0 0 681 42" xmlns="http://www.w3.org/2000/svg"><path d="m670 36c0 23.511-12.973 35.211-12.973 35.211l-.86.789h-641.334l-.86-.789s-12.973-11.7-12.973-35.211 12.973-35.211 12.973-35.211l.86-.789-4.054-4.423-.833.764c-.404.359-14.946 13.468-14.946 39.659 0 26.228 14.583 39.338 14.947 39.661-.001-.002.832.762.832.762 1.106 1.014 2.553 1.577 4.054 1.577h641.334c1.478 0 2.903-.546 4.002-1.53l.885-.811c.404-.359 8.946-13.468 8.946-39.659z" fill="#000" fill-opacity=".75"/></svg>