<svg clip-rule="evenodd" fill-rule="evenodd" stroke-linejoin="round" stroke-miterlimit="2" viewBox="0 0 671 923" xmlns="http://www.w3.org/2000/svg"><path d="m13 70.221v468.558c-3.016 3.269-12 14.655-12 34.221s8.984 30.952 12 34.221v315.779h645v-315.779c3.016-3.269 12-14.655 12-34.221s-8.984-30.952-12-34.221v-468.558c3.016-3.269 12-14.655 12-34.221 0-23.511-12.973-35.211-12.973-35.211l-.86-.789h-641.334l-.86.789s-12.973 11.7-12.973 35.211c0 19.566 8.984 30.952 12 34.221zm6 538.779h633v308h-633c0-30.14 0-277.86 0-308zm634.728-66c2.489 2.765 10.272 12.786 10.272 30s-7.783 27.235-10.272 29.999c-30.671.001-605.785.001-636.456.001v-.001c-2.489-2.764-10.272-12.785-10.272-29.999s7.783-27.235 10.272-29.999zm-634.728-6h633v-465h-633zm-1.728-531h636.456c2.489 2.765 10.272 12.786 10.272 30s-7.783 27.235-10.272 29.999c0 .001-636.456.001-636.456.001-2.489-2.765-10.272-12.786-10.272-30s7.783-27.235 10.272-29.999z"/></svg>