<svg clip-rule="evenodd" fill-rule="evenodd" stroke-linejoin="round" stroke-miterlimit="2" viewBox="0 0 20 925" xmlns="http://www.w3.org/2000/svg"><linearGradient id="shadow_l" gradientUnits="userSpaceOnUse" x1="0" x2="0" y1="0" y2="18"><stop offset="0" stop-color="#fff" stop-opacity=".5"/><stop offset=".25" stop-color="#000" stop-opacity="0"/><stop offset="1" stop-color="#000" stop-opacity=".75"/></linearGradient><g fill-opacity=".75"><path d="m14.833 803-.86.789c-.404.359-18.973 9.02-18.973 35.211 0 19.147 7.792 31.259 12 36.446v45.554h6v-47.78c-2.978-3.229-12-14.616-12-34.22 0-23.511 12.973-35.211 12.973-35.211z"/><path d="m670 839c0 23.511-12.973 35.211-12.973 35.211l-.86.789v6c1.478 0 2.903-.546 4.002-1.53l.885-.811c.404-.359 8.946-13.468 8.946-39.659z"/></g></svg>