<svg clip-rule="evenodd" fill-rule="evenodd" stroke-linejoin="round" stroke-miterlimit="2" viewBox="0 0 20 925" xmlns="http://www.w3.org/2000/svg"><linearGradient id="shadow_l" gradientUnits="userSpaceOnUse" x1="0" x2="0" y1="0" y2="18"><stop offset="0" stop-color="#000" stop-opacity="0"/><stop offset="1" stop-color="#000" stop-opacity=".75"/></linearGradient><path d="m14.833 0-4.054-4.423-.833.764c-.404.359-14.946 13.468-14.946 39.659 0 19.147 7.792 31.259 12 36.446v464.105c-4.224 5.209-12 17.32-12 36.449 0 19.147 7.792 31.259 12.001 36.447-.001-.001-.001 310.553-.001 310.553h6v-312.78c-2.978-3.229-12-14.616-12-34.22 0-19.567 8.986-30.954 12-34.223v-468.557c-2.978-3.229-12-14.616-12-34.22 0-23.511 12.973-35.211 12.973-35.211z" fill="url(#shadow_l)"/></svg>