<svg clip-rule="evenodd" fill-rule="evenodd" stroke-linejoin="round" stroke-miterlimit="2" viewBox="0 0 681 42" xmlns="http://www.w3.org/2000/svg"><linearGradient id="shadow_t" gradientUnits="userSpaceOnUse" x1="0" x2="0" y1="0" y2="72"><stop offset="0" stop-color="#fff" stop-opacity=".5"/><stop offset=".375" stop-color="#fff" stop-opacity="0"/><stop offset="1" stop-color="#fff" stop-opacity=".125"/></linearGradient><path d="m10.779-4.423-.833.764c-.404.359-14.946 13.468-14.946 39.659 0-26.191 18.569-34.852 18.973-35.211l.86-.789h641.334l.86.789s12.973 11.7 12.973 35.211-12.973 35.211-12.973 35.211l-.86.789 4.054 4.423.833-.764c.404-.359 14.946-13.468 14.946-39.659 0-26.228-14.583-39.338-14.947-39.661.001.002-.832-.762-.832-.762-1.106-1.014-2.553-1.577-4.054-1.577h-641.334c-1.501 0-2.948.563-4.054 1.577z" fill="url(#shadow_t)"/></svg>