<svg clip-rule="evenodd" fill-rule="evenodd" stroke-linejoin="round" stroke-miterlimit="2" viewBox="0 0 671 923" xmlns="http://www.w3.org/2000/svg"><filter id="tokenglowb" x="-50%" y="-50%" width="200%" height="200%"><feGaussianBlur stdDeviation="1 1" result="glow"/><feMerge><feMergeNode in="glow"/><feMergeNode in="glow"/></feMerge></filter><linearGradient id="titleshadowb" gradientUnits="userSpaceOnUse" x1="0" x2="0" y1="0" y2="72"><stop offset="0" stop-color="#afafaf" stop-opacity=".5"/><stop offset=".25" stop-color="#000" stop-opacity=".5"/></linearGradient><path d="m9.946-3.659c-.404.359-14.946 13.468-14.946 39.659 0 26.228 14.583 39.338 14.947 39.661l-.001-.002.833.764c1.106 1.014 2.553 1.577 4.054 1.577h641.334c1.501 0 2.948-.563 4.054-1.577l.833-.764c.404-.359-5.027-5.448-5.027-5.448l-.86.789h-639.334l-.86-.789s-12.973-10.7-12.973-34.211 12.973-34.211 12.973-34.211z" fill="url(#titleshadowb)" style="filter: url(#tokenglowb)"/></svg>