<svg clip-rule="evenodd" fill-rule="evenodd" stroke-linejoin="round" stroke-miterlimit="2" viewBox="0 0 675 78" xmlns="http://www.w3.org/2000/svg" xmlns:xlink="http://www.w3.org/1999/xlink"><linearGradient id="stb" gradientTransform="matrix(0 72 -72 0 0 6)" gradientUnits="userSpaceOnUse" x1="0" x2="1" y1="0" y2="0"><stop offset="0"/><stop offset="1"/></linearGradient><path d="m19.833 6c-.404.359-19.833 9.809-19.833 36 0 26.228 14.583 39.338 14.947 39.661-.001-.002.832.762.832.762 1.106 1.014 2.553 1.577 4.054 1.577h641.334c1.501 0 2.948-.563 4.054-1.577l.833-.764c.402-.357 8.879-13.366 8.945-39.357-.11 23.309-12.972 34.909-12.972 34.909l-.86.789h-641.334l-.86-.789s-12.973-11.7-12.973-35.211 12.973-35.211 12.973-35.211z" fill="url(#stb)"/></svg>