<svg clip-rule="evenodd" fill-rule="evenodd" stroke-linejoin="round" stroke-miterlimit="2" viewBox="0 0 671 923" xmlns="http://www.w3.org/2000/svg" xmlns:xlink="http://www.w3.org/1999/xlink"><linearGradient id="typelineshadowa" gradientTransform="matrix(4 0 0 147 45 844.5)" gradientUnits="userSpaceOnUse" x1="0" x2="1" y1="0" y2="0"><stop offset="0" stop-opacity=".5"/><stop offset="1" stop-opacity=".5"/></linearGradient><linearGradient id="typelineshadowb" gradientTransform="matrix(0 72 -72 0 0 0)" gradientUnits="userSpaceOnUse" x1="0" x2="1" y1="0" y2="0"><stop offset="0" stop-color="#afafaf" stop-opacity=".5"/><stop offset=".25" stop-opacity=".5"/><stop offset="1" stop-opacity=".5"/></linearGradient><linearGradient id="typelineshadowc" gradientTransform="matrix(0 72 -72 0 0 0)" gradientUnits="userSpaceOnUse" x1="0" x2="1" y1="0" y2="0"><stop offset="0" stop-color="#fff" stop-opacity=".5"/><stop offset="1" stop-opacity=".5"/></linearGradient><path d="m45 772.363v145.637h4v-140.573c-.548-.232-1.053-.651-1.481-1.217l-.555-.734.001.002c-.068-.086-.864-1.117-1.965-3.115z" fill="url(#typelineshadowa)" transform="matrix(1.5 0 0 1.04082 -60.5 -731.469)"/><path d="m13 77.69v-9.462c-3.632-4.068-11-14.51-11-32.228 0-23.511 12.973-34.211 12.973-34.211l-5.027-5.448c-.404.359-14.946 13.468-14.946 39.659 0 26.228 14.583 39.338 14.947 39.661l-.001-.002.833.764c.642.589 1.399 1.025 2.221 1.267z" fill="url(#typelineshadowb)"/><path d="m669 36c0 17.718-7.368 28.16-11 32.228v155.772h6v-151.581c4.382-5.358 12-17.462 12-36.419z" fill="#fff" fill-opacity=".25"/><path d="m658 72.349 6 .07c4.382-5.358 12-17.462 12-36.419 0-26.228-14.583-39.338-14.947-39.661.001.002-.832-.762-.832-.762-1.106-1.014-2.553-1.577-4.054-1.577h-641.334c-1.501 0-2.948.563-4.054 1.577l-.833.764 5.027 5.448.86-.789h639.334l.86.789s12.973 10.7 12.973 34.211c0 17.718-7.368 28.16-11 32.228z" fill="url(#typelineshadowc)"/></svg>