<svg clip-rule="evenodd" fill-rule="evenodd" stroke-linejoin="round" stroke-miterlimit="2" viewBox="0 0 64 31" xmlns="http://www.w3.org/2000/svg"><path d="m7.001 20c0 4.006-1.062 7.696-2.485 11.027 6.46.716 15.562 1.406 27.484 1.473 11.922-.067 21.024-.757 27.484-1.473-1.423-3.331-2.485-7.021-2.485-11.027h3c0 5.108 1.961 9.635 4.001 13.5-6.538.868-17.09 1.916-32 2-14.91-.084-25.462-1.132-32-2 2.04-3.865 4.001-8.392 4.001-13.5zm49.998 0h3c0-5.108 1.961-9.635 4.001-13.5-6.538-.868-17.09-1.916-32-2-14.91.084-25.462 1.132-32 2 2.04 3.865 4.001 8.392 4.001 13.5h3c0-4.006-1.062-7.696-2.485-11.027 6.46-.716 15.562-1.406 27.484-1.473 11.922.067 21.024.757 27.484 1.473-1.423 3.331-2.485 7.021-2.485 11.027z" transform="translate(0 -4.50032)"/></svg>