<svg clip-rule="evenodd" fill-rule="evenodd" stroke-linejoin="round" stroke-miterlimit="2" viewBox="0 0 720 80" xmlns="http://www.w3.org/2000/svg"><path d="m4 2h720v80h-720z"/><path d="m289.774 17h-3.258l-5.124-7.173-1.388.443c-25.754 8.219-63.579 17.476-80.019 17.73-8.443.131-13.32.253-20.951.001-9.692-.322-39.007-5.577-60.117-18.609l-.815-.503-.903.319c-4.045 1.431-9.774 6.635-13.894 11.429-1.705 1.984-3.136 3.896-4.066 5.429-.441.728-.772 1.383-.982 1.935-15.173.025-24.795-.242-35.185-.999-8.658-.629-24.797-4.847-38.739-15.248l-1.484-1.107-1.218 1.395c-11.667 13.36-19.307 28.93-19.627 37.833l-.006.184.027.183c.895 6.006 2.773 11.217 6.202 15.393.982 1.196.782 2.482.073 3.61-3.213 1.772-4.993 3.039-5.964 3.982-1.326 1.287-1.413 2.187-1.328 2.895 1.477 12.602 3.438 21.942 11.374 33.328l1.584 2.272 1.659-2.218c3.756-5.023 7.245-10.094 16.401-10.503h650.95c3.861.173 6.402.838 8.316 2.068 2.573 1.654 3.99 4.299 5.989 7.895l1.575 2.835 1.826-2.681c6.885-10.109 10.6-20.742 11.163-30.059l.001-.001-.001.001.002-.046.008-.006.135-.841-.575.49c.336-.326.6-.637.6-.808 0-.12-.009-.216-.025-.289-.027-.222-.09-.492-.201-.79-.164-.441-.435-.973-.851-1.574-1.109-1.599-3.301-3.761-7.235-5.95-.709-1.132-.908-2.416.073-3.61 3.437-4.187 4.316-8.378 5.201-14.389l.031-.21-.014-.212c-.332-5.056-5.151-23.58-19.742-38.002l-1.082-1.07-1.319.757c-10.061 5.77-22.451 12.118-36.951 13.623-12.329 1.277-22.014 1.885-37.212 1.869-.449-.971-1.359-2.435-2.613-4.145-3.498-4.774-9.663-11.676-14.947-15.307l-1.097-.754-1.119.721c-17.098 11.019-38.62 17.335-63.02 19.626-7.572.71-8.465-.011-16.874-.142-16.432-.254-57.171-9.5-82.004-17.717l-1.399-.463-5.128 7.18h-2.26c-2.682-1.249-30.934-14-66.225-14-35.462 0-63.818 12.874-66.228 14zm419.954 63.467c.054-.554.096-1.104.128-1.649l.025-.132-.001.004.135-.841v-.001c.014-.09-.039-.216-.101-.383-.118-.318-.32-.698-.62-1.131-1.021-1.473-3.088-3.439-6.771-5.457-.137-.075-.255-.181-.344-.31-1.315-1.913-1.642-4.139.051-6.201 3.198-3.895 3.945-7.819 4.768-13.411-.321-4.889-5.044-22.766-19.152-36.711-10.273 5.891-22.935 12.341-37.74 13.877-12.582 1.304-22.426 1.914-38.105 1.879-.461-.001-.861-.317-.97-.764-.178-.736-1.152-2.265-2.569-4.198-3.389-4.624-9.348-11.323-14.467-14.841-17.343 11.177-39.166 17.612-63.916 19.936-7.67.719-8.575-.001-17.092-.133-16.55-.256-57.589-9.542-82.601-17.818l-4.57 6.399c-.188.263-.491.419-.814.419h-3.001c-.164 0-.327-.041-.472-.119 0 0-28.93-13.881-65.527-13.881-36.598 0-65.529 13.881-65.529 13.881-.145.078-.307.119-.472.119h-4c-.323 0-.626-.156-.813-.419l-4.576-6.406c-25.937 8.278-64.039 17.569-80.596 17.825-8.482.131-13.382.253-21.048 0-9.85-.327-39.647-5.661-61.102-18.906-3.814 1.349-9.159 6.326-13.044 10.847-1.623 1.888-2.988 3.704-3.873 5.163-.521.858-.876 1.566-.964 2.068-.083.478-.497.827-.982.828-15.669.035-25.474-.231-36.076-1.003-8.891-.646-25.472-4.959-39.79-15.64-11.302 12.943-18.824 27.965-19.134 36.59.838 5.621 2.561 10.511 5.77 14.419 1.693 2.062 1.368 4.288.051 6.201-.089.129-.206.235-.343.31-3.11 1.704-4.831 2.89-5.752 3.785-.594.576-.773.905-.735 1.222 1.437 12.259 3.312 21.351 11.029 32.422 4.088-5.466 7.96-10.865 17.933-11.304.015-.001.029-.001.044-.001h651.003c.014 0 .029 0 .044.001 4.328.19 7.173 1.001 9.326 2.384 2.825 1.816 4.462 4.658 6.656 8.606 6.236-9.156 9.806-18.748 10.679-27.33l.148.156-.141-.169-.005-.002v-.004l.005.006.16.036-.151-.178.001-.008.136.163c-.024-.035-.07-.104-.133-.195zm.309.089.784-.649.203-.192z"/></svg>