<svg clip-rule="evenodd" fill-rule="evenodd" stroke-linejoin="round" stroke-miterlimit="2" viewBox="0 0 707 112" xmlns="http://www.w3.org/2000/svg"><g transform="translate(1 1)"><path d="m31 97.001c-10.236.45-13.747 6.402-18 11.999-8.498-11.743-10.493-21.155-12-33.999-.12-1.022.538-2.461 7-6.001 1.062-1.542 1.365-3.337 0-4.999-3.337-4.065-5.139-9.147-6-15 .271-8.901 8.133-24.65 20-38.001 14.294 10.947 31.072 15.351 40 16 10.58.77 20.364 1.035 36 1 .636-3.648 12.403-17.079 19.001-19 21.309 13.317 51.169 18.674 61 19 7.648.253 12.537.131 21 0 16.646-.257 55.146-9.696 81.001-18l4.999 7h4s26.125-14 63.001-14c36.875 0 62.999 14 62.999 14h3.001l4.999-7c24.85 8.304 66.355 17.743 83.002 18 8.462.131 9.362.852 16.983.137 24.836-2.332 46.709-8.819 64.017-20.137 7.602 4.944 17.358 17.353 18 20 15.636.035 25.453-.574 38-1.874 14.968-1.553 27.718-8.197 38-14.126 14.879 14.358 19.73 33.118 20 38-.86 5.854-1.663 9.936-5 14.001-1.365 1.662-1.06 3.457 0 4.999 6.463 3.54 8.156 6.984 8 8-1.506 9.828-5.519 21.269-12 32-4.253-7.609-5.764-11.549-16-11.999zm0-1c-.015 0-.029 0-.044.001-9.973.439-13.845 5.838-17.933 11.304-7.717-11.071-9.592-20.163-11.029-32.422-.038-.317.141-.646.735-1.222.921-.895 2.642-2.081 5.752-3.785.137-.075.254-.181.343-.31 1.317-1.913 1.642-4.139-.051-6.201-3.209-3.908-4.932-8.798-5.77-14.419.31-8.625 7.832-23.647 19.134-36.59 14.318 10.681 30.899 14.994 39.79 15.64 10.602.772 20.407 1.038 36.076 1.003.485-.001.899-.35.982-.828.088-.502.443-1.21.964-2.068.885-1.459 2.25-3.275 3.873-5.163 3.885-4.521 9.23-9.498 13.044-10.847 21.455 13.245 51.252 18.579 61.102 18.906 7.666.253 12.566.131 21.048 0 16.557-.256 54.659-9.547 80.596-17.825 0 0 4.576 6.406 4.576 6.406.187.263.49.419.813.419h4c.165 0 .327-.041.472-.119 0 0 25.931-13.881 62.529-13.881 36.597 0 62.527 13.881 62.527 13.881.145.078.308.119.472.119h3.001c.323 0 .626-.156.814-.419l4.57-6.399c25.012 8.276 66.051 17.562 82.601 17.818 8.517.132 9.422.852 17.092.133 24.75-2.324 46.573-8.759 63.916-19.936 5.119 3.518 11.078 10.217 14.467 14.841 1.417 1.933 2.391 3.462 2.569 4.198.109.447.509.763.97.764 15.679.035 25.523-.575 38.105-1.879 14.805-1.536 27.467-7.986 37.74-13.877 14.108 13.945 18.831 31.822 19.152 36.711-.823 5.592-1.57 9.516-4.768 13.411-1.693 2.062-1.366 4.288-.051 6.201.089.129.207.235.344.31 3.683 2.018 5.75 3.984 6.771 5.457.3.433.502.813.62 1.131.062.167.115.293.101.383v.001c-1.42 9.262-5.095 19.972-10.986 30.143-2.194-3.948-3.831-6.79-6.656-8.606-2.153-1.383-4.998-2.194-9.326-2.384-.015-.001-.03-.001-.044-.001z"/><path d="m31.046 99.001h644.912c3.603.162 5.996.755 7.793 1.909 2.812 1.807 4.157 4.863 6.506 9.066.347.622 1 1.012 1.712 1.024s1.377-.356 1.746-.966c6.629-10.975 10.724-22.679 12.265-32.73.085-.551.006-1.532-.653-2.758-.919-1.709-3.178-4.368-7.899-7.042-.384-.712-.484-1.497.121-2.234 3.577-4.356 4.511-8.705 5.433-14.98.019-.132.025-.267.018-.401-.28-5.047-5.223-24.483-20.608-39.328-.641-.619-1.615-.739-2.388-.294-10.071 5.808-22.546 12.349-37.208 13.87-12.129 1.257-21.693 1.864-36.503 1.865-.529-.995-1.348-2.287-2.411-3.737-3.686-5.029-10.291-12.367-15.789-15.942-.664-.432-1.521-.431-2.185.003-17.06 11.156-38.628 17.521-63.109 19.82-7.523.706-8.411-.016-16.765-.146-16.527-.255-57.728-9.652-82.399-17.897-.833-.279-1.75.019-2.261.734l-4.401 6.163h-1.485c-3.657-1.856-28.914-14-63.486-14-34.571 0-59.829 12.144-63.488 14h-2.483s-4.402-6.163-4.402-6.163c-.505-.708-1.411-1.007-2.239-.741-25.672 8.245-63.892 17.649-80.42 17.904-8.424.131-13.29.253-20.903.001-9.671-.32-39.044-5.597-60.006-18.697-.484-.302-1.073-.384-1.62-.224-4.208 1.225-10.472 6.76-14.895 11.906-2.267 2.638-4.025 5.199-4.912 7.017-14.784.016-24.263-.253-34.489-.998-8.69-.632-25.015-4.937-38.929-15.593-.832-.637-2.015-.524-2.711.259-12.242 13.774-20.225 30.087-20.504 39.269-.003.118.004.235.021.352.918 6.241 2.875 11.645 6.433 15.978.603.735.505 1.519.122 2.23-3.182 1.771-4.956 3.056-5.939 4.01-1.69 1.642-1.73 2.821-1.624 3.724 1.548 13.203 3.63 22.867 12.366 34.939.371.513.963.82 1.596.827.634.007 1.233-.286 1.616-.79 3.913-5.149 7.045-10.771 16.434-11.209zm-.046-2c-10.236.45-13.747 6.402-18 11.999-8.498-11.743-10.493-21.155-12-33.999-.12-1.022.538-2.461 7-6.001 1.062-1.542 1.365-3.337 0-4.999-3.337-4.065-5.139-9.147-6-15 .271-8.901 8.133-24.65 20-38.001 14.294 10.947 31.072 15.351 40 16 10.58.77 20.364 1.035 36 1 .636-3.648 12.403-17.079 19.001-19 21.309 13.317 51.169 18.674 61 19 7.648.253 12.537.131 21 0 16.646-.257 55.146-9.696 81.001-18l4.999 7h4s26.125-14 63.001-14c36.875 0 62.999 14 62.999 14h3.001l4.999-7c24.85 8.304 66.355 17.743 83.002 18 8.462.131 9.362.852 16.983.137 24.836-2.332 46.709-8.819 64.017-20.137 7.602 4.944 17.358 17.353 18 20 15.636.035 25.453-.574 38-1.874 14.968-1.553 27.718-8.197 38-14.126 14.879 14.358 19.73 33.118 20 38-.86 5.854-1.663 9.936-5 14.001-1.365 1.662-1.06 3.457 0 4.999 6.463 3.54 8.156 6.984 8 8-1.506 9.828-5.519 21.269-12 32-4.253-7.609-5.764-11.549-16-11.999z"/></g></svg>