<svg clip-rule="evenodd" fill-rule="evenodd" stroke-linejoin="round" stroke-miterlimit="3" viewBox="0 0 633 735" xmlns="http://www.w3.org/2000/svg" xmlns:xlink="http://www.w3.org/1999/xlink"><image style="clip-path: url(#artmask)" xlink:href="{$thisArt}"/><clipPath id="artmask"><path d="m13.945 54.574c2.902-14.89 14.297-54.574 14.297-54.574h576.516c2.418 8.225 11.092 38.132 14.297 54.574 3.82 19.6 5.978 44.604 7.967 60.792 4.737 38.553 5.952 115.945 5.978 117.651v501.983h-249.916c-11.654-24.812-36.878-42-66.084-42s-54.43 17.188-66.084 42h-250.916c0-41.325 0-495.799 0-501.937.11-2.633 3.696-88.482 5.991-117.829 1.59-20.331 4.142-41.103 7.954-60.66zm16.546-51.574h572.02c3.021 10.356 10.646 36.997 13.6 52.148 3.807 19.532 5.951 44.452 7.934 60.584 4.721 38.421 5.927 115.52 5.955 117.327v498.941h-245.038c-12.475-24.9-38.237-42-67.962-42s-55.487 17.101-67.962 42h-246.038c0-56.325 0-490.412 0-498.875.154-3.688 3.704-88.529 5.982-117.657 1.581-20.217 4.117-40.873 7.907-60.32 2.954-15.151 10.579-41.793 13.602-52.148z" fill="#000" fill-rule="nonzero"/></clipPath><path d="m13.945 54.574c2.902-14.89 14.297-54.574 14.297-54.574h576.516c2.418 8.225 11.092 38.132 14.297 54.574 3.82 19.6 5.978 44.604 7.967 60.792 4.737 38.553 5.952 115.945 5.978 117.651v501.983h-249.916c-11.654-24.812-36.878-42-66.084-42s-54.43 17.188-66.084 42h-250.916c0-41.325 0-495.799 0-501.937.11-2.633 3.696-88.482 5.991-117.829 1.59-20.331 4.142-41.103 7.954-60.66zm16.546-51.574h572.02c3.021 10.356 10.646 36.997 13.6 52.148 3.807 19.532 5.951 44.452 7.934 60.584 4.721 38.421 5.927 115.52 5.955 117.327v498.941h-245.038c-12.475-24.9-38.237-42-67.962-42s-55.487 17.101-67.962 42h-246.038c0-56.325 0-490.412 0-498.875.154-3.688 3.704-88.529 5.982-117.657 1.581-20.217 4.117-40.873 7.907-60.32 2.954-15.151 10.579-41.793 13.602-52.148z" fill="#000"/></svg>