<svg clip-rule="evenodd" fill-rule="evenodd" stroke-linejoin="round" stroke-miterlimit="2" viewBox="0 0 642 474" xmlns="http://www.w3.org/2000/svg"><path d="m27.552 115.965.053.008-.028-.002-.025-.003c-14.875 127.384-15.37 254.798-3.516 382.224 3.593 19.058 3.16 46.202 19.461 48.808h586.006c16.301-2.605 15.868-29.75 19.461-48.808 11.862-127.511 11.358-255.018-3.555-382.554l-.311.351-.006-.101.303-.37-.297-2.529-.098.011c-4-20-5-38-16-40h-582c-14 0-15 19-19 40l-.098-.011zm614.655-1.869c15.101 127.915 15.671 255.795 3.783 383.679-2.107 11.259-2.771 25.345-6.446 35.376-2.051 5.596-4.995 9.897-10.289 10.848-13.587.001-571.919.001-585.506.001-5.298-.953-8.242-5.254-10.293-10.85-3.676-10.033-4.34-24.121-6.447-35.38-11.888-127.897-11.317-255.786 3.784-383.675.067-.17.119-.349.154-.534 1.971-10.347 3.181-20.205 5.644-27.473 2.018-5.952 4.76-10.088 10.409-10.088h581.706c3.281.712 5.2 3.489 6.745 7.309 2.994 7.402 4.25 18.492 6.607 30.279.035.176.086.346.149.508zm-614.624 1.876.04.003-.046-.004z" transform="translate(-15.7141 -73)"/></svg>