<svg clip-rule="evenodd" fill-rule="evenodd" stroke-linejoin="round" stroke-miterlimit="2" viewBox="0 0 645 404" xmlns="http://www.w3.org/2000/svg"><path d="m26.441 436.467 2.506-3.028c1.765 9.267 2.344 19.319 4.369 27.369 1.688 6.714 4.254 12.031 10.424 13.192h585.522c6.168-1.161 8.734-6.478 10.422-13.192 2.025-8.05 2.604-18.102 4.369-27.369-.167.878.066 1.785.636 2.474.457.553 1.094.918 1.789 1.041-2.951 17.928-2.642 37.634-16.953 40.046h-586.05c-14.441-2.433-13.995-22.477-17.034-40.533zm2.108-323.503.404-2.964h.047c4-21 5-37 19-37h577c14 0 15 16 19 37h.047l.344 2.527-.247.299-.097.174.354-.405c7.573 55.619 12.293 99.594 13.099 162.461.795 65.146-3.484 104.338-10.301 158.944h-.199c-.184.964-.355 1.937-.515 2.912-.589-.143-1.126-.464-1.534-.926-.57-.645-.835-1.504-.728-2.358 6.799-54.465 11.07-93.556 10.278-158.534-.815-63.51-5.636-107.696-13.356-164.173-.038-.117-.069-.237-.092-.36-1.962-10.299-3.158-19.379-5.61-25.877-1.999-5.298-4.845-8.684-10.443-8.684h-577c-5.598 0-8.444 3.386-10.443 8.684-2.452 6.498-3.648 15.578-5.61 25.877-.023.123-.054.243-.092.36-7.72 56.477-12.541 100.663-13.356 164.173-.792 64.978 3.479 104.069 10.278 158.534l-2.364 2.678c-.13-.771-.267-1.541-.413-2.306h-.199c-6.817-54.606-11.096-93.798-10.301-158.944.804-62.726 5.505-106.645 13.048-162.084.133.019.268.028.405.028l-.001-.001c-.136-.002-.27-.014-.403-.035z" transform="translate(-14.4053 -73)"/></svg>