<svg clip-rule="evenodd" fill-rule="evenodd" stroke-linejoin="round" stroke-miterlimit="2" viewBox="0 0 657 60" xmlns="http://www.w3.org/2000/svg" xmlns:xlink="http://www.w3.org/1999/xlink"><linearGradient id="typelinebara" gradientUnits="userSpaceOnUse" x1="0" x2="0" y1="49" y2="95"><stop offset="0"/><stop offset="1" stop-color="#1f5fbf"/></linearGradient><linearGradient id="typelinebarb" gradientUnits="userSpaceOnUse" x1="0" x2="0" y1="49" y2="95"><stop offset="0" stop-color="#fff"/><stop offset="1" stop-color="#1f5fbf"/></linearGradient><path d="m646 2h-635c-1.538 1.857-9 11.665-9 28s7.462 26.143 9 28h635c1.541-1.852 9.038-11.662 9-28-.038-16.334-7.466-26.14-9-28z" fill="#1f5fbf" fill-opacity=".8875"/><g fill-opacity=".5"><path d="m56 57h631c8.368 12.302 8.421 33.718 0 46l2 5c12.289-14.767 12.198-41.209 0-56h-635z" fill="url(#typelinebara)" transform="matrix(-1 0 0 -1 700 110)"/><path d="m57 55h631c8.368 12.302 8.421 33.718 0 46l2 5c12.289-14.767 12.198-41.209 0-56h-635z" fill="url(#typelinebarb)" transform="translate(-44 -48)"/></g><path d="m10 0s-10 10.89-10 30 10 30 10 30h637s10.044-10.887 10-30c-.044-19.108-10-30-10-30zm636 2h-635c-1.538 1.857-9 11.665-9 28s7.462 26.143 9 28h635c1.541-1.852 9.038-11.662 9-28-.038-16.334-7.466-26.14-9-28z"/></svg>



