<svg clip-rule="evenodd" fill-rule="evenodd" stroke-linejoin="round" stroke-miterlimit="2" viewBox="0 0 64 32" xmlns="http://www.w3.org/2000/svg" xmlns:xlink="http://www.w3.org/1999/xlink"><linearGradient id="a" gradientTransform="matrix(64 32 -32 64 0 0)" gradientUnits="userSpaceOnUse" x1="0" x2="1" y1="0" y2="0"><stop offset="0" stop-color="#cfffd7"/><stop offset=".2" stop-color="#dfffdf"/><stop offset=".25" stop-color="#efffef"/><stop offset=".3" stop-color="#dff7bf"/><stop offset=".5" stop-color="#dff78f"/><stop offset=".7" stop-color="#f7f7af"/><stop offset=".75" stop-color="#fff79f"/><stop offset=".8" stop-color="#ffef8f"/><stop offset="1" stop-color="#ffcf7f"/></linearGradient><linearGradient id="b" gradientTransform="matrix(64 32 -32 64 0 0)" gradientUnits="userSpaceOnUse" x1="0" x2="1" y1="0" y2="0"><stop offset="0" stop-color="#3f3f3f"/><stop offset=".2" stop-color="#c7c7c7"/><stop offset=".25" stop-color="#dfdfdf"/><stop offset=".3" stop-color="#c7c7c7"/><stop offset=".5" stop-color="#3f3f3f"/><stop offset=".7" stop-color="#c7c7c7"/><stop offset=".75" stop-color="#dfdfdf"/><stop offset=".8" stop-color="#c7c7c7"/><stop offset="1" stop-color="#3f3f3f"/></linearGradient><linearGradient id="c" gradientTransform="matrix(64 32 -32 64 0 0)" gradientUnits="userSpaceOnUse" x1="0" x2="1" y1="0" y2="0"><stop offset="0" stop-color="#bfbfbf"/><stop offset=".2" stop-color="#dfdfdf"/><stop offset=".25" stop-color="#efefef"/><stop offset=".3" stop-color="#dfdfdf"/><stop offset=".5" stop-color="#bfbfbf"/><stop offset=".7" stop-color="#dfdfdf"/><stop offset=".75" stop-color="#efefef"/><stop offset=".8" stop-color="#dfdfdf"/><stop offset="1" stop-color="#bfbfbf"/></linearGradient><ellipse cx="32" cy="16" fill="url(#a)" rx="32" ry="16"/><path d="m26.869 31.795c-1.031-.638-1.869-.795-1.869-.795s0-5.667 1.667-9c1.666-3.333 4-3.667 5.333-3.667s3.667.667 5.333 3.667c1.667 3 1.667 9 1.667 9s-.98.061-2.123.815c-1.59.122-3.219.185-4.877.185-1.747 0-3.461-.07-5.131-.205zm15.132-.593c-.408-.153-.668-.202-.668-.202s0-5.667 1.667-9 4-3.667 5.333-3.667c1.334 0 3.667.667 5.334 3.667.755 1.359 1.168 3.334 1.394 5.088-3.579 1.86-8.047 3.289-13.06 4.114zm-33.045-4.105c.23-1.695.641-3.624 1.377-5.097 1.667-3.333 4-3.667 5.334-3.667 1.333 0 3.666.667 5.333 3.667s1.667 9 1.667 9-.321.02-.809.178c-4.948-.827-9.359-2.243-12.902-4.081zm14.877.903s-1-6.167-2.666-9c-1.667-2.833-4.334-3.333-4.334-3.333s0-5.667 1.667-9c1.667-3.334 4-3.667 5.333-3.667 1.334 0 3.667.667 5.334 3.667 1.666 3 1.666 9 1.666 9s-2.666.166-4.333 3.333-2.667 9-2.667 9zm16.334 0s-1-6.167-2.667-9-4.333-3.333-4.333-3.333 0-5.667 1.666-9c1.667-3.334 4-3.667 5.334-3.667 1.333 0 3.666.667 5.333 3.667s1.667 9 1.667 9-2.667.166-4.334 3.333c-1.666 3.167-2.666 9-2.666 9zm-29.531-23.908c.768.56 1.535 1.383 2.197 2.575 1.667 3 1.667 9 1.667 9s-2.667.166-4.333 3.333c-1.13 2.145-1.953 5.515-2.366 7.465-.228-.132-.452-.265-.67-.4-.432-2.053-1.228-5.246-2.298-7.065-1.666-2.833-4.333-3.333-4.333-3.333s0-1.265.176-2.95c1.417-3.393 4.986-6.392 9.96-8.625zm42.605-.055c5.056 2.247 8.681 5.282 10.099 8.717.16 1.653.16 2.913.16 2.913s-2.667.166-4.333 3.333c-1.053 2.001-1.84 5.066-2.277 7.052-.222.137-.448.272-.678.405-.409-2.016-1.238-5.518-2.379-7.457-1.666-2.833-4.333-3.333-4.333-3.333s0-5.667 1.667-9c.626-1.254 1.347-2.083 2.074-2.63zm-52.866 14.419c1.316.3 3.003 1.224 4.292 3.544.481.867.824 1.985 1.067 3.137-2.725-1.955-4.601-4.226-5.359-6.681zm63.262-.042c-.746 2.46-2.614 4.738-5.334 6.696.24-1.102.572-2.194 1.03-3.11 1.293-2.586 2.987-3.366 4.304-3.586zm-42.886-17.396c-.797.477-1.7 1.285-2.418 2.649-1.666 3.166-2.666 9-2.666 9s-1-6.167-2.667-9c-.089-.152-.182-.297-.276-.436 2.429-.918 5.128-1.668 8.027-2.213zm4.397-.65c2.209-.241 4.501-.368 6.852-.368 2.329 0 4.601.125 6.789.362-.662.113-2.738.673-4.122 3.305-1.667 3.166-2.667 9-2.667 9s-1-6.167-2.667-9c-1.432-2.435-3.602-3.147-4.185-3.299zm17.758.587c3.019.548 5.828 1.317 8.346 2.267-.086.142-.17.289-.252.445-1.667 3.166-2.667 9-2.667 9s-1-6.167-2.666-9c-.824-1.4-1.891-2.23-2.761-2.712z" fill="url(#c)"/><g fill="url(#b)"><path d="m26.041 31.722c-.646-.307-1.102-.394-1.102-.394l-.272-.051v-.277s.007-5.76 1.701-9.149c1.757-3.514 4.227-3.851 5.632-3.851 1.403 0 3.871.682 5.625 3.838 1.697 3.055 1.708 9.162 1.708 9.162v.313l-.312.02s-.578.041-1.352.416c-.472.042-.946.079-1.425.111.99-.789 1.943-1.058 2.419-1.149-.022-1.218-.201-5.993-1.621-8.549-1.58-2.844-3.778-3.495-5.042-3.495-1.261 0-3.459.329-5.035 3.482-1.428 2.857-1.606 7.457-1.629 8.592.423.121 1.281.427 2.203 1.104-.504-.035-1.004-.076-1.498-.123zm-17.395-4.788c.237-1.698.654-3.614 1.389-5.083 1.757-3.514 4.226-3.851 5.632-3.851 1.402 0 3.871.682 5.624 3.838 1.697 3.055 1.709 9.162 1.709 9.162v.313l-.21.013c-.531-.08-1.056-.166-1.577-.259.465-.206.86-.307 1.117-.356-.022-1.218-.201-5.993-1.621-8.549-1.58-2.844-3.778-3.495-5.042-3.495-1.262 0-3.459.329-5.036 3.482-.738 1.477-1.142 3.419-1.363 5.108-.21-.107-.418-.214-.622-.323zm32.594 4.388-.24-.045v-.277s.007-5.76 1.702-9.149c1.757-3.514 4.226-3.851 5.631-3.851 1.403 0 3.871.682 5.625 3.838.756 1.36 1.177 3.325 1.412 5.087-.204.109-.411.217-.62.323-.216-1.744-.621-3.728-1.375-5.086-1.58-2.844-3.778-3.495-5.042-3.495-1.261 0-3.458.329-5.035 3.482-1.428 2.857-1.606 7.457-1.628 8.592.216.062.547.172.942.357-.453.079-.91.154-1.372.224zm-17.736-3.269.658.003s.985-5.769 2.633-8.901c1.567-2.978 4.059-3.156 4.059-3.156l.313-.019v-.313s-.012-6.108-1.709-9.162c-1.753-3.157-4.222-3.838-5.625-3.838-1.405 0-3.874.337-5.631 3.851-1.695 3.389-1.702 9.149-1.702 9.149v.276l.272.051s2.525.485 4.107 3.175c1.645 2.796 2.625 8.884 2.625 8.884zm16.334 0 .657.003s.985-5.769 2.633-8.901c1.568-2.978 4.059-3.156 4.059-3.156l.313-.019v-.313s-.012-6.108-1.709-9.162c-1.753-3.157-4.222-3.838-5.624-3.838-1.406 0-3.875.337-5.632 3.851-1.694 3.389-1.702 9.149-1.702 9.149v.276l.272.051s2.525.485 4.108 3.175c1.645 2.796 2.625 8.884 2.625 8.884zm-28.85-24.116c.75.58 1.492 1.407 2.137 2.568 1.697 3.054 1.708 9.162 1.708 9.162v.313l-.312.019s-2.492.178-4.059 3.156c-1.136 2.159-1.957 5.571-2.358 7.482-.473-.265-.928-.538-1.364-.818-.438-2.026-1.193-4.948-2.194-6.65-1.583-2.69-4.107-3.175-4.107-3.175l-.272-.051v-.276s0-.628.063-1.591c.186-.778.485-1.539.888-2.28-.221 1.632-.271 3.048-.282 3.611.749.215 2.865 1.01 4.285 3.424 1.13 1.921 1.961 5.355 2.386 7.416l.001-.001c.428-1.99 1.25-5.285 2.364-7.401 1.409-2.678 3.503-3.318 4.291-3.467-.022-1.218-.201-5.994-1.621-8.549-.68-1.224-1.474-2.041-2.259-2.576.232-.107.467-.213.705-.316zm41.9-.054c.239.103.476.208.71.315-.744.516-1.49 1.332-2.133 2.618-1.428 2.856-1.606 7.456-1.629 8.591.749.215 2.865 1.01 4.285 3.424 1.13 1.921 1.961 5.355 2.386 7.416l.001-.001c.428-1.99 1.25-5.285 2.364-7.401 1.409-2.678 3.503-3.318 4.291-3.467-.01-.58-.057-1.965-.255-3.534.393.731.685 1.483.867 2.252.057.948.058 1.571.058 1.571v.313l-.312.019s-2.492.178-4.059 3.156c-.986 1.872-1.734 4.686-2.176 6.647-.441.284-.901.56-1.378.828-.394-1.972-1.217-5.514-2.362-7.461-1.583-2.69-4.107-3.175-4.107-3.175l-.272-.051v-.276s.007-5.76 1.701-9.149c.612-1.224 1.31-2.062 2.02-2.635zm-29.047 22.364c-.426-2.061-1.257-5.495-2.387-7.416-1.42-2.414-3.535-3.209-4.284-3.424.022-1.135.2-5.735 1.628-8.591 1.577-3.153 3.774-3.483 5.035-3.483 1.264 0 3.462.652 5.042 3.496 1.42 2.555 1.599 7.331 1.622 8.549-.789.149-2.883.789-4.292 3.467-1.114 2.116-1.935 5.411-2.364 7.401zm16.333 0c-.426-2.061-1.256-5.495-2.387-7.416-1.419-2.414-3.535-3.209-4.284-3.424.022-1.135.2-5.735 1.628-8.591 1.577-3.153 3.774-3.483 5.036-3.483 1.263 0 3.462.652 5.042 3.496 1.419 2.555 1.599 7.331 1.621 8.549-.789.149-2.883.789-4.292 3.467-1.114 2.116-1.935 5.411-2.364 7.401zm-39.902-8.154c1.408.271 3.278 1.21 4.686 3.745.543.978.914 2.269 1.167 3.573-.272-.187-.536-.376-.792-.569-.231-.987-.541-1.929-.958-2.68-1.163-2.094-2.661-2.999-3.875-3.331-.087-.244-.163-.49-.228-.738zm63.465-.033c-.062.241-.135.48-.219.718-1.215.252-2.721 1.039-3.887 3.371-.395.79-.694 1.714-.921 2.661-.259.196-.527.389-.803.579.25-1.246.61-2.503 1.128-3.538 1.415-2.829 3.291-3.599 4.702-3.791zm-25.868-17.791c.492.046.98.097 1.464.154v.223l-.312.02s-2.492.178-4.059 3.156c-1.649 3.131-2.633 8.901-2.633 8.901l-.658-.003s-.98-6.088-2.625-8.884c-1.583-2.691-4.107-3.175-4.107-3.175l-.272-.051v-.187c.423-.05.85-.095 1.28-.137.971.394 2.543 1.29 3.674 3.212 1.13 1.921 1.961 5.355 2.386 7.415h.001c.428-1.99 1.25-5.285 2.364-7.402 1.06-2.015 2.509-2.876 3.497-3.242zm3.624.448c.782.121 1.551.257 2.304.407.735.526 1.517 1.285 2.157 2.374 1.13 1.921 1.961 5.355 2.387 7.415.429-1.99 1.25-5.285 2.364-7.402.075-.141.151-.277.229-.407.214.078.426.158.635.239-.094.151-.186.311-.274.479-1.648 3.131-2.633 8.901-2.633 8.901l-.658-.003s-.98-6.088-2.625-8.884c-1.3-2.211-3.237-2.932-3.886-3.119zm-19.351.058c-.822.229-2.401.932-3.514 3.047-1.648 3.131-2.633 8.901-2.633 8.901l-.657-.003s-.98-6.088-2.625-8.884c-.1-.17-.203-.33-.309-.482.211-.082.425-.163.641-.243.083.124.164.253.242.387 1.131 1.921 1.961 5.355 2.387 7.415.429-1.99 1.25-5.285 2.364-7.402.563-1.069 1.236-1.814 1.891-2.332.725-.148 1.463-.283 2.213-.404zm.858-.129-.045.003.045-.006z"/><path d="m29.348 31.946c-1.355-1.49-3.015-2.113-3.015-2.113l.667-6.166.333 4.666s0 .667.667.667.667-1 .667-1l.666-7 .667 6.667s0 .666.667.666c.666 0 .666-1 .666-1l.667-8 .667 8s0 1 .666 1c.667 0 .667-.666.667-.666l.667-6.667.666 7s0 1 .667 1 .667-.667.667-.667l.333-4.666.667 6.166s-1.553.777-2.881 2.107c-.92.04-1.848.06-2.786.06-.894 0-1.779-.018-2.652-.054zm-17.126-3.371c.111-.272.111-.575.111-.575l.667-7 .667 6.667s0 .666.666.666c.667 0 .667-1 .667-1l.667-8 .666 8s0 1 .667 1 .667-.666.667-.666l.666-6.667.667 7s0 1 .667 1c.666 0 .666-.667.666-.667l.334-4.666.666 6.166s-.684.342-1.532.961c-2.738-.565-5.285-1.315-7.579-2.219zm32.117 2.19c-.912-.646-1.672-.932-1.672-.932l.666-6.166.334 4.666s0 .667.666.667c.667 0 .667-1 .667-1l.667-7 .666 6.667s0 .666.667.666.667-1 .667-1l.666-8 .667 8s0 1 .667 1c.666 0 .666-.666.666-.666l.667-6.667.667 7s0 .303.111.575c-2.255.888-4.755 1.628-7.439 2.19zm-33.359-2.705c-.254-.111-.505-.224-.752-.338l.439-4.055zm42.792-.338c-.248.115-.499.228-.753.338l.314-4.393zm-49.394-3.644-.039-.033-.031-.027.025-.351zm55.314-.06-.031.027-.039.033.045-.411zm-37.525-6.018c-1.334-2.5-4-3.5-4-3.5l.666-6.167.334 4.667s0 .667.666.667c.667 0 .667-1 .667-1l.667-7 .666 6.666s0 .667.667.667.667-1 .667-1l.666-8 .667 8s0 1 .667 1c.666 0 .666-.667.666-.667l.667-6.666.667 7s0 1 .666 1c.667 0 .667-.667.667-.667l.333-4.667.667 6.167s-2.667 1.333-4 3.5-1.667 6-1.667 6-.166-3.5-1.666-6zm-14.531-12.369.531 6.369s0 1 .666 1c.667 0 .667-.667.667-.667l.667-6.666.666 7s0 1 .667 1 .667-.667.667-.667l.333-4.667.667 6.167s-2.667 1.333-4 3.5c-1.334 2.167-1.667 6-1.667 6s-.167-3.5-1.667-6c-1.333-2.5-4-3.5-4-3.5l.485-4.486c.09-.111.183-.222.278-.333l.237 3.319s0 .667.667.667.667-1 .667-1l.472-4.964c.121-.099.244-.198.368-.295l.493 4.925s0 .667.667.667c.666 0 .666-1 .666-1l.517-6.198.084-.051c.041-.024.082-.049.123-.073zm30.864 12.369c-1.333-2.5-4-3.5-4-3.5l.667-6.167.333 4.667s0 .667.667.667c.666 0 .666-1 .666-1l.667-7 .667 6.666s0 .667.666.667c.667 0 .667-1 .667-1l.667-8 .666 8s0 1 .667 1 .667-.667.667-.667l.666-6.666.667 7s0 1 .667 1c.666 0 .666-.667.666-.667l.334-4.667.666 6.167s-2.666 1.333-4 3.5c-1.333 2.167-1.666 6-1.666 6s-.167-3.5-1.667-6zm17.943-12.322c.041.024.082.049.123.073l.084.051.517 6.198s0 1 .666 1c.667 0 .667-.667.667-.667l.493-4.925c.124.097.247.196.368.295l.472 4.964s0 1 .667 1 .667-.667.667-.667l.237-3.319c.095.11.187.221.278.333l.485 4.486s-2.667 1.333-4 3.5c-1.334 2.167-1.667 6-1.667 6s-.167-3.5-1.667-6c-1.333-2.5-4-3.5-4-3.5l.667-6.167.333 4.667s0 .667.667.667.667-1 .667-1l.666-7 .667 6.666s0 .667.667.667c.666 0 .666-1 .666-1l.531-6.369zm-54.38 15.981-.052-.068-.062-.084.051-.507zm59.988-.152-.062.084-.052.068.063-.659zm-43.881-19.937c-.307.336-.594.702-.837 1.097-1.333 2.166-1.666 6-1.666 6s-.163-3.419-1.615-5.912c1.307-.444 2.682-.84 4.118-1.185zm9.868-1.448c1.297-.081 2.62-.122 3.962-.122 1.399 0 2.777.045 4.128.132-.825.603-1.805 1.468-2.461 2.535-1.334 2.166-1.667 6-1.667 6s-.167-3.5-1.667-6c-.612-1.149-1.507-1.981-2.295-2.545zm17.919 1.478c1.389.338 2.722.724 3.99 1.155-1.289 2.18-1.614 5.912-1.614 5.912s-.166-3.5-1.666-6c-.209-.392-.451-.747-.71-1.067z"/></g></svg>