<svg clip-rule="evenodd" fill-rule="evenodd" stroke-linejoin="round" stroke-miterlimit="2" viewBox="0 0 64 31" xmlns="http://www.w3.org/2000/svg" xmlns:xlink="http://www.w3.org/1999/xlink"><linearGradient id="stampa" gradientUnits="userSpaceOnUse" x1="0" x2="1" y1="0" y2="0"><stop offset="0" stop-color="#a9d7aa"/><stop offset=".23" stop-color="#a9d7aa"/><stop offset=".67" stop-color="#f7ef74"/><stop offset="1" stop-color="#fecf8d"/></linearGradient><linearGradient id="stampb" gradientTransform="matrix(8 0 0 30 5 15)" gradientUnits="userSpaceOnUse" x1="0" x2="1" y1="0" y2="0"><stop offset="0" stop-color="#fff" stop-opacity="0"/><stop offset=".4" stop-color="#fff" stop-opacity=".5"/><stop offset=".6" stop-color="#fff" stop-opacity=".5"/><stop offset=".75" stop-color="#fff" stop-opacity="0"/></linearGradient><clipPath id="stampc"><path clip-rule="evenodd" d="m308.531 713.478c-8.132.052-24.078 3.613-24.097 11.411.023 8.104 15.73 11.794 23.959 11.862 7.394.064 24.048-3.157 24.071-11.99-.023-6.923-16.438-11.283-23.813-11.283z"/></clipPath><g transform="matrix(1.33333 0 0 1.33333 -379.241 -951.271)"><path d="m.502-.248c-.169.002-.501.077-.501.243.001.171.327.25.498.251.153.002.5-.067.5-.254-.001-.147-.342-.24-.495-.24z" fill="url(#stampa)" fill-rule="nonzero" transform="matrix(48.1326 0 0 47.1423 284.383 725.146)"/><g clip-path="url(#stampc)"><g fill-rule="nonzero"><path d="m0 .264s-2.069-.49-3.493-2.99c-1.414-2.48-1.867-7.123-1.867-7.123s-.566 4.671-2.028 7.28c-1.386 2.478-3.342 2.833-3.342 2.833-.044 5.429 1.258 9.815 5.307 9.83 4.373.019 5.382-4.303 5.423-9.83" fill="#58595b" transform="matrix(.994383 0 0 -.973925 289.508 736.529)"/><path d="m0 17.061c3.408 0 4.911-2.741 5.002-9.151-.664-.243-2.261-1.013-3.44-3.084-.77-1.352-1.26-3.289-1.549-4.826-.327 1.562-.862 3.555-1.66 4.983-1.138 2.031-2.641 2.725-3.295 2.939.006 3.851.733 6.618 2.11 8.01.745.755 1.663 1.126 2.807 1.129" fill="#c7c8ca" transform="matrix(.994383 0 0 -.973925 284.141 743.696)"/><path d="m0 8.095c0-.129.013-.352.038-.673.025-.317.063-.66.113-1.028.047-.371.107-.726.179-1.069.069-.342.154-.594.252-.754.1.041.201.075.298.113.101.035.205.066.315.094.097.28.185.648.261 1.101.075.452.141.927.194 1.424.054.496.095.984.12 1.455.025.475.047.874.066 1.204h.06c.009-.279.025-.635.047-1.068.019-.434.047-.881.082-1.343.034-.465.084-.918.147-1.361.066-.44.148-.817.249-1.126.119.019.239.035.355.044.122.01.245.019.374.029.082.298.151.71.211 1.232.059.525.11 1.082.157 1.676.044.591.078 1.185.104 1.782.025.597.04 1.119.053 1.569h.057c.012-.45.028-.972.053-1.569s.06-1.191.104-1.782c.047-.594.097-1.151.157-1.676.06-.522.129-.934.211-1.232.128-.01.254-.019.374-.029.116-.009.239-.025.358-.044.098.309.179.686.245 1.126.066.443.113.896.151 1.361.035.462.06.909.082 1.343.019.433.035.789.044 1.068h.06c.009-.33.031-.732.066-1.21.034-.478.078-.965.129-1.456.047-.493.11-.965.185-1.417.076-.453.16-.821.261-1.101l.613-.207c.097.17.186.424.261.77.075.343.135.695.179 1.06.044.361.079.704.104 1.021.025.321.038.544.038.673h.059c.01-.101.022-.267.038-.5.016-.236.035-.503.06-.808.025-.302.05-.619.075-.946.025-.33.044-.635.06-.918.013-.283.028-.528.044-.726s.022-.318.022-.359c-.506-.188-1.003-.487-1.487-.896-.481-.408-.912-.918-1.289-1.524-.38-.607-.682-1.305-.912-2.097-.229-.792-.345-1.666-.345-2.622h-.057c0 .956-.116 1.83-.346 2.622-.229.792-.531 1.49-.908 2.097-.381.606-.811 1.116-1.292 1.524-.485.409-.978.708-1.487.896 0 .041.006.158.022.352.015.192.031.434.044.717.015.283.037.591.059.924.026.334.051.654.076.956.025.305.044.572.06.808.015.233.028.399.037.5z" fill="#6d6e71" transform="matrix(.994383 0 0 -.973925 280.517 739.06)"/><path d="m0 .264s-2.069-.49-3.493-2.99c-1.414-2.48-1.867-7.123-1.867-7.123s-.566 4.671-2.028 7.28c-1.389 2.478-3.342 2.833-3.342 2.833-.044 5.429 1.258 9.815 5.307 9.83 4.373.019 5.382-4.303 5.423-9.83" fill="#58595b" transform="matrix(.994383 0 0 -.973925 301.583 736.529)"/><path d="m0 17.061c3.405 0 4.911-2.741 5.002-9.151-.664-.243-2.261-1.013-3.44-3.084-.77-1.352-1.26-3.289-1.553-4.826-.323 1.562-.858 3.555-1.656 4.983-1.138 2.031-2.641 2.725-3.295 2.939.006 3.851.733 6.618 2.109 8.01.746.755 1.664 1.126 2.808 1.129" fill="#c7c8ca" transform="matrix(.994383 0 0 -.973925 296.216 743.696)"/><path d="m0 8.095c0-.129.013-.352.038-.673.025-.317.059-.66.113-1.028.047-.371.107-.726.176-1.069.069-.342.154-.594.255-.754.1.041.198.075.298.113.101.035.205.066.315.094.097.28.185.648.261 1.101.075.452.138.927.194 1.424.054.496.095.984.12 1.455.025.475.047.874.066 1.204h.06c.009-.279.025-.635.044-1.068.022-.434.047-.881.081-1.343.038-.465.088-.918.151-1.361.066-.44.148-.817.249-1.126.116.019.235.035.355.044.119.01.245.019.374.029.079.298.151.71.211 1.232.059.525.11 1.082.157 1.676.044.591.078 1.185.104 1.782.025.597.04 1.119.05 1.569h.06c.009-.45.028-.972.053-1.569s.06-1.191.104-1.782c.044-.594.097-1.151.157-1.676.06-.522.129-.934.211-1.232.129-.01.251-.019.371-.029.119-.009.239-.025.358-.044.101.309.182.686.248 1.126.066.443.114.896.148 1.361.035.462.063.909.082 1.343.022.433.034.789.047 1.068h.06c.009-.33.031-.732.066-1.21.034-.478.078-.965.125-1.456.051-.493.114-.965.189-1.417.076-.453.16-.821.261-1.101l.613-.207c.098.17.186.424.261.77.072.343.135.695.179 1.06.044.361.079.704.104 1.021.025.321.038.544.038.673h.059c.01-.101.022-.267.038-.5.013-.236.035-.503.06-.808.025-.302.05-.619.072-.946.028-.33.047-.635.063-.918.013-.283.028-.528.044-.726s.022-.318.022-.359c-.509-.188-1.003-.487-1.487-.896-.481-.408-.912-.918-1.292-1.524-.377-.607-.682-1.305-.909-2.097-.229-.792-.345-1.666-.345-2.622h-.06c0 .956-.113 1.83-.343 2.622-.229.792-.531 1.49-.908 2.097-.381.606-.811 1.116-1.292 1.524-.485.409-.978.708-1.487.896 0 .041.006.158.022.352.015.192.028.434.044.717.015.283.034.591.059.924.026.334.051.654.076.956.025.305.044.572.06.808.015.233.028.399.037.5z" fill="#6d6e71" transform="matrix(.994383 0 0 -.973925 292.592 739.06)"/><path d="m0 .264s-2.069-.49-3.493-2.99c-1.414-2.48-1.867-7.123-1.867-7.123s-.566 4.671-2.028 7.28c-1.389 2.478-3.342 2.833-3.342 2.833-.044 5.429 1.258 9.815 5.307 9.83 4.373.019 5.382-4.303 5.423-9.83" fill="#58595b" transform="matrix(.994383 0 0 -.973925 313.658 736.529)"/><path d="m0 17.061c3.405 0 4.91-2.741 5.002-9.151-.664-.243-2.261-1.013-3.44-3.084-.77-1.352-1.26-3.289-1.553-4.826-.323 1.562-.858 3.555-1.656 4.983-1.138 2.031-2.641 2.725-3.295 2.939.006 3.851.732 6.618 2.109 8.01.746.755 1.664 1.126 2.808 1.129" fill="#bcbec0" transform="matrix(.994383 0 0 -.973925 308.291 743.696)"/><path d="m0 8.095c0-.129.013-.352.038-.673.025-.317.059-.66.113-1.028.047-.371.107-.726.176-1.069.069-.342.157-.594.255-.754.1.041.201.075.298.113.101.035.205.066.315.094.097.28.185.648.261 1.101.075.452.138.927.194 1.424.054.496.095.984.12 1.455.025.475.047.874.066 1.204h.06c.009-.279.025-.635.044-1.068.022-.434.047-.881.081-1.343.038-.465.088-.918.151-1.361.066-.44.148-.817.249-1.126.116.019.239.035.355.044.119.01.245.019.374.029.079.298.151.71.211 1.232.059.525.11 1.082.157 1.676.044.591.078 1.185.104 1.782.025.597.04 1.119.053 1.569h.057c.009-.45.028-.972.053-1.569s.06-1.191.104-1.782c.044-.594.097-1.151.157-1.676.06-.522.129-.934.211-1.232.129-.01.251-.019.374-.029.116-.009.236-.025.358-.044.098.309.179.686.245 1.126.066.443.114.896.148 1.361.035.462.063.909.082 1.343.022.433.034.789.047 1.068h.06c.009-.33.031-.732.066-1.21.034-.478.078-.965.125-1.456.051-.493.114-.965.189-1.417.076-.453.16-.821.261-1.101l.613-.207c.098.17.186.424.261.77.072.343.135.695.179 1.06.044.361.079.704.104 1.021.025.321.038.544.038.673h.059c.01-.101.022-.267.038-.5.013-.236.035-.503.06-.808.022-.302.05-.619.075-.946.025-.33.044-.635.06-.918.013-.283.028-.528.044-.726s.022-.318.022-.359c-.506-.188-1.003-.487-1.487-.896-.481-.408-.912-.918-1.289-1.524-.38-.607-.685-1.305-.912-2.097-.229-.792-.345-1.666-.345-2.622h-.057c0 .956-.116 1.83-.346 2.622-.229.792-.531 1.49-.908 2.097-.381.606-.811 1.116-1.292 1.524-.485.409-.978.708-1.487.896 0 .041.006.158.022.352.015.192.028.434.044.717.015.283.037.591.059.924.026.334.051.654.076.956.025.305.044.572.06.808.015.233.028.399.037.5z" fill="#6d6e71" transform="matrix(.994383 0 0 -.973925 304.667 739.06)"/><path d="m0 .264s-2.069-.49-3.493-2.99c-1.414-2.48-1.867-7.123-1.867-7.123s-.566 4.671-2.028 7.28c-1.389 2.478-3.342 2.833-3.342 2.833-.044 5.429 1.258 9.815 5.307 9.83 4.373.019 5.382-4.303 5.423-9.83" fill="#58595b" transform="matrix(.994383 0 0 -.973925 325.733 736.529)"/><path d="m0 17.061c3.405 0 4.907-2.741 5.002-9.151-.664-.243-2.261-1.013-3.44-3.084-.77-1.352-1.26-3.289-1.553-4.826-.323 1.562-.858 3.555-1.656 4.983-1.138 2.031-2.641 2.725-3.295 2.939.006 3.851.733 6.618 2.11 8.01.745.755 1.663 1.126 2.807 1.129" fill="#a7a9ac" transform="matrix(.994383 0 0 -.973925 320.366 743.696)"/><path d="m0 8.095c0-.129.013-.352.038-.673.025-.317.063-.66.11-1.028.05-.371.11-.726.182-1.069.069-.342.151-.594.252-.754.1.041.201.075.298.113.101.035.205.066.315.094.097.28.185.648.261 1.101.075.452.138.927.194 1.424.054.496.095.984.12 1.455.025.475.047.874.066 1.204h.06c.009-.279.025-.635.044-1.068.022-.434.047-.881.085-1.343.034-.465.084-.918.147-1.361.066-.44.148-.817.249-1.126.116.019.235.035.355.044.123.01.245.019.374.029.079.298.148.71.211 1.232.059.525.11 1.082.157 1.676.044.591.078 1.185.104 1.782.025.597.04 1.119.053 1.569h.057c.012-.45.028-.972.053-1.569s.06-1.191.104-1.782c.047-.594.097-1.151.157-1.676.06-.522.129-.934.211-1.232.129-.01.251-.019.374-.029.116-.009.236-.025.358-.044.098.309.179.686.245 1.126.066.443.114.896.151 1.361.032.462.06.909.079 1.343.022.433.038.789.047 1.068h.057c.012-.33.034-.732.069-1.21.034-.478.078-.965.129-1.456.047-.493.11-.965.185-1.417.076-.453.16-.821.261-1.101l.613-.207c.098.17.186.424.261.77.072.343.135.695.179 1.06.044.361.079.704.104 1.021.025.321.038.544.038.673h.059c.01-.101.022-.267.038-.5.016-.236.035-.503.06-.808.022-.302.05-.619.075-.946.025-.33.044-.635.06-.918.013-.283.028-.528.044-.726s.022-.318.022-.359c-.506-.188-1.003-.487-1.487-.896-.481-.408-.912-.918-1.289-1.524-.38-.607-.682-1.305-.912-2.097-.229-.792-.345-1.666-.345-2.622h-.057c0 .956-.116 1.83-.346 2.622-.229.792-.531 1.49-.908 2.097-.381.606-.811 1.116-1.292 1.524-.485.409-.981.708-1.487.896 0 .041.006.158.022.352.015.192.028.434.044.717.015.283.037.591.059.924.026.334.051.654.076.956.025.305.044.572.06.808.015.233.028.399.037.5z" fill="#6d6e71" transform="matrix(.994383 0 0 -.973925 316.743 739.06)"/><path d="m0 .264s-2.069-.49-3.493-2.99c-1.414-2.48-1.87-7.123-1.87-7.123s-.563 4.671-2.025 7.28c-1.389 2.478-3.342 2.833-3.342 2.833-.044 5.429 1.258 9.815 5.307 9.83 4.373.019 5.382-4.303 5.423-9.83" fill="#58595b" transform="matrix(.994383 0 0 -.973925 337.809 736.529)"/><path d="m0 17.061c3.408 0 4.911-2.741 5.002-9.151-.664-.243-2.261-1.013-3.44-3.084-.77-1.352-1.26-3.289-1.549-4.826-.327 1.562-.862 3.555-1.66 4.983-1.138 2.031-2.641 2.725-3.295 2.939.006 3.851.733 6.618 2.11 8.01.745.755 1.663 1.126 2.807 1.129" fill="#a7a9ac" transform="matrix(.994383 0 0 -.973925 332.442 743.696)"/><path d="m0 8.095c0-.129.013-.352.038-.673.025-.317.059-.66.11-1.028.05-.371.11-.726.182-1.069.066-.342.151-.594.252-.754.1.041.201.075.298.113.101.035.205.066.315.094.097.28.185.648.261 1.101.075.452.138.927.194 1.424.054.496.095.984.117 1.455.025.475.05.874.069 1.204h.06c.009-.279.025-.635.044-1.068.022-.434.047-.881.085-1.343.031-.465.084-.918.147-1.361.066-.44.148-.817.249-1.126.116.019.235.035.355.044.123.01.245.019.374.029.079.298.148.71.208 1.232.062.525.113 1.082.16 1.676.044.591.078 1.185.104 1.782.025.597.04 1.119.053 1.569h.057c.012-.45.028-.972.053-1.569s.06-1.191.104-1.782c.044-.594.097-1.151.157-1.676.06-.522.129-.934.211-1.232.129-.01.251-.019.374-.029.116-.009.236-.025.358-.044.098.309.179.686.245 1.126.066.443.114.896.151 1.361.032.462.06.909.079 1.343.022.433.034.789.047 1.068h.057c.012-.33.034-.732.069-1.21.034-.478.078-.965.125-1.456.051-.493.114-.965.189-1.417.076-.453.16-.821.261-1.101l.613-.207c.098.17.186.424.261.77.072.343.132.695.179 1.06.044.361.079.704.104 1.021.025.321.038.544.038.673h.059c.01-.101.022-.267.038-.5.013-.236.035-.503.06-.808.022-.302.047-.619.075-.946.025-.33.044-.635.06-.918.013-.283.028-.528.044-.726s.022-.318.022-.359c-.506-.188-1.003-.487-1.487-.896-.481-.408-.915-.918-1.289-1.524-.38-.607-.685-1.305-.912-2.097-.229-.792-.345-1.666-.345-2.622h-.057c0 .956-.116 1.83-.346 2.622-.229.792-.531 1.49-.908 2.097-.381.606-.811 1.116-1.292 1.524-.488.409-.981.708-1.487.896 0 .041.006.158.022.352.015.192.028.434.044.717.015.283.037.591.059.924.026.334.051.654.076.956.025.305.044.572.06.808.015.233.028.399.037.5z" fill="#6d6e71" transform="matrix(.994383 0 0 -.973925 328.818 739.06)"/><path d="m0 .264s-2.069-.49-3.493-2.993c-1.414-2.48-1.867-7.12-1.867-7.12s-.566 4.671-2.028 7.28c-1.386 2.478-3.342 2.833-3.342 2.833-.044 5.429 1.258 9.815 5.307 9.83 4.373.019 5.382-4.306 5.423-9.83" fill="#58595b" transform="matrix(.994383 0 0 -.973925 295.563 725.26)"/><path d="m0 17.058c3.408 0 4.911-2.741 5.002-9.151-.664-.246-2.261-1.016-3.44-3.084-.77-1.352-1.26-3.289-1.549-4.823-.327 1.559-.862 3.552-1.66 4.98-1.138 2.031-2.641 2.722-3.295 2.939.006 3.851.733 6.618 2.11 8.01.745.755 1.663 1.123 2.807 1.129" fill="#b1b4b6" transform="matrix(.994383 0 0 -.973925 290.197 732.424)"/><path d="m0 8.095c0-.129.013-.355.038-.673.025-.317.063-.66.113-1.031.047-.368.107-.723.179-1.066.069-.342.154-.597.252-.754.1.038.201.075.298.11.101.038.205.069.315.097.097.28.185.645.261 1.098.075.455.141.93.194 1.427.054.496.095.984.12 1.455.025.475.047.874.066 1.204h.06c.009-.279.025-.635.047-1.068.019-.434.047-.881.082-1.343.034-.465.084-.918.147-1.358.066-.446.148-.82.249-1.129.119.019.239.035.355.044.123.01.245.019.374.029.082.298.151.71.211 1.232.059.522.11 1.082.157 1.673.044.594.078 1.188.104 1.785.025.598.04 1.119.053 1.569h.057c.012-.45.028-.971.053-1.569.025-.597.06-1.191.104-1.785.047-.591.097-1.151.157-1.673s.129-.934.211-1.232c.128-.01.254-.019.374-.029.119-.009.239-.025.358-.044.098.309.179.683.245 1.129.066.44.114.893.151 1.358.035.462.06.909.082 1.343.019.433.035.789.044 1.068h.06c.009-.33.031-.732.066-1.21.034-.478.078-.965.129-1.456.047-.493.11-.965.185-1.42.076-.453.16-.818.261-1.098l.613-.207c.098.17.186.424.261.77.075.343.135.695.179 1.06.044.361.079.704.104 1.021.025.318.038.544.038.673h.059c.01-.101.022-.267.038-.5.016-.236.035-.503.06-.808.025-.302.05-.619.075-.946.025-.33.044-.635.06-.921.013-.283.028-.522.044-.723.016-.198.022-.318.022-.359-.506-.188-1.003-.487-1.487-.896-.481-.408-.912-.918-1.289-1.524-.38-.607-.682-1.305-.912-2.097-.229-.792-.345-1.666-.345-2.622h-.057c0 .956-.116 1.83-.346 2.622-.229.792-.531 1.49-.908 2.097-.381.606-.811 1.116-1.292 1.524-.485.409-.978.708-1.487.896 0 .041.006.158.022.352.015.192.031.434.044.717.015.283.037.591.062.924.023.334.048.654.073.956.025.305.044.572.06.808.015.233.028.399.037.5z" fill="#6d6e71" transform="matrix(.994383 0 0 -.973925 286.573 727.792)"/><path d="m0 .264s-2.069-.49-3.493-2.993c-1.414-2.48-1.867-7.12-1.867-7.12s-.566 4.671-2.028 7.28c-1.389 2.478-3.342 2.833-3.342 2.833-.044 5.429 1.258 9.815 5.307 9.83 4.373.019 5.379-4.306 5.423-9.83" fill="#58595b" transform="matrix(.994383 0 0 -.973925 307.639 725.26)"/><path d="m0 17.058c3.405 0 4.911-2.741 5.002-9.151-.664-.246-2.261-1.016-3.44-3.084-.77-1.352-1.26-3.289-1.553-4.823-.323 1.559-.858 3.552-1.656 4.98-1.138 2.031-2.641 2.722-3.295 2.939.006 3.851.733 6.618 2.109 8.01.746.755 1.664 1.123 2.808 1.129" fill="#bcbec0" transform="matrix(.994383 0 0 -.973925 302.272 732.424)"/><path d="m0 8.095c0-.129.013-.355.038-.673.025-.317.059-.66.113-1.031.047-.368.107-.723.179-1.066.066-.342.154-.597.252-.754.1.038.201.075.298.11.101.038.205.069.315.097.097.28.185.645.261 1.098.075.455.141.93.194 1.427.054.496.095.984.12 1.455.025.475.047.874.066 1.204h.06c.009-.279.025-.635.047-1.068.019-.434.047-.881.078-1.343.038-.465.088-.918.151-1.358.066-.446.148-.82.249-1.129.116.019.239.035.355.044.119.01.245.019.374.029.079.298.151.71.211 1.232.059.522.11 1.082.157 1.673.044.594.078 1.188.104 1.785.025.598.04 1.119.053 1.569h.057c.012-.45.028-.971.053-1.569.025-.597.06-1.191.104-1.785.044-.591.097-1.151.157-1.673s.129-.934.211-1.232c.128-.01.251-.019.374-.029.116-.009.239-.025.358-.044.098.309.179.683.245 1.129.066.44.113.893.148 1.358.035.462.063.909.085 1.343.019.433.035.789.044 1.068h.06c.009-.33.031-.732.066-1.21.034-.478.078-.965.125-1.456.051-.493.114-.965.189-1.42.076-.453.164-.818.261-1.098l.613-.207c.097.17.186.424.261.77.075.343.135.695.179 1.06.044.361.079.704.104 1.021.025.318.038.544.038.673h.059c.01-.101.022-.267.038-.5.016-.236.035-.503.06-.808.025-.302.05-.619.075-.946.025-.33.044-.635.06-.921.016-.283.028-.522.044-.723.016-.198.022-.318.022-.359-.506-.188-1.003-.487-1.487-.896-.481-.408-.912-.918-1.289-1.524-.38-.607-.682-1.305-.912-2.097-.229-.792-.345-1.666-.345-2.622h-.057c0 .956-.116 1.83-.346 2.622-.229.792-.531 1.49-.908 2.097-.381.606-.811 1.116-1.292 1.524-.485.409-.978.708-1.487.896 0 .041.006.158.022.352.015.192.028.434.044.717.015.283.037.591.059.924.026.334.051.654.076.956.025.305.044.572.06.808.015.233.028.399.037.5z" fill="#6d6e71" transform="matrix(.994383 0 0 -.973925 298.648 727.792)"/><path d="m0 .264s-2.069-.49-3.493-2.993c-1.411-2.48-1.867-7.12-1.867-7.12s-.566 4.671-2.028 7.28c-1.386 2.478-3.332 2.833-3.332 2.833-.044 5.429 1.248 9.815 5.297 9.83 4.373.019 5.382-4.306 5.423-9.83" fill="#58595b" transform="matrix(.994383 0 0 -.973925 319.706 725.26)"/><path d="m0 17.058c3.405 0 4.907-2.741 4.999-9.151-.661-.246-2.258-1.016-3.437-3.084-.77-1.352-1.26-3.289-1.553-4.823-.323 1.559-.858 3.552-1.659 4.98-1.135 2.031-2.638 2.722-3.286 2.939.007 3.851.726 6.618 2.103 8.01.746.755 1.664 1.123 2.808 1.129" fill="#bcbec0" transform="matrix(.994383 0 0 -.973925 314.34 732.424)"/><path d="m0 8.095c0-.129.013-.355.038-.673.025-.317.063-.66.113-1.031.05-.368.11-.723.179-1.066.069-.342.154-.597.255-.754.097.038.198.075.295.11.101.038.205.069.315.097.097.28.185.645.264 1.098.072.455.138.93.191 1.427.054.496.095.984.12 1.455.025.475.047.874.069 1.204h.06c.009-.279.022-.635.044-1.068.019-.434.047-.881.082-1.343.034-.465.084-.918.147-1.358.066-.446.148-.82.249-1.129.119.019.239.035.358.044.12.01.245.019.374.029.079.298.148.71.208 1.232.059.522.113 1.082.157 1.673.044.594.078 1.188.104 1.785.025.598.04 1.119.053 1.569h.057c.012-.45.028-.971.053-1.569.025-.597.06-1.191.104-1.785.047-.591.1-1.151.16-1.673s.129-.934.208-1.232c.129-.01.254-.019.374-.029.119-.009.236-.025.358-.044.098.309.179.683.245 1.129.066.44.114.893.151 1.358.035.462.06.909.082 1.343.019.433.031.789.044 1.068h.06c.009-.33.031-.732.066-1.21.034-.478.078-.965.125-1.456.051-.493.114-.965.189-1.42.076-.453.16-.818.261-1.098l.613-.207c.101.17.186.424.261.77.075.343.135.695.179 1.06.044.361.082.704.104 1.021.025.318.038.544.038.673h.059c.01-.101.022-.267.038-.5.016-.236.035-.503.06-.808.022-.302.05-.619.075-.946.025-.33.044-.635.06-.921.016-.283.028-.522.044-.723.016-.198.022-.318.022-.359-.506-.188-1.003-.487-1.487-.896-.481-.408-.912-.918-1.289-1.524-.38-.607-.682-1.305-.912-2.097-.229-.792-.345-1.666-.345-2.622h-.057c0 .956-.116 1.83-.343 2.622-.232.792-.534 1.49-.911 2.097-.378.606-.811 1.116-1.292 1.524-.485.409-.978.708-1.487.896 0 .041.009.158.022.352.015.192.031.434.047.717.012.283.034.591.06.924.025.334.05.654.072.956.025.305.044.572.06.808.015.233.028.399.037.5z" fill="#6d6e71" transform="matrix(.994383 0 0 -.973925 310.715 727.792)"/><path d="m0 .264s-2.069-.49-3.493-2.993c-1.414-2.48-1.867-7.12-1.867-7.12s-.566 4.671-2.028 7.28c-1.389 2.478-3.342 2.833-3.342 2.833-.044 5.429 1.258 9.815 5.307 9.83 4.373.019 5.382-4.306 5.423-9.83" fill="#58595b" transform="matrix(.994383 0 0 -.973925 331.781 725.26)"/><path d="m0 17.058c3.408 0 4.91-2.741 5.002-9.151-.664-.246-2.261-1.016-3.44-3.084-.767-1.352-1.26-3.289-1.549-4.823-.327 1.559-.862 3.552-1.66 4.98-1.138 2.031-2.641 2.722-3.295 2.939.006 3.851.732 6.618 2.113 8.01.745.755 1.66 1.123 2.804 1.129" fill="#a7a9ac" transform="matrix(.994383 0 0 -.973925 326.414 732.424)"/><path d="m0 8.095c0-.129.013-.355.038-.673.025-.317.063-.66.11-1.031.05-.368.11-.723.182-1.066.066-.342.151-.597.252-.754.1.038.201.075.298.11.101.038.205.069.315.097.097.28.185.645.261 1.098.075.455.138.93.194 1.427.054.496.095.984.12 1.455.025.475.047.874.066 1.204h.06c.012-.279.025-.635.044-1.068.022-.434.047-.881.081-1.343.038-.465.088-.918.151-1.358.066-.446.148-.82.249-1.129.116.019.235.035.355.044.119.01.245.019.374.029.079.298.151.71.211 1.232.059.522.113 1.082.157 1.673.044.594.078 1.188.104 1.785.025.598.04 1.119.053 1.569h.057c.012-.45.028-.971.053-1.569.025-.597.06-1.191.104-1.785.044-.591.097-1.151.157-1.673s.129-.934.211-1.232c.129-.01.251-.019.374-.029.116-.009.236-.025.358-.044.098.309.179.683.245 1.129.066.44.114.893.148 1.358.035.462.063.909.082 1.343.022.433.034.789.047 1.068h.057c.012-.33.034-.732.069-1.21.034-.478.078-.965.125-1.456.051-.493.114-.965.189-1.42.076-.453.16-.818.261-1.098l.613-.207c.098.17.186.424.261.77.072.343.132.695.179 1.06.044.361.079.704.104 1.021.025.318.038.544.038.673h.059c.01-.101.022-.267.038-.5.013-.236.035-.503.06-.808.022-.302.047-.619.075-.946.025-.33.044-.635.06-.921.013-.283.028-.522.044-.723.016-.198.022-.318.022-.359-.506-.188-1.003-.487-1.487-.896-.481-.408-.915-.918-1.289-1.524-.38-.607-.682-1.305-.912-2.097-.229-.792-.345-1.666-.345-2.622h-.057c0 .956-.116 1.83-.346 2.622-.229.792-.531 1.49-.908 2.097-.381.606-.811 1.116-1.292 1.524-.485.409-.981.708-1.487.896 0 .041.006.158.022.352.015.192.028.434.044.717.015.283.037.591.059.924.026.334.051.654.076.956.025.305.044.572.06.808.015.233.025.399.037.5z" fill="#6d6e71" transform="matrix(.994383 0 0 -.973925 322.79 727.792)"/><path d="m0 .264s-2.069-.49-3.493-2.993c-1.414-2.48-1.867-7.12-1.867-7.12s-.566 4.671-2.028 7.28c-1.389 2.478-3.342 2.833-3.342 2.833-.044 5.429 1.258 9.815 5.307 9.83 4.373.019 5.382-4.306 5.423-9.83" fill="#58595b" transform="matrix(.994383 0 0 -.973925 301.583 714.268)"/><path d="m0 17.061c3.405 0 4.911-2.741 5.002-9.151-.664-.243-2.261-1.013-3.44-3.084-.77-1.352-1.26-3.289-1.553-4.826-.323 1.562-.858 3.555-1.656 4.983-1.138 2.031-2.641 2.725-3.295 2.939.006 3.851.733 6.618 2.109 8.01.746.755 1.664 1.126 2.808 1.129" fill="#939598" transform="matrix(.994383 0 0 -.973925 296.216 721.435)"/><path d="m0 8.095c0-.129.013-.355.038-.673.025-.317.059-.66.113-1.031.047-.368.107-.723.176-1.066.069-.342.154-.594.255-.754.1.038.198.078.298.113.101.035.205.066.315.094.097.28.185.645.261 1.098.075.455.138.93.194 1.427.054.5.095.984.12 1.455.025.475.047.874.066 1.204h.06c.009-.279.025-.635.044-1.068.022-.434.047-.881.081-1.343.038-.465.088-.918.151-1.358.066-.443.148-.82.249-1.129.116.019.235.035.355.044.119.01.245.019.374.032.079.295.151.707.211 1.229.059.525.11 1.082.157 1.676.044.591.078 1.185.104 1.782.025.598.04 1.119.05 1.569h.06c.009-.45.028-.971.053-1.569.025-.597.06-1.191.104-1.782.044-.594.097-1.151.157-1.676.06-.522.129-.934.211-1.229.129-.013.251-.022.371-.032.119-.009.239-.025.358-.044.101.309.182.686.248 1.129.066.44.114.893.148 1.358.035.462.063.909.082 1.343.022.433.034.789.047 1.068h.06c.009-.33.031-.732.066-1.21.034-.478.078-.965.125-1.456.051-.493.114-.965.189-1.42.076-.453.16-.818.261-1.098l.613-.207c.098.17.186.424.261.77.072.343.135.695.179 1.06.044.364.079.704.104 1.021.025.318.038.544.038.673h.059c.01-.101.022-.267.038-.5.013-.236.035-.503.06-.808.025-.302.05-.619.072-.946.028-.33.047-.635.063-.918.013-.286.028-.525.044-.726.016-.198.022-.318.022-.359-.509-.188-1.003-.487-1.487-.896-.481-.408-.912-.918-1.292-1.524-.377-.607-.682-1.305-.909-2.097-.229-.792-.345-1.666-.345-2.622h-.06c0 .956-.113 1.83-.343 2.622-.229.792-.531 1.49-.908 2.097-.381.606-.811 1.116-1.292 1.524-.485.409-.978.708-1.487.896 0 .041.006.158.022.352.015.195.028.434.044.717.015.283.034.591.059.928.026.33.051.65.076.952.025.305.044.572.06.808.015.233.028.399.037.5z" fill="#6d6e71" transform="matrix(.994383 0 0 -.973925 292.592 716.799)"/><path d="m0 .264s-2.069-.49-3.493-2.993c-1.414-2.48-1.867-7.12-1.867-7.12s-.566 4.671-2.028 7.28c-1.389 2.478-3.342 2.833-3.342 2.833-.044 5.429 1.258 9.815 5.307 9.83 4.373.019 5.382-4.306 5.423-9.83" fill="#58595b" transform="matrix(.994383 0 0 -.973925 313.658 714.268)"/><path d="m0 17.061c3.405 0 4.91-2.741 5.002-9.151-.664-.243-2.261-1.013-3.44-3.084-.77-1.352-1.26-3.289-1.553-4.826-.323 1.562-.858 3.555-1.656 4.983-1.138 2.031-2.641 2.725-3.295 2.939.006 3.851.732 6.618 2.109 8.01.746.755 1.664 1.126 2.808 1.129" fill="#939598" transform="matrix(.994383 0 0 -.973925 308.291 721.435)"/><path d="m0 8.095c0-.129.013-.355.038-.673.025-.317.059-.66.113-1.031.047-.368.107-.723.176-1.066.069-.342.157-.594.255-.754.1.038.201.078.298.113.101.035.205.066.315.094.097.28.185.645.261 1.098.075.455.138.93.194 1.427.054.5.095.984.12 1.455.025.475.047.874.066 1.204h.06c.009-.279.025-.635.044-1.068.022-.434.047-.881.081-1.343.038-.465.088-.918.151-1.358.066-.443.148-.82.249-1.129.116.019.239.035.355.044.119.01.245.019.374.032.079.295.151.707.211 1.229.059.525.11 1.082.157 1.676.044.591.078 1.185.104 1.782.025.598.04 1.119.053 1.569h.057c.009-.45.028-.971.053-1.569.025-.597.06-1.191.104-1.782.044-.594.097-1.151.157-1.676.06-.522.129-.934.211-1.229.129-.013.251-.022.374-.032.116-.009.236-.025.358-.044.098.309.179.686.245 1.129.066.44.114.893.148 1.358.035.462.063.909.082 1.343.022.433.034.789.047 1.068h.06c.009-.33.031-.732.066-1.21.034-.478.078-.965.125-1.456.051-.493.114-.965.189-1.42.076-.453.16-.818.261-1.098l.613-.207c.098.17.186.424.261.77.072.343.135.695.179 1.06.044.364.079.704.104 1.021.025.318.038.544.038.673h.059c.01-.101.022-.267.038-.5.013-.236.035-.503.06-.808.022-.302.05-.619.075-.946.025-.33.044-.635.06-.918.013-.286.028-.525.044-.726.016-.198.022-.318.022-.359-.506-.188-1.003-.487-1.487-.896-.481-.408-.912-.918-1.289-1.524-.38-.607-.685-1.305-.912-2.097-.229-.792-.345-1.666-.345-2.622h-.057c0 .956-.116 1.83-.346 2.622-.229.792-.531 1.49-.908 2.097-.381.606-.811 1.116-1.292 1.524-.485.409-.978.708-1.487.896 0 .041.006.158.022.352.015.195.028.434.044.717.015.283.037.591.059.928.026.33.051.65.076.952.025.305.044.572.06.808.015.233.028.399.037.5z" fill="#6d6e71" transform="matrix(.994383 0 0 -.973925 304.667 716.799)"/><path d="m0 .264s-2.069-.49-3.493-2.993c-1.414-2.48-1.867-7.12-1.867-7.12s-.566 4.671-2.028 7.28c-1.389 2.478-3.342 2.833-3.342 2.833-.044 5.429 1.258 9.815 5.307 9.83 4.373.019 5.382-4.306 5.423-9.83" fill="#58595b" transform="matrix(.994383 0 0 -.973925 325.733 714.268)"/><path d="m0 17.061c3.405 0 4.907-2.741 5.002-9.151-.664-.243-2.261-1.013-3.44-3.084-.77-1.352-1.26-3.289-1.553-4.826-.323 1.562-.858 3.555-1.656 4.983-1.138 2.031-2.641 2.725-3.295 2.939.006 3.851.733 6.618 2.11 8.01.745.755 1.663 1.126 2.807 1.129" fill="#8a8c8e" transform="matrix(.994383 0 0 -.973925 320.366 721.435)"/><path d="m0 8.095c0-.129.013-.355.038-.673.025-.317.063-.66.11-1.031.05-.368.11-.723.182-1.066.069-.342.151-.594.252-.754.1.038.201.078.298.113.101.035.205.066.315.094.097.28.185.645.261 1.098.075.455.138.93.194 1.427.054.5.095.984.12 1.455.025.475.047.874.066 1.204h.06c.009-.279.025-.635.044-1.068.022-.434.047-.881.085-1.343.034-.465.084-.918.147-1.358.066-.443.148-.82.249-1.129.116.019.235.035.355.044.123.01.245.019.374.032.079.295.148.707.211 1.229.059.525.11 1.082.157 1.676.044.591.078 1.185.104 1.782.025.598.04 1.119.053 1.569h.057c.012-.45.028-.971.053-1.569.025-.597.06-1.191.104-1.782.047-.594.097-1.151.157-1.676.06-.522.129-.934.211-1.229.129-.013.251-.022.374-.032.116-.009.236-.025.358-.044.098.309.179.686.245 1.129.066.44.114.893.151 1.358.032.462.06.909.079 1.343.022.433.038.789.047 1.068h.057c.012-.33.034-.732.069-1.21.034-.478.078-.965.129-1.456.047-.493.11-.965.185-1.42.076-.453.16-.818.261-1.098l.613-.207c.098.17.186.424.261.77.072.343.135.695.179 1.06.044.364.079.704.104 1.021.025.318.038.544.038.673h.059c.01-.101.022-.267.038-.5.016-.236.035-.503.06-.808.022-.302.05-.619.075-.946.025-.33.044-.635.06-.918.013-.286.028-.525.044-.726.016-.198.022-.318.022-.359-.506-.188-1.003-.487-1.487-.896-.481-.408-.912-.918-1.289-1.524-.38-.607-.682-1.305-.912-2.097-.229-.792-.345-1.666-.345-2.622h-.057c0 .956-.116 1.83-.346 2.622-.229.792-.531 1.49-.908 2.097-.381.606-.811 1.116-1.292 1.524-.485.409-.981.708-1.487.896 0 .041.006.158.022.352.015.195.028.434.044.717.015.283.037.591.059.928.026.33.051.65.076.952.025.305.044.572.06.808.015.233.028.399.037.5z" fill="#6d6e71" transform="matrix(.994383 0 0 -.973925 316.743 716.799)"/></g><path d="m5 0h8v30h-8z" fill="url(#stampb)" transform="matrix(.649521 .375001 -.600002 1.03923 296.697 706.679)"/><path d="m5 0h8v30h-8z" fill="url(#stampb)" transform="matrix(.649521 .375001 -.600002 1.03923 326.224 706.304)"/></g></g></svg>