<svg clip-rule="evenodd" fill-rule="evenodd" stroke-linejoin="round" stroke-miterlimit="2" viewBox="0 0 744 1039" xmlns="http://www.w3.org/2000/svg"><path d="m744 34c0-18.765-15.235-34-34-34h-676c-18.765 0-34 15.235-34 34v971c0 18.76 15.235 34 34 34h676c18.765 0 34-15.24 34-34zm-30 10c0-7.727-6.273-14-14-14h-656c-7.727 0-14 6.273-14 14v874h20l.341 47h644.659v-47h19z"/><path d="m714 868s.023 19.807-9 35c-6.197 10.435-10 14-10 14v1h19z"/><path d="m714 868s.023 19.807-9 35c-6.197 10.435-11 15-11 15h20z" transform="matrix(-1 0 0 1 744 0)"/></svg>