<svg clip-rule="evenodd" fill-rule="evenodd" stroke-linejoin="round" stroke-miterlimit="2" viewBox="0 0 152 24" xmlns="http://www.w3.org/2000/svg"><g fill="#fff"><g fill-rule="nonzero" stroke="#fff" transform="matrix(.50016 0 0 .50016 60.8325 1.0084)"><path d="m-33.679 10.448c.072 1.152.366 2.556.882 4.212s1.374 3.672 2.574 6.048c1.032 2.04 1.908 3.816 2.628 5.328s1.224 2.76 1.512 3.744c.576-1.152 1.182-2.358 1.818-3.618s1.248-2.502 1.836-3.726 1.14-2.4 1.656-3.528.954-2.136 1.314-3.024c.336-.792.57-1.518.702-2.178s.198-1.23.198-1.71c0-.216-.012-.456-.036-.72s-.06-.54-.108-.828h7.308v1.368c-.96.072-1.668.312-2.124.72s-.684 1.044-.684 1.908c0 .264.012.552.036.864s.06.612.108.9l1.8 13.824c.168 1.248.546 2.13 1.134 2.646s1.458.834 2.61.954v1.368h-10.872v-1.368c1.104 0 1.908-.27 2.412-.81s.756-1.266.756-2.178c0-.48-.156-1.986-.468-4.518s-.72-5.922-1.224-10.17h-.072c-.912 2.736-2.472 6.216-4.68 10.44-1.104 2.112-1.95 3.864-2.538 5.256s-.966 2.508-1.134 3.348h-1.692c-.144-.912-.534-2.118-1.17-3.618s-1.542-3.414-2.718-5.742c-1.2-2.352-2.178-4.362-2.934-6.03s-1.302-3.078-1.638-4.23h-.072l-1.836 12.78c-.072.432-.12.834-.144 1.206s-.036.666-.036.882c0 1.152.252 1.98.756 2.484s1.368.804 2.592.9v1.368h-8.424v-1.368c1.032 0 1.806-.282 2.322-.846s.87-1.506 1.062-2.826l2.052-13.392c.048-.312.084-.624.108-.936s.036-.6.036-.864c0-.96-.21-1.674-.63-2.142s-1.134-.738-2.142-.81v-1.368z"/><path d="m19.853 10.448.396 5.832h-1.224c-.528-.912-1.002-1.65-1.422-2.214s-.852-.996-1.296-1.296-.924-.504-1.44-.612-1.134-.162-1.854-.162h-4.068v18.252c0 1.176.3 2.034.9 2.574s1.596.81 2.988.81v1.368h-11.556v-1.368c1.392 0 2.388-.276 2.988-.828s.9-1.476.9-2.772v-18.036h-4.068c-.744 0-1.38.054-1.908.162s-1.02.318-1.476.63-.888.75-1.296 1.314-.852 1.29-1.332 2.178h-1.224l.36-5.832z"/><path d="m38.969 10.016c.624 0 1.254.024 1.89.072s1.302.132 1.998.252 1.44.288 2.232.504 1.68.48 2.664.792l.504 5.76h-1.476c-.936-1.968-2.094-3.432-3.474-4.392s-3.042-1.44-4.986-1.44c-1.44 0-2.772.282-3.996.846s-2.286 1.338-3.186 2.322-1.602 2.142-2.106 3.474-.756 2.766-.756 4.302c0 1.632.264 3.144.792 4.536s1.26 2.592 2.196 3.6 2.046 1.8 3.33 2.376 2.67.864 4.158.864c1.008 0 1.98-.126 2.916-.378s1.944-.654 3.024-1.206v-5.22c0-.48-.06-.924-.18-1.332s-.324-.762-.612-1.062-.666-.534-1.134-.702-1.062-.252-1.782-.252h-.612v-1.368h11.52v1.368c-1.224.096-2.076.414-2.556.954s-.72 1.386-.72 2.538v6.48c-2.04.6-3.864 1.038-5.472 1.314s-3.168.414-4.68.414c-2.304 0-4.368-.33-6.192-.99s-3.366-1.548-4.626-2.664-2.22-2.418-2.88-3.906-.99-3.06-.99-4.716c0-1.872.408-3.612 1.224-5.22s1.92-2.994 3.312-4.158 3.006-2.082 4.842-2.754 3.774-1.008 5.814-1.008z"/><path d="m58.085 30.968c.624 0 1.152.216 1.584.648s.648.948.648 1.548c0 .624-.222 1.152-.666 1.584s-.966.648-1.566.648-1.116-.216-1.548-.648-.648-.96-.648-1.584.21-1.146.63-1.566.942-.63 1.566-.63z"/><path d="m73.673 29.744c0 1.08.342 1.968 1.026 2.664s1.578 1.044 2.682 1.044h2.304c1.392 0 2.664-.246 3.816-.738s2.136-1.17 2.952-2.034 1.446-1.896 1.89-3.096.666-2.52.666-3.96c0-1.848-.288-3.492-.864-4.932s-1.386-2.658-2.43-3.654-2.28-1.752-3.708-2.268-2.982-.774-4.662-.774h-3.672zm6.372-19.296c1.872 0 3.576.246 5.112.738s2.928 1.29 4.176 2.394c.6.528 1.152 1.098 1.656 1.71s.942 1.284 1.314 2.016.666 1.524.882 2.376.324 1.782.324 2.79c0 1.776-.33 3.426-.99 4.95s-1.596 2.85-2.808 3.978-2.664 2.01-4.356 2.646-3.558.954-5.598.954h-13.896v-1.368c1.536 0 2.592-.276 3.168-.828s.864-1.452.864-2.7v-14.544c0-1.368-.33-2.334-.99-2.898s-1.674-.846-3.042-.846v-1.368z"/><path d="m108.593 23.732c-.144-1.296-.522-2.286-1.134-2.97s-1.434-1.026-2.466-1.026c-1.008 0-1.86.342-2.556 1.026s-1.14 1.674-1.332 2.97zm-2.808-5.328c1.008 0 1.914.192 2.718.576s1.488.888 2.052 1.512 1.002 1.332 1.314 2.124.48 1.596.504 2.412h-11.484v.468c0 1.056.162 2.016.486 2.88s.762 1.602 1.314 2.214 1.212 1.086 1.98 1.422 1.596.504 2.484.504c1.68 0 3.168-.576 4.464-1.728l.756.684c-.768 1.272-1.728 2.244-2.88 2.916s-2.424 1.008-3.816 1.008c-1.056 0-2.04-.204-2.952-.612s-1.704-.978-2.376-1.71-1.2-1.608-1.584-2.628-.576-2.142-.576-3.366.192-2.364.576-3.42.912-1.974 1.584-2.754 1.476-1.392 2.412-1.836 1.944-.666 3.024-.666z"/><path d="m121.697 18.404c1.92 0 3.54.516 4.86 1.548v3.888h-1.116c-.264-1.44-.69-2.484-1.278-3.132s-1.386-.972-2.394-.972c-.84 0-1.5.21-1.98.63s-.72 1.014-.72 1.782c0 .672.306 1.248.918 1.728s1.386.924 2.322 1.332c1.248.552 2.256 1.032 3.024 1.44s1.332.888 1.692 1.44c.216.336.39.708.522 1.116s.198.888.198 1.44c0 1.44-.486 2.592-1.458 3.456s-2.322 1.296-4.05 1.296c-.84 0-1.758-.102-2.754-.306s-1.842-.486-2.538-.846v-4.536h1.188c.192 1.416.606 2.496 1.242 3.24s1.506 1.116 2.61 1.116c.984 0 1.776-.246 2.376-.738s.9-1.098.9-1.818c0-.624-.24-1.146-.72-1.566s-1.332-.894-2.556-1.422c-1.128-.456-2.046-.906-2.754-1.35s-1.272-.894-1.692-1.35-.708-.936-.864-1.44-.234-1.044-.234-1.62.12-1.128.36-1.656.588-.99 1.044-1.386 1.008-.714 1.656-.954 1.38-.36 2.196-.36z"/><path d="m136.457 18.404h.9v12.528c0 .864.198 1.536.594 2.016s.942.732 1.638.756v1.296h-7.848v-1.296c.84-.024 1.482-.276 1.926-.756s.666-1.068.666-1.764v-8.82l-2.736-1.368v-.828zm-.756-8.424c.528 0 .984.186 1.368.558s.576.834.576 1.386c0 .528-.186.984-.558 1.368s-.834.576-1.386.576-1.014-.186-1.386-.558-.558-.834-.558-1.386.192-1.014.576-1.386.84-.558 1.368-.558z"/><path d="m147.041 35.108c-.648.648-1.092 1.14-1.332 1.476s-.36.696-.36 1.08c0 .432.156.798.468 1.098s.714.546 1.206.738 1.038.33 1.638.414 1.176.126 1.728.126c.768 0 1.536-.054 2.304-.162s1.464-.276 2.088-.504 1.128-.516 1.512-.864.576-.75.576-1.206c0-.696-.348-1.188-1.044-1.476s-1.836-.432-3.42-.432c-.912 0-1.65-.006-2.214-.018s-1.032-.036-1.404-.072-.684-.066-.936-.09-.522-.06-.81-.108zm-.072-11.196c0 1.368.318 2.484.954 3.348s1.506 1.296 2.61 1.296c1.032 0 1.806-.36 2.322-1.08s.774-1.692.774-2.916c0-.744-.108-1.398-.324-1.962s-.492-1.044-.828-1.44-.72-.696-1.152-.9-.864-.306-1.296-.306c-.84 0-1.56.366-2.16 1.098s-.9 1.686-.9 2.862zm3.132-5.508c.744 0 1.398.054 1.962.162s1.14.234 1.728.378 1.224.27 1.908.378 1.506.162 2.466.162c.312 0 .588-.012.828-.036l.72-.072v2.448c-.144.048-.306.072-.486.072h-.594c-.768 0-1.56-.096-2.376-.288.216.552.36 1.008.432 1.368s.108.792.108 1.296c0 .888-.198 1.68-.594 2.376s-.912 1.29-1.548 1.782-1.344.864-2.124 1.116-1.554.378-2.322.378c-.312 0-.642-.018-.99-.054s-.798-.114-1.35-.234c-.456.384-.75.666-.882.846s-.198.366-.198.558c0 .456.288.756.864.9s1.476.216 2.7.216h2.988c1.8 0 3.228.342 4.284 1.026s1.584 1.602 1.584 2.754c0 .864-.24 1.662-.72 2.394s-1.14 1.362-1.98 1.89-1.842.936-3.006 1.224-2.43.432-3.798.432c-1.176 0-2.196-.102-3.06-.306s-1.584-.468-2.16-.792-1.008-.684-1.296-1.08-.432-.774-.432-1.134c0-.504.24-1.05.72-1.638s1.26-1.29 2.34-2.106c-.672-.312-1.182-.63-1.53-.954s-.522-.69-.522-1.098c0-.432.24-.942.72-1.53s1.236-1.302 2.268-2.142c-1.968-1.152-2.952-2.76-2.952-4.824 0-.816.162-1.584.486-2.304s.762-1.344 1.314-1.872 1.212-.942 1.98-1.242 1.608-.45 2.52-.45z"/><path d="m167.597 18.404v3.06h.072c.672-.912 1.53-1.65 2.574-2.214s2.106-.846 3.186-.846c1.728 0 3.042.456 3.942 1.368s1.35 2.28 1.35 4.104v7.056c0 .912.198 1.578.594 1.998s1.05.678 1.962.774v1.296h-8.496v-1.296c1.08 0 1.836-.258 2.268-.774s.648-1.206.648-2.07v-6.228c0-1.104-.282-2.016-.846-2.736s-1.41-1.08-2.538-1.08c-.84 0-1.644.192-2.412.576s-1.536.9-2.304 1.548v7.884c0 .864.204 1.56.612 2.088s1.176.792 2.304.792v1.296h-8.604v-1.296c.96-.048 1.644-.306 2.052-.774s.612-1.098.612-1.89v-8.748l-2.412-1.368v-.828l4.536-1.692z"/></g><path d="m48.581 3h-18.099c-.886 0-1.638.575-1.905 1.371l-17.637 4.726c-1.07.287-1.707 1.389-1.42 2.46l6.725 25.098c.287 1.07 1.389 1.707 2.46 1.42l18.94-5.075h-7.163 19.983l.291-.059-7.607-2.038c-.016-.004-.033-.009-.049-.014l.049.014 19.302 5.172c1.071.287 2.173-.35 2.46-1.42l6.725-25.098c.287-1.071-.349-2.173-1.42-2.46l-19.302-5.172c-.95-.254-1.925.218-2.333 1.075zm-20.107 4.505-14.827 3.973c-.537.144-.856.696-.712 1.232l5.691 21.238c.143.537.696.856 1.232.712l9.048-2.424c-.271-.342-.432-.775-.432-1.245zm1.979 25.495h.029l-.047-.001zm-.07-.002c.015 0 .03.001.045.001zm-.052-.004c.014.001.029.002.043.003zm-.025-.002.016.002-.04-.004zm-.058-.006.024.003-.036-.004zm-.06-.008c.01.002.021.004.032.005zm-.031-.004.007.001zm38.064-22.264c.144-.536-.175-1.088-.711-1.232l-15.443-4.138c-.536-.144-1.089.175-1.232.712l-5.691 21.238c-.144.536.175 1.088.711 1.232l15.443 4.138c.536.144 1.089-.175 1.232-.712zm-25.169 20.164.031.01zm-.048-.016.027.009zm-.047-.017.023.008zm-.046-.018.019.007zm-.045-.019.014.006zm-.044-.02.008.004zm-.043-.02h.001zm4.964-24.764h-15.263c-.555 0-1.006.451-1.006 1.006v21.988c0 .555.451 1.006 1.006 1.006h9.47c-.273-.451-.368-1.008-.221-1.557z" transform="matrix(.501175 0 0 .501175 -3.78552 2.33447)"/></g></svg>