<svg clip-rule="evenodd" fill-rule="evenodd" stroke-linejoin="round" stroke-miterlimit="2" viewBox="0 0 745 1039" xmlns="http://www.w3.org/2000/svg"><path d="m34 1039c-18.765 0-34-15.24-34-34v-971c0-18.765 15.235-34 34-34h676c18.765 0 34 15.235 34 34v971c0 18.76-15.235 34-34 34zm565-69c34.365 0 71.517-16.199 90.684-32.199 17.471-14.585 24.316-39.312 24.316-63.801v-830c0-7.727-6.273-14-14-14h-656c-7.727 0-14 6.273-14 14v830c0 24.489 6.845 49.216 24.316 63.801 19.167 16 56.319 32.199 90.684 32.199z"/></svg>