<svg clip-rule="evenodd" fill-rule="evenodd" stroke-linejoin="round" stroke-miterlimit="2" viewBox="0 0 713 112" xmlns="http://www.w3.org/2000/svg" xmlns:xlink="http://www.w3.org/1999/xlink"><filter id="cga" height="1000%" width="1000%" x="-100%" y="-100%"><feGaussianBlur in="SourceAlpha" stdDeviation="1"/><feOffset dx="0" dy="2" result="offsetblur"/><feFlood/><feComposite in2="offsetblur" operator="in"/><feMerge><feMergeNode/><feMergeNode in="SourceGraphic"/></feMerge></filter><path d="m673.54 34.727-.6-.727h-636.88l-.6.724c-1.609 1.943-9.46 12.188-9.46 29.276s7.851 27.333 9.46 29.276l.6.724h636.88l.599-.721c1.613-1.938 9.503-12.188 9.463-29.284-.04-17.082-7.853-27.322-9.457-29.268zm-1.543 1.273h-635c-1.538 1.857-9 11.665-9 28s7.462 26.143 9 28h635c1.541-1.852 9.038-11.662 9-28-.038-16.334-7.466-26.14-9-28z"/><path d="m646 2h-635c-1.538 1.857-9 11.665-9 28s7.462 26.143 9 28h635c1.541-1.852 9.038-11.662 9-28-.038-16.334-7.466-26.14-9-28z" fill-opacity=".25" transform="translate(26 34)"/><path d="m691.029 108.992c6.278-10.158 1.701 1.052 1.701 1.052l-1.793 2.9-1.656-2.98c-1.999-3.596-3.416-6.241-5.989-7.895-1.914-1.23-4.455-1.895-8.316-2.068h-640.483l-1.186.073-1.1.119-.007-.015c-7.821.931-11.08 5.652-14.575 10.326l-1.659 2.218-1.584-2.272s-6.076-12.215 1.641-1.144c4.014-5.368 7.821-10.671 17.401-11.245l.576-.06h641.003c.014 0 .029 0 .044.001 4.328.19 7.173 1.001 9.326 2.384 2.825 1.816 4.462 4.658 6.656 8.606z" filter="url(#cga)"/><path d="m6.526 75.044-.687-1.997c1.005-.785 2.448-1.692 4.461-2.802.709-1.128.909-2.414-.073-3.61-2.489-3.031-4.162-6.604-5.207-10.638l-.066-.255s.046-5.697.046-5.719v-.022c.261-8.591 7.587-23.558 18.77-36.593l1.202-1.4 1.492 1.085c13.961 10.147 29.911 14.28 38.536 14.907 10.58.77 20.364 1.035 36 1-.97.002.167-.956 0 0 .102-.584.489-1.418 1.094-2.415.907-1.496 2.305-3.359 3.969-5.295 3.831-4.459 9.063-9.329 12.934-10.933l.939-.389.868.529c21.229 12.938 49.427 18.17 59.194 18.503h.003l10.176.144 10.825-.144c16.352-.253 52.787-9.365 78.614-17.558l1.387-.44 4.944 6.921.194.023.104.054h3.508l.477-.12.489-.248c4.018-2.002 25.597-12.095 55.527-13.476 0 0 6.71-.155 6.756-.157 0 0 6.732.156 6.755.157l.023.001c31.342 1.447 53.542 12.461 55.993 13.723l.476.12h2.509l.104-.054.195-.023 4.942-6.92 1.396.458c24.981 8.188 64.269 17.287 80.626 17.539l2.247.077c4.687.129 6.701.443 10.086.356h.003c1.273-.03 2.741-.119 4.629-.296 24.309-2.282 44.78-8.546 61.909-19.424l1.145-.727 1.099.794c5.065 3.659 10.812 10.14 14.13 14.667 1.528 2.086 2.541 3.759 2.734 4.553 15.636.035 25.453-.574 38-1.874 14.337-1.487 26.639-7.647 36.686-13.372l1.334-.76 1.079 1.092c14.022 14.202 18.637 32.154 18.903 36.945l.141 5.877-.046.223c-.735 3.585-1.898 6.548-4.324 9.504-.981 1.195-.781 2.479-.072 3.611 1.451.806 2.661 1.609 3.649 2.399l.127.094c1.673 1.259 2.768 2.46 3.458 3.456.416.601.687 1.133.851 1.574.111.298.174.568.201.79.016.073.025.169.025.289 0 .171-.264.482-.6.808l.575-.49-.135.837-1.974 1.683 1.965-1.628-1.99 1.76 1.972-1.668c-1.556 9.26-4.246 18.809-11.098 29.894l-1.793 2.9-1.656-2.98c-1.999-3.596-3.416-6.241-5.989-7.895-1.914-1.23-4.455-1.895-8.316-2.068h-640.48l-1.186.073-1.1.119-.007-.015c-7.821.931-11.08 5.652-14.575 10.326l-1.659 2.218-1.584-2.272c-7.936-11.386-9.897-20.726-11.374-33.328-.085-.708.002-1.609 1.329-2.896l.08-.078 1.412-1.093.693 1.993-.793.614c-.594.576-.773.905-.735 1.222 1.437 12.259 3.312 21.351 11.029 32.422 4.014-5.368 7.821-10.671 17.401-11.245l.576-.06h641c.014 0 .029 0 .044.001 4.328.19 7.173 1.001 9.326 2.384 2.825 1.816 4.462 4.658 6.656 8.606 6.278-10.158 8.973-18.995 10.536-27.518l.291.344-.29-.349.122-.682c.186.047.314.06.326.061l.001.001-.001-.001-.279-.326v-.001l.279.327-.021-.026c-.04-.049-.132-.162-.256-.31l.119-.694.025-.132.134-.837v-.001c.014-.09-.039-.216-.101-.383-.118-.318-.32-.698-.62-1.131-.6-.866-1.561-1.902-3.016-2.996l-.143-.107c-.965-.775-2.163-1.56-3.612-2.354-.137-.075-.255-.181-.344-.31-1.315-1.913-1.642-4.139.051-6.201 2.203-2.684 3.243-5.381 3.911-8.637l-.135-5.619c-.255-4.597-4.783-21.901-18.327-35.618-10.259 5.845-22.83 12.105-37.47 13.623-12.617 1.308-22.488 1.921-38.211 1.885-.921-.002-1.722-.633-1.939-1.528-.164-.678-1.099-2.063-2.404-3.843-3.215-4.388-8.777-10.68-13.687-14.227-17.374 11.032-38.14 17.412-62.795 19.726h-.001c-1.945.183-3.457.274-4.769.304-3.42.089-5.455-.226-10.197-.356l-2.234-.076c-16.456-.254-56.039-9.392-81.2-17.638l-4.143 5.8c-.282.395-.694.669-1.169.727-.14.072-.296.111-.458.111h-3.001l-.944-.237s-22.619-12.096-55.369-13.608l-6.686-.155-6.686.155c-32.75 1.512-55.371 13.608-55.37 13.608l-.945.237h-4c-.162 0-.318-.039-.458-.111-.475-.058-.887-.332-1.169-.727l-4.153-5.814c-26.012 8.252-62.722 17.397-79.189 17.652l-10.855.144-10.209-.144-.033-.001c-9.865-.327-38.577-5.633-60.172-18.795-3.66 1.517-8.561 6.174-12.183 10.389-1.581 1.84-2.914 3.608-3.776 5.029-.437.72-.76 1.301-.833 1.722-.167.956-.996 1.654-1.966 1.656-15.701.035-25.526-.232-36.15-1.005-8.854-.644-25.235-4.867-39.567-15.285-10.823 12.616-18.036 27.038-18.288 35.351l-.044 5.434c.969 3.741 2.509 7.06 4.817 9.871 1.693 2.062 1.368 4.288.051 6.201-.089.129-.206.235-.343.31-2.003 1.098-3.43 1.98-4.411 2.746z"/><g fill="none" stroke="#000" stroke-width="3"><path d="m686.023 12.994 1.079 1.092c14.022 14.202 18.637 32.154 18.903 36.945l.141 5.877-.046.223c-.735 3.585-1.898 6.548-4.324 9.504-.981 1.195-.781 2.479-.072 3.611 1.451.806 2.661 1.609 3.649 2.399l.127.094c1.673 1.259 2.768 2.46 3.458 3.456.416.601.687 1.133.851 1.574.111.298.174.568.201.79.016.073.025.169.025.289 0 .171-.025.318-.025.318"/><path d="m3.008 77.122c-.085-.708.002-1.609 1.329-2.896l.08-.078 1.412-1.093.01-.008c1.005-.785 2.448-1.692 4.461-2.802.709-1.128.909-2.414-.073-3.61-2.489-3.031-4.162-6.604-5.207-10.638l-.066-.255s.046-5.697.046-5.719v-.022c.261-8.591 7.587-23.558 18.77-36.593l1.202-1.4"/></g></svg>