<?xml version="1.0" encoding="UTF-8" standalone="no"?>
<!DOCTYPE svg PUBLIC "-//W3C//DTD SVG 1.1//EN" "http://www.w3.org/Graphics/SVG/1.1/DTD/svg11.dtd">
<svg width="100%" height="100%" viewBox="0 0 84 80" version="1.1" xmlns="http://www.w3.org/2000/svg" xmlns:xlink="http://www.w3.org/1999/xlink" xml:space="preserve" xmlns:serif="http://www.serif.com/" style="fill-rule:evenodd;clip-rule:evenodd;">
    <g transform="matrix(0.248062,0,0,0.248062,-3.75573,8.90218)">
        <g transform="matrix(0.965926,-0.258819,0.258819,0.965926,-1.0639,45.1211)">
            <path d="M134,29C134,24.585 130.415,21 126,21L27,21C22.585,21 19,24.585 19,29L19,173C19,177.415 22.585,181 27,181L126,181C130.415,181 134,177.415 134,173L134,29Z" style="fill:black;stroke:white;stroke-width:9px;"/>
        </g>
        <g id="path-3" transform="matrix(1,0,0,1,22.4701,21.88)">
            <path d="M198,17C198,12.585 194.415,9 190,9L91,9C86.585,9 83,12.585 83,17L83,161C83,165.415 86.585,169 91,169L190,169C194.415,169 198,165.415 198,161L198,17Z" style="fill:black;stroke:white;stroke-width:9px;"/>
        </g>
        <g transform="matrix(0.965926,0.258819,-0.258819,0.965926,53.5766,-30.3972)">
            <path d="M264,21C264,16.585 260.415,13 256,13L157,13C152.585,13 149,16.585 149,21L149,165C149,169.415 152.585,173 157,173L256,173C260.415,173 264,169.415 264,165L264,21Z" style="fill:black;stroke:white;stroke-width:9px;"/>
        </g>
        <g transform="matrix(1,2.77556e-17,-2.77556e-17,1,-7.57462,-9.57464)">
            <path d="M194.552,34.455C197.283,28.234 204.227,24.761 210.99,26.574L306.617,52.197C314.08,54.196 318.516,61.88 316.516,69.343L279.246,208.436C277.246,215.899 269.563,220.336 262.1,218.336L217.758,206.455L162.651,206.455L80.99,228.336C73.527,230.335 65.843,225.899 63.843,218.436L26.574,79.343C24.574,71.88 29.01,64.196 36.473,62.197L108.156,42.989C110.287,37.975 115.258,34.455 121.045,34.455L194.552,34.455ZM198.988,40.455L199.639,38.026C200.782,33.761 205.172,31.226 209.437,32.369L305.064,57.992C309.328,59.135 311.863,63.526 310.72,67.79L273.451,206.883C272.308,211.148 267.917,213.683 263.653,212.54L218.548,200.455L161.862,200.455L79.437,222.54C75.172,223.683 70.782,221.148 69.639,216.883L32.369,77.79C31.226,73.525 33.761,69.135 38.026,67.992L113.065,47.885C113.357,43.735 116.821,40.455 121.045,40.455L198.988,40.455Z" style="stroke:white;stroke-width:6px;stroke-linejoin:round;stroke-miterlimit:2;"/>
        </g>
    </g>
</svg>
