<svg clip-rule="evenodd" fill-rule="evenodd" stroke-linejoin="round" stroke-miterlimit="2" viewBox="0 0 125 59" xmlns="http://www.w3.org/2000/svg" xmlns:xlink="http://www.w3.org/1999/xlink"><linearGradient id="pta" gradientTransform="matrix(0 61 -61 0 0 0)" gradientUnits="userSpaceOnUse" x1="0" x2="1" y1="0" y2="0"><stop offset="0" stop-color="#f7d7c7"/><stop offset="1" stop-color="#f7d7c7"/></linearGradient><linearGradient id="ptb" gradientTransform="matrix(0 61 -61 0 0 0)" gradientUnits="userSpaceOnUse" x1="0" x2="1" y1="0" y2="0"><stop offset="0" stop-color="#473727"/><stop offset="1" stop-color="#bfaf9f"/></linearGradient><linearGradient id="ptc" gradientTransform="matrix(0 53 -53 0 13 3)" gradientUnits="userSpaceOnUse" x1="0" x2="1" y1="0" y2="0"><stop offset="0" stop-color="#ffefe7"/><stop offset=".5" stop-color="#f7d7c7"/><stop offset=".75" stop-color="#f7d7c7"/><stop offset=".87" stop-color="#9f8777"/><stop offset="1" stop-color="#473727"/></linearGradient><linearGradient id="ptd" gradientTransform="matrix(0 59 -29.7521 0 576 776)" gradientUnits="userSpaceOnUse" x1="0" x2="1" y1="0" y2="0"><stop offset="0" stop-color="#f7d7c7"/><stop offset=".5" stop-color="#7f6f5f"/><stop offset="1" stop-color="#7f6f5f"/></linearGradient><filter id="pte"><feTurbulence baseFrequency=".5" result="xnoise" type="fractalNoise"/><feColorMatrix in="xnoise" operator="in" result="xn2" type="saturate" values="0"/><feComposite in="xn2" in2="SourceAlpha" operator="in" result="myComposite"/></filter><path d="m10 59s-10-12.167-10-28.5 9-30.5 9-30.5h108s8 14.167 8 30.5-9 28.5-9 28.5z" fill="#f7d7c7"/><path d="m111 51s5-7.528 5-20c0-12.5-5-20-5-20h-96l-3-6-3-5h108s8 14.167 8 30.5-9 28.5-9 28.5z" fill="url(#pta)"/><path d="m15 11h96s5 7.5 5 20c0 12.472-5 20-5 20l2 4s8-9.167 8-24-7-26-7-26h-102z" fill="url(#ptb)"/><path d="m15 10h96s5 8.5 5 21c0 12.472-5 19-5 19l3 6s5.997-11.503 6-25c.004-19.168-10-29-10-29h-100z" fill="url(#ptc)" transform="matrix(-1 0 0 -1 126 61)"/><path d="m575.993 834.991c-.303-.372-9.993-12.413-9.993-28.491 0-16.333 9-30.5 9-30.5h2s-8.04 13.5-8 30.5c.03 12.718 6.331 23.225 8.914 27h105.086l-1 1.5h-106z" fill="url(#ptd)" transform="translate(-566 -776)"/><path d="m10 59s-10-12.167-10-28.5 9-30.5 9-30.5h108s8 14.167 8 30.5-9 28.5-9 28.5z" fill="#f7d7c7" fill-opacity=".25" filter="url(#pte)"/></svg>
