<svg clip-rule="evenodd" fill-rule="evenodd" stroke-linejoin="round" stroke-miterlimit="2" viewBox="0 0 60 96" xmlns="http://www.w3.org/2000/svg"><g fill-rule="nonzero"><path d="m411.684 903.844c2 5.288-.787 12.219-6.362 17.794s-12.358 8.362-20.35 8.362c-6.512 0-12.037-1.628-16.576-4.884s-7.77-7.203-9.694-11.84-2.886-9.719-2.886-15.244c0-9.077 3.725-19.388 11.174-30.932s16.255-21.559 26.418-30.044c-.395 1.875-.839 3.848-1.332 5.92s-.74 4.588-.74 7.548c0 4.539 1.159 9.127 3.478 13.764s4.884 8.584 7.696 11.84 5.377 7.129 7.696 11.618 3.478 8.855 3.478 13.098zm-4.216-5.22c0-2.269-.74-5.131-2.22-8.584s-3.207-5.673-5.18-6.66c.197.592.296 1.381.296 2.368s-.148 2.171-.444 3.552c-.493 2.664-1.135 5.18-1.924 7.548s-1.184 3.651-1.184 3.848c0 1.381.493 2.59 1.48 3.626s2.22 1.554 3.7 1.554c3.651 0 5.476-2.417 5.476-7.252z" transform="translate(-354.816 -834.056)"/><path d="m413.684 900.844c0 8.288-2.787 15.219-8.362 20.794s-12.358 8.362-20.35 8.362c-6.512 0-12.037-1.628-16.576-4.884s-7.77-7.203-9.694-11.84-2.886-9.719-2.886-15.244c0-9.077 3.725-19.388 11.174-30.932s16.255-21.559 26.418-30.044c-.395 1.875-.839 3.848-1.332 5.92s-.74 4.588-.74 7.548c0 4.539 1.159 9.127 3.478 13.764s4.884 8.584 7.696 11.84 5.377 7.129 7.696 11.618 3.478 8.855 3.478 13.098zm-6.216-2.22c0-2.269-.74-5.131-2.22-8.584s-3.207-5.673-5.18-6.66c.197.592.296 1.381.296 2.368s-.148 2.171-.444 3.552c-.493 2.664-1.135 5.18-1.924 7.548s-1.184 3.651-1.184 3.848c0 1.381.493 2.59 1.48 3.626s2.22 1.554 3.7 1.554c3.651 0 5.476-2.417 5.476-7.252z" fill="#0077b7" transform="translate(-353.816 -837.056)"/></g></svg>