<svg clip-rule="evenodd" fill-rule="evenodd" viewBox="0 0 671 938" xmlns="http://www.w3.org/2000/svg"><linearGradient id="aftermath1a" gradientUnits="userSpaceOnUse" x1="20" x2="633" y1="0" y2="0"><stop offset=".4" stop-color="#007f3f"/><stop offset=".6" stop-color="#0077b7"/></linearGradient><g stroke="url(#aftermath1a)" stroke-width="6"><path d="m16 378s-12-15-12-34 12-34 12-34h639s12 15 12 34-12 34-12 34zm21-375s-12 12-12 34 12 34 12 34h618s12-12 12-34-12-34-12-34zm618 68h-639v239h639zm0 307h-639v138h639z" fill="none"/><path d="m16 62.243c-7.9-6.032-13-15.546-13-26.243 0-18.213 14.787-33 33-33h13c18.213 0 33 14.787 33 33s-14.787 33-33 33h-33z" fill="url(#aftermath1a)"/></g></svg>
