<svg clip-rule="evenodd" fill-rule="evenodd" viewBox="0 0 671 938" xmlns="http://www.w3.org/2000/svg"><linearGradient id="aftermath1a" gradientUnits="userSpaceOnUse" x1="20" x2="633" y1="0" y2="0"><stop offset=".4" stop-color="#0077b7"/><stop offset=".6" stop-color="#372f2f"/></linearGradient><path d="m16 378s-12-15-12-34 12-34 12-34h639s12 15 12 34-12 34-12 34zm29-375v68h610s12-12 12-34-12-34-12-34zm-29 375h639v138h-639z" fill="none" stroke="url(#aftermath1a)" stroke-width="6"/><path d="m49 0h-12c-20.421 0-37 16.579-37 37s16.579 37 37 37h12c20.421 0 37-16.579 37-37s-16.579-37-37-37z" fill="url(#aftermath1a)"/></svg>