<svg clip-rule="evenodd" fill-rule="evenodd" viewBox="0 0 671 938" xmlns="http://www.w3.org/2000/svg"><linearGradient id="aftermath2a" gradientUnits="userSpaceOnUse" x1="20" x2="367" y1="0" y2="0"><stop offset=".4" stop-color="#372f2f"/><stop offset=".6" stop-color="#007f3f"/></linearGradient><path d="m387.703 287h-371.703v-217h373v215l-1.297 2s-8.703 15-8.703 34 10 36 10 36l-1.297-2h-371.703s-12-15-12-34 12-34 12-34m0-285s-12 12-12 34 12 34 12 34h373s12-12 12-34-12-34-12-34zm371.703 353h-371.703v286h373v-284z" fill="none" stroke="url(#aftermath2a)" stroke-width="6" transform="matrix(0 1 -1 0 657 522)"/></svg>