<svg clip-rule="evenodd" fill-rule="evenodd" viewBox="0 0 673 923" xmlns="http://www.w3.org/2000/svg"><linearGradient id="landfullarta" gradientUnits="userSpaceOnUse" x1="20" x2="653" y1="0" y2="0"><stop offset=".4" stop-color="#f7f7ef"/><stop offset=".6" stop-color="#372f2f"/></linearGradient><path d="m654 809s12 15 12 34-12 34-12 34h-260s-18.167 32-59 32c-38.833 0-60-32-60-32h-260s-12-15-12-34 12-34 12-34m0-807s-12 12-12 34 12 34 12 34h639s12-12 12-34-12-34-12-34zm610 68h-581s-11.241 37.716-15 57c-3.833 19.667-6.401 40.555-8 61-2.333 29.833-6 118-6 118v503h255s18.333-42 65-42 65 42 65 42h254v-503s-1.197-78.91-6-118c-1.996-16.243-4.167-41.333-8-61-3.759-19.284-15-57-15-57z" fill="none" stroke="url(#landfullarta)" stroke-width="6"/></svg>