<svg clip-rule="evenodd" fill-rule="evenodd" viewBox="0 0 673 923" xmlns="http://www.w3.org/2000/svg"><linearGradient id="landfullarta" gradientUnits="userSpaceOnUse" x1="20" x2="653" y1="0" y2="0"><stop offset=".4" stop-color="#007f3f"/><stop offset=".6" stop-color="#0077b7"/></linearGradient><g fill="none" stroke-width="6"><path d="m16 4s-12 11-12 33 12 33 12 33h639s12-11 12-33-12-33-12-33zm610 66h-581z" stroke="url(#landfullarta)"/><path d="m655 811s12 14 12 33-12 33-12 33h-260.239c-12.463 19.257-34.136 32-58.761 32s-46.298-12.743-58.761-32h-261.239s-12-14-12-33 12-33 12-33" stroke="url(#landfullarta)" stroke-miterlimit="3"/><path d="m271.85 811h-255.85v-505s3.667-88.167 6-118c1.599-20.445 4.167-41.333 8-61 3.759-19.284 15-57 15-57h581s11.241 37.716 15 57c3.833 19.667 6.004 44.757 8 61 4.803 39.09 6 118 6 118v505h-254.85c-10.799-24.717-35.472-42-64.15-42s-53.351 17.283-64.15 42z" stroke="url(#landfullarta)"/></g></svg>