<svg clip-rule="evenodd" fill-rule="evenodd" viewBox="0 0 673 940" xmlns="http://www.w3.org/2000/svg"><linearGradient id="planeswalkera" gradientUnits="userSpaceOnUse" x1="20" x2="653" y1="0" y2="0"><stop offset=".4" stop-color="#007f3f"/><stop offset=".6" stop-color="#0077b7"/></linearGradient><g transform="translate(-35 -30)"><path d="m84 577c-22 3-21-28-25-49l-9 1c3 22 8 44-6 59zm-2-474c-14 0-15 19-19 40l-9-1c3-22 7-31-7-41z" fill="#007f3f"/><path d="m659 577c22 3 21-28 25-49l9 1c-3 22-8 44 6 59zm35-474c-12 9-8 19-5 39l-9 1c-4-20-5-38-16-40h-3l35-2z" fill="#0077b7"/><path d="m694 644 14-11c0 9-9 17-9 27v236c0 17-1 41-20 49-35 15-101 23-128 23-9-8-23-8-34-9h-107l2-6h183c44-1 87-9 94-23v-265c0-10-5-15-15-15h-572c-10 0-15 5-15 15v265c6 14 50 22 94 23h231l-2 6h-184c-12 1-25 1-34 9-27 0-93-8-128-23-19-8-20-32-20-49v-236c0-10-9-18-9-27l14 11z" fill="url(#planeswalkera)"/><g fill="none" stroke="url(#planeswalkera)"><path d="m54 647c-8 0-16-7-16-14v-18c0-14 8-35 29-35h609c21 0 29 21 29 35v18c0 7-8 14-16 14zm0-547c-8 0-16-7-16-14v-18c0-14 8-35 29-35h609c21 0 29 21 29 35v18c0 7-8 14-16 14z" stroke-width="6"/><path d="m23 4c-23 160-23 320-4 480" stroke-miterlimit="1.5" stroke-width="9" transform="translate(41 96)"/><path d="m23 4c-23 160-23 320-4 480" stroke-miterlimit="1.5" stroke-width="9" stroke="#0077b7" transform="matrix(-1 0 0 1 702 96)"/></g></g></svg>