<svg clip-rule="evenodd" fill-rule="evenodd" viewBox="0 0 673 940" xmlns="http://www.w3.org/2000/svg"><linearGradient id="planeswalkera" gradientUnits="userSpaceOnUse" x1="20" x2="653" y1="0" y2="0"><stop offset=".4" stop-color="#f7f7ef"/><stop offset=".6" stop-color="#0077b7"/></linearGradient><g transform="translate(-35 -30)"><path d="m54 577c-8 0-16-7-16-14v-18c0-14 8-35 29-35h609c21 0 29 21 29 35v18c0 7-8 14-16 14zm25-477 1-67h596c21 0 29 21 29 35v18c0 7-8 14-16 14z" fill="none" stroke="url(#planeswalkera)" stroke-width="6"/><path d="m409 961c-12-12-32-13-38-13s-25 1-38 13h-107c-12 1-25 1-34 9-27 0-93-8-128-23-19-8-20-32-20-49v-308c0-10-9-18-9-27l14 11h645l14-11c0 9-9 17-9 27v308c0 17-1 41-20 49-35 15-101 23-128 23-9-8-23-8-34-9zm2-6h184c44-1 87-9 94-23v-337c0-10-5-15-15-15h-572c-10 0-15 5-15 15v337c6 14 50 22 94 23h150c10-9 28-13 40-13s29 4 40 13z" fill="url(#planeswalkera)"/></g><path d="m38 70c-18.765 0-34-14.735-34-33.5s15.235-33.5 34-33.5h12c18.765 0 34 14.735 34 33.5s-15.235 33.5-34 33.5z" stroke="#f7f7ef" stroke-width="6" fill="#f7f7ef"/></svg>