<svg clip-rule="evenodd" fill-rule="evenodd" viewBox="0 0 673 940" xmlns="http://www.w3.org/2000/svg"><g transform="translate(-35 -30)"><g fill="none" stroke="#f7f7ef"><path d="m54 577c-8 0-16-7-16-14v-18c0-14 8-35 29-35h609c21 0 29 21 29 35v18c0 7-8 14-16 14zm0-477c-8 0-16-7-16-14v-18c0-14 8-35 29-35h609c21 0 29 21 29 35v18c0 7-8 14-16 14z" stroke-width="6"/><g stroke-miterlimit="1.5" stroke-width="9"><path d="m24 4c-11 78-18 127-19 205-1 82 6 123 16 205" transform="translate(41 96)"/><path d="m24 4c-11 78-18 127-19 205-1 82 6 123 16 205" transform="matrix(-1 0 0 1 702 96)"/></g></g><g fill="#f7f7ef"><path d="m84 507c-22 3-20-22-24-43h-9c3 22 7 39-7 54zm-2-404c-14 0-15 16-19 37h-9c3-22 7-28-7-38z" transform="translate(1)"/><path d="m84 507c-22 3-20-22-24-43h-9c3 22 7 39-7 54zm-2-404c-14 0-15 16-19 37h-9c3-22 7-28-7-38z" transform="matrix(-1 0 0 1 742 0)"/><path d="m409 961c-12-12-32-13-38-13s-25 1-38 13h-107c-12 1-25 1-34 9-27 0-93-8-128-23-19-8-20-32-20-49v-308c0-10-9-18-9-27l14 11h645l14-11c0 9-9 17-9 27v308c0 17-1 41-20 49-35 15-101 23-128 23-9-8-23-8-34-9zm2-6h184c44-1 87-9 94-23v-337c0-10-5-15-15-15h-572c-10 0-15 5-15 15v337c6 14 50 22 94 23h150c10-9 28-13 40-13s29 4 40 13z"/></g></g></svg>
