<svg clip-rule="evenodd" fill-rule="evenodd" viewBox="0 0 673 940" xmlns="http://www.w3.org/2000/svg"><g transform="translate(-35 -30)"><path d="m694 644 14-11c0 9-9 17-9 27v236c0 17-1 41-20 49-35 15-101 23-128 23-9-8-23-8-34-9h-107l2-6h183c44-1 87-9 94-23v-265c0-10-5-15-15-15h-572c-10 0-15 5-15 15v265c6 14 50 22 94 23h231l-2 6h-184c-12 1-25 1-34 9-27 0-93-8-128-23-19-8-20-32-20-49v-236c0-10-9-18-9-27l14 11z" fill="#f7f7ef"/><path d="m54 647c-8 0-16-7-16-14v-18c0-14 8-35 29-35h609c21 0 29 21 29 35v18c0 7-8 14-16 14zm0-547c-8 0-16-7-16-14v-18c0-14 8-35 29-35h609c21 0 29 21 29 35v18c0 7-8 14-16 14z" fill="none" stroke="#f7f7ef" stroke-width="6"/></g></svg>
