<svg clip-rule="evenodd" fill-rule="evenodd" viewBox="0 0 671 923" xmlns="http://www.w3.org/2000/svg"><path d="m655 540s12 11 12 33-12 33-12 33h-639s-12-11-12-33 12-33 12-33zm-639 0h639m0 66h-639v314h275s14.333-17 44-17 44 17 44 17h276z" fill="none" stroke="#007f3f" stroke-width="6"/><path d="m656.843 536.263-.287-.263h-642.112l-1.145 1.05c-.275.249-13.299 12.185-13.299 35.95 0 19.415 8.696 30.927 12.001 34.609-.001-.001-.001 316.391-.001 316.391h280.86l1.195-1.418c.139-.161 13.534-15.582 40.945-15.582 27.282 0 40.68 15.276 40.942 15.579.003.003 1.198 1.421 1.198 1.421h281.86v-316.392c3.304-3.681 12-15.193 12-34.608 0-23.765-13.024-35.701-13.299-35.95 0 0-.858-.787-.858-.787zm-1.065 1.737.576.528c.003.003 12.646 11.469 12.646 34.472 0 19.173-8.78 30.34-11.735 33.543l-.265.288v315.169h-278.93s-.601-.714-.601-.714c-.003-.002-13.864-16.286-42.469-16.286s-42.466 16.284-42.466 16.284l-.604.716c-12.19 0-260.189 0-277.93 0v-315.169l-.265-.288c-2.955-3.203-11.735-14.37-11.735-33.543 0-23.003 12.643-34.469 12.643-34.469l.579-.531z"/></svg>
