<svg clip-rule="evenodd" fill-rule="evenodd" viewBox="0 0 671 923" xmlns="http://www.w3.org/2000/svg"><linearGradient id="regulara" gradientTransform="matrix(663 0 0 917 0 0)" gradientUnits="userSpaceOnUse" x1="0" x2="1" y1="0" y2="0"><stop offset=".4" stop-color="#ef471f"/><stop offset=".6" stop-color="#f7f7ef"/></linearGradient><path d="m16 606s-12-11-12-33 12-33 12-33h639s12 11 12 33-12 33-12 33zm21-603s-12 11-12 33 12 33 12 33h618s12-11 12-33-12-33-12-33zm618 66h-639v471h639zm0 537h-639v314h275s14.333-17 44-17 44 17 44 17h276z" fill="none" stroke="url(#regulara)" stroke-width="6"/><path d="m16 62.243c-7.9-6.032-13-15.546-13-26.243 0-18.213 14.787-33 33-33h13c18.213 0 33 14.787 33 33s-14.787 33-33 33h-33z" fill="#ef471f" stroke="#ef471f" stroke-width="6"/></svg>