<svg clip-rule="evenodd" fill-rule="evenodd" viewBox="0 0 671 923" xmlns="http://www.w3.org/2000/svg"><linearGradient id="regulara" gradientUnits="userSpaceOnUse" x1="19" x2="652"><stop offset=".4" stop-color="#ef471f"/><stop offset=".6" stop-color="#f7f7ef"/></linearGradient><path d="m655 540s12 11 12 33-12 33-12 33h-639s-12-11-12-33 12-33 12-33zm-639 0h639m0 66h-639v314h639zm0 -537s12-11 12-33-12-33-12-33h-639s-12 11-12 33 12 33 12 33zm0 0h-639" fill="none" stroke="url(#regulara)" stroke-width="6"/><path d="m657.518 535.526-.573-.526h-642.89l-1.428 1.309c-.325.294-13.627 12.464-13.627 36.691 0 19.308 8.456 30.943 12.001 34.988-.001 0-.001 317.012-.001 317.012h649v-317.012c3.545-4.046 12-15.681 12-34.988 0-24.227-13.302-36.397-13.627-36.691 0 0-.855-.783-.855-.783zm-1.351 1.474h-641.334l-.86.789s-12.973 11.7-12.973 35.211c0 19.566 8.984 30.952 12 34.221v315.779h645v-315.779c3.016-3.269 12-14.655 12-34.221 0-23.511-12.973-35.211-12.973-35.211zm-642.685-463.526.573.526h642.89l1.428-1.309c.325-.294 13.627-12.464 13.627-36.691s-13.302-36.397-13.627-36.691c0 0-1.428-1.309-1.428-1.309h-642.89l-1.428 1.309c-.325.294-13.627 12.464-13.627 36.691s13.302 36.397 13.627 36.691c0 0 .855.783.855.783zm1.351-1.474h641.334l.86-.789s12.973-11.7 12.973-35.211-12.973-35.211-12.973-35.211l-.86-.789h-641.334l-.86.789s-12.973 11.7-12.973 35.211 12.973 35.211 12.973 35.211z"/></svg>