<svg clip-rule="evenodd" fill-rule="evenodd" viewBox="0 0 671 923" xmlns="http://www.w3.org/2000/svg"><linearGradient id="regulara" gradientUnits="userSpaceOnUse" x1="3" x2="666"><stop offset=".4" stop-color="#0077b7"/><stop offset=".6" stop-color="#ef471f"/></linearGradient><path d="m16 606s-12-11-12-33 12-33 12-33h639s12 11 12 33-12 33-12 33zm21-603s-12 11-12 33 12 33 12 33h618s12-11 12-33-12-33-12-33z" fill="none" stroke="url(#regulara)" stroke-width="6"/><path d="m36 3h13c18.213 0 33 14.787 33 33s-14.787 33-33 33h-13c-18.213 0-33-14.787-33-33s14.787-33 33-33z" fill="#0077b7" stroke="#0077b7" stroke-width="6"/></svg>