<svg clip-rule="evenodd" fill-rule="evenodd" viewBox="0 0 671 923" xmlns="http://www.w3.org/2000/svg"><linearGradient id="regulara" gradientUnits="userSpaceOnUse" x1="19" x2="633" y1="0" y2="0"><stop offset=".4" stop-color="#ef471f"/><stop offset=".6" stop-color="#f7f7ef"/></linearGradient><path d="m16 606s-12-11-12-33 12-33 12-33h639s12 11 12 33-12 33-12 33zm0-602s-12 11-12 33 12 33 12 33h639s12-11 12-33-12-33-12-33zm639 66h-639v470h639zm0 536h-639v314h275s14.333-17 44-17 44 17 44 17h276z" fill="none" stroke="url(#regulara)" stroke-width="6"/></svg>