<svg clip-rule="evenodd" fill-rule="evenodd" viewBox="0 0 671 923" xmlns="http://www.w3.org/2000/svg"><linearGradient id="regulara" gradientUnits="userSpaceOnUse" x1="19" x2="652" y1="0" y2="0"><stop offset=".4" stop-color="#372f2f"/><stop offset=".6" stop-color="#007f3f"/></linearGradient><g stroke-width="6"><path d="m655 538s12 15 12 34-12 34-12 34h-639s-12-15-12-34 12-34 12-34zm-639 0h639m0 68h-639v314h639z" fill="none" stroke="url(#regulara)"/><path d="m36 3h13c18.213 0 33 14.787 33 33s-14.787 33-33 33h-13c-18.213 0-33-14.787-33-33s14.787-33 33-33z" fill="#372f2f" stroke="#372f2f"/><path d="m656.242 4.417c3.069 3.769 10.758 13.972 10.758 31.583 0 22-12 33-12 33h-613 613" fill="none" stroke="url(#regulara)"/></g></svg>