<svg clip-rule="evenodd" fill-rule="evenodd" viewBox="0 0 671 923" xmlns="http://www.w3.org/2000/svg"><linearGradient id="regulara" gradientUnits="userSpaceOnUse" x1="19" x2="633" y1="0" y2="0"><stop offset=".4" stop-color="#007f3f"/><stop offset=".6" stop-color="#f7f7ef"/></linearGradient><g stroke-width="6"><g fill="none"><path d="m16 606s-12-11-12-33 12-33 12-33h639s12 11 12 33-12 33-12 33zm639-537h-639v471h639zm0 537h-639v314h275.5s14.333-17 44-17 44 17 44 17h275.5z" stroke="url(#regulara)"/><path d="m655 69s1.596-1.463 3.625-4.39c3.532-5.098 8.375-14.634 8.375-28.61 0-17.611-7.689-27.814-10.758-31.583" stroke="#f7f7ef"/></g><path d="m16 62.243c-7.9-6.032-13-15.546-13-26.243 0-18.213 14.787-33 33-33h13c18.213 0 33 14.787 33 33s-14.787 33-33 33h-33z" fill="#007f3f" stroke="#007f3f"/></g></svg>