<svg clip-rule="evenodd" fill-rule="evenodd" viewBox="0 0 671 923" xmlns="http://www.w3.org/2000/svg"><g stroke="#f7f7ef" stroke-width="6"><path d="m655 538s12 15 12 34-12 34-12 34h-639s-12-15-12-34 12-34 12-34zm-639 0h639m0 68h-639v314h275.5s14.333-17 44-17 44 17 44 17h275.5z" fill="none"/><path d="m36 3h13c18.213 0 33 14.787 33 33s-14.787 33-33 33h-13c-18.213 0-33-14.787-33-33s14.787-33 33-33z" fill="#f7f7ef"/><path d="m656.242 4.417c3.069 3.769 10.758 13.972 10.758 31.583 0 22-12 33-12 33h-613 613" fill="none"/></g></svg>
