<svg clip-rule="evenodd" fill-rule="evenodd" viewBox="0 0 671 923" xmlns="http://www.w3.org/2000/svg"><linearGradient id="regulara" gradientUnits="userSpaceOnUse" x1="3" x2="666"><stop offset=".4" stop-color="#007f3f"/><stop offset=".6" stop-color="#f7f7ef"/></linearGradient><path d="m655 540s12 11 12 33-12 33-12 33h-639s-12-11-12-33 12-33 12-33zm-639 0h639m0 66h-639v314h639zm0-537s12-11 12-33-12-33-12-33h-618s-12 11-12 33 12 33 12 33zm0 0h-618" fill="none" stroke="url(#regulara)" stroke-width="6"/><path d="m36 3h13c18.213 0 33 14.787 33 33s-14.787 33-33 33h-13c-18.213 0-33-14.787-33-33s14.787-33 33-33z" fill="#007f3f" stroke="#007f3f" stroke-width="6"/></svg>