<svg clip-rule="evenodd" fill-rule="evenodd" viewBox="0 0 671 923" xmlns="http://www.w3.org/2000/svg"><linearGradient id="sagaa" gradientTransform="matrix(663 0 0 917 0 0)" gradientUnits="userSpaceOnUse" x1="0" x2="1" y1="0" y2="0"><stop offset=".4" stop-color="#f7f7ef"/><stop offset=".6" stop-color="#372f2f"/></linearGradient><path d="m16 832h639s12 13 12 32-12 32-12 32h-639s-12-13-12-32 12-32 12-32zm21-763h618s12-11 12-33-12-33-12-33h-618s-12 11-12 33 12 33 12 33z" fill="none" stroke="url(#sagaa)" stroke-width="6"/><path d="m36 3h13c18.213 0 33 14.787 33 33s-14.787 33-33 33h-13c-18.213 0-33-14.787-33-33s14.787-33 33-33z" fill="#f7f7ef" stroke="#f7f7ef" stroke-width="6"/></svg>
