<svg clip-rule="evenodd" fill-rule="evenodd" viewBox="0 0 671 923" xmlns="http://www.w3.org/2000/svg"><linearGradient id="sagaa" gradientTransform="matrix(663 0 0 917 0 0)" gradientUnits="userSpaceOnUse" x1="0" x2="1" y1="0" y2="0"><stop offset=".4" stop-color="#372f2f"/><stop offset=".6" stop-color="#ef471f"/></linearGradient><path d="m16 898s-12-11-12-33 12-33 12-33h639s12 11 12 33-12 33-12 33zm21-895s-12 11-12 33 12 33 12 33h618s12-11 12-33-12-33-12-33zm618 66h-639v763h639z" fill="none" stroke="url(#sagaa)" stroke-width="6"/><path d="m16 62.243c-7.9-6.032-13-15.546-13-26.243 0-18.213 14.787-33 33-33h13c18.213 0 33 14.787 33 33s-14.787 33-33 33h-33z" fill="#372f2f" stroke="#372f2f" stroke-width="6"/></svg>