<svg clip-rule="evenodd" fill-rule="evenodd" stroke-linejoin="round" stroke-miterlimit="2" viewBox="0 0 671 923" xmlns="http://www.w3.org/2000/svg"><linearGradient id="tokena" gradientUnits="userSpaceOnUse" x1="19" x2="652" y1="0" y2="0"><stop offset=".4" stop-color="#0077b7"/><stop offset=".6" stop-color="#3f2727"/></linearGradient><path d="m658 885.709v-819.709h-645v820.776c1.36 1.414 2.798 2.758 4.316 4.025 19.167 16 56.319 32.199 90.684 32.199h454c34.365 0 71.517-16.199 90.684-32.199 1.895-1.582 3.666-3.284 5.316-5.092zm-6.001-2.403c-1.007 1.006-2.06 1.97-3.16 2.889-18.353 15.32-53.934 30.805-86.839 30.805h-454c-32.905 0-68.486-15.485-86.839-30.805-.741-.619-1.462-1.259-2.161-1.919v-812.276h633v811.305z" fill="url(#tokena)"/></svg>