<svg clip-rule="evenodd" fill-rule="evenodd" stroke-linejoin="round" stroke-miterlimit="2" viewBox="0 0 671 923" xmlns="http://www.w3.org/2000/svg"><linearGradient id="tokena" gradientUnits="userSpaceOnUse" x1="19" x2="633" y1="0" y2="0"><stop offset=".4" stop-color="#ef471f"/><stop offset=".6" stop-color="#f7f7ef"/></linearGradient><path d="m280.402 923h11.993l.899-1.066s13.626-15.934 41.706-15.934 41.706 15.934 41.706 15.934l.899 1.066h17.395v.015h167c34.365 0 71.517-16.199 90.684-32.199 1.895-1.582 3.666-3.284 5.316-5.092v-819.709h-645v820.776c1.36 1.414 2.798 2.758 4.316 4.025 19.167 16 56.319 32.199 90.684 32.199h172.402zm149.613-5.985h131.985c32.905 0 68.486-15.485 86.839-30.805 1.1-.919 2.153-1.883 3.16-2.889l.001-.001v-811.305h-633v812.276c.699.66 1.42 1.3 2.161 1.919 18.353 15.32 53.934 30.805 86.839 30.805h107.985l.015-.015c29.747 0 73.695 0 73.694 0 3.808-3.876 18.667-17 45.306-17s41.498 13.124 45.305 17h49.695z" fill="url(#tokena)"/></svg>