<svg clip-rule="evenodd" fill-rule="evenodd" viewBox="0 0 671 923" xmlns="http://www.w3.org/2000/svg"><linearGradient id="tokena" gradientTransform="matrix(663 0 0 917 0 0)" gradientUnits="userSpaceOnUse" x1="0" x2="1" y1="0" y2="0"><stop offset=".4" stop-color="#0077b7"/><stop offset=".6" stop-color="#ef471f"/></linearGradient><path d="m16 655h639s12 11 12 33-12 33-12 33h-639s-12-11-12-33 12-33 12-33zm21-586h618s12-11 12-33-12-33-12-33h-618s-12 11-12 33 12 33 12 33zm618 652h-639v199h275.5s14.333-17 44-17 44 17 44 17h275.5z" fill="none" stroke="url(#tokena)" stroke-width="6"/><path d="m36 3h13c18.213 0 33 14.787 33 33s-14.787 33-33 33h-13c-18.213 0-33-14.787-33-33s14.787-33 33-33z" fill="#0077b7" stroke="#0077b7" stroke-width="6"/></svg>