<svg clip-rule="evenodd" fill-rule="evenodd" stroke-linejoin="round" stroke-miterlimit="2" viewBox="0 0 602 375" xmlns="http://www.w3.org/2000/svg"><path d="m325.047 372c-11.536-8.958-28.778-13-41.047-13-12.265 0-30.461 4.077-41.12 13h-148.845c-30.374-.693-60.752-4.709-78.272-11.826-6.36-2.584-10.977-5.397-12.762-8.842-.001-.001-.001-336.332-.001-336.332 0-4.035.854-7.111 2.871-9.129 2.018-2.017 5.094-2.871 9.129-2.871h572c4.035 0 7.111.854 9.129 2.871 2.017 2.018 2.871 5.094 2.871 9.129v336.233c-.979 1.626-2.589 3.119-4.675 4.546-4.025 2.753-9.729 5.139-16.625 7.203-17.908 5.361-43.644 8.423-69.735 9.018z" fill="#fff" fill-opacity=".5"/><path d="m599 281.07v70.163c-.979 1.626-2.589 3.119-4.675 4.546-4.025 2.753-9.729 5.139-16.625 7.203-17.908 5.361-43.644 8.423-69.735 9.018h-182.918c-11.536-8.958-28.778-13-41.047-13-12.265 0-30.461 4.077-41.12 13h-148.845c-30.374-.693-60.752-4.709-78.272-11.826-6.36-2.584-10.977-5.397-12.762-8.842v-74.596l1.844 2.634c.667 1.125 9.347-.751 10.013.374l5.361 1c2.013 1.254 7.49 1.292 7.49 1.292s3.451-1.098 7.217-2.292h7.151c-1.006.93-2.014 1.87-3.021 2.81v.557c2.798-.449 5.688-1.038 8.629-1.638.706.546 1.411 1.145 2.079 1.892 4.196 4.665 10.497-3.995 13.647-2.665 2.968 1.26.354-1.632 8.838-1.41-.158.319 1.124.718 3.321 1.146-2.118.41-4.864.919-1.661 1.6 3.49.735 7.988.237 10.261-.574 5.283.714 11.455 1.351 15.336 1.649-2.354.94-4.707 1.882-7.06 2.811 5.712-.373 11.428-.746 17.14-1.119-1.687-.568-3.361-1.129-5.048-1.692h-2.012c3.136-1.168 6.276-2.325 9.413-3.497 2.692.431 4.614 1.01 4.902 1.746 1.059 2.676 3.152 3.34 8.406 2.676 4.824-.616-8.928-6.293 1.072-6.682 1.923.773 2.17 1.756 5.438 2.39 2.367.453 6.759.729 9.164.908-.431 1.102-2.132 2.053-2.132 2.053l5.453-1.897c2.418.065 4.824.033 7.23-.081-.21.378-.537.789-1.138 1.309-3.15 2.664 4.208 3.999 6.301 2 1.125-1.071 2.549-2.698 4.106-3.991 2.326-.215 4.613-.448 6.889-.658.68.816 1.124 1.815 1.358 2.513-2.796 1.13-5.045 2.585-6.012 4.589 9.857-.156 11.177-2.243 14.602-3.784h8.458s.928-.778 2.261-1.604c6.524.221 11.61 2.069 19.022.886v-.558c-2.589-1.599-3.832-1.971-9.059-2.253v-.557l11.072-1.124c-.981-.108-.027-.795-1.019-.903 3.582-.297 4.587.373 5.006 1.437 1.059 2.671 2.104 4.676 2.104 4.676s4.38-3.227 7.662-4.303c2.053 1.693 4.784.936 4.392 3.585 11.218-.947 14.629-1.352 26.198-1.119-1.346-.374-2.681-.752-4.025-1.124 1.11-.125 2.117-.277 3.033-.454 2.221.356 3.684.815 3.684 1.41 0 2.665 3.152 2.005 10.499 1.336 6.511-.595-5.896-5.893 2.158-5.693 3.464 1.649 7.686 2.995 12.366 4.141-.927.892-2.98 1.552-2.98 1.552l8.301-.357c2.654.551 5.359 1.06 8.079 1.54 6.575-.33 12.172-.2 17.361.173-.98-1.389-2.457-1.849-6.066-2.524l-1.019-1.124 8.837.172c.066.038.144.07.196.12 3.15 2.669 11.556 2.669 11.556 2.669s-1.503-1.345-1.764-2.589l9.398.183v-.555c-1.658-.579-3.32-1.162-4.994-1.747 2.694-.064 4.498-.556 5.883-1 1.609.081 3.19.113 4.656.06.143.108.301.173.456.308 3.152 2.671 1.059 5.34 1.059 5.34l9.44-2.669s-1.308-1.709-.458-2.909c1.712.13 3.41.243 5.124.368v3.934c3.895-.248 7.805-.486 11.7-.729 2.706 1.449 4.628 2.665 4.628 2.665s2.457-.903 4.72-2.163c6.052 1.817 13.544 3.514 24.302 1.909 1.347-.372 2.693-.747 4.028-1.124-1.008-.373-1.19-1.346-2.197-1.714v-.568c5.019.331 9.216 1.26 14.223 1.585.026.032.077.07.077.07s.016-.044.027-.061c6.367.412 1.949.18 8.315.596 3.908-1.887 3.595-1.459 2.025-3.93.289.011.578.011.864.022 1.072.081 2.261.102 3.544.081l3.307-.611c3.202.708 1.018 2.459 1.018 2.459s6.982 1.736 10.434.752c1.45.032 3.516.498 4.966.53v-.557c-.391-.092-1.854-1.67-2.248-1.762 1.058-.185 14.015-.85 14.981-.85 2.342 0 3.558.055 3.492.985-2.471.373-2.196-.043-4.968.816 2.014.183 3.7.616 5.7.805-2 .935-3.177.514-5.19 1.449l-2.301.632c16.288 1.936 21.232-1.378 33.95-2.092-.758.407-1.11.855-.236 1.412 1.531.972 4.575.669 7.532-.276 7.085 2.021 14.523.335 21.492-1.433l.692-.226c1.033-.26 1.346-.033 1.803.28 2.446.924 4.172 1.655 4.172 1.655s.444-.666 1.332-1.525l10.602.249c-.052 1.243.38 2.351 2.759 2.605 2.589.276 3.935-.924 5.282-2.417 3.556.812 7.805.796 11.765.481-.667.747-1.333 1.498-2.013 2.245zm-596-201.427v-64.643c0-4.035.854-7.111 2.871-9.129 2.018-2.017 5.094-2.871 9.129-2.871h572c4.035 0 7.111.854 9.129 2.871 2.017 2.018 2.871 5.094 2.871 9.129v64.526l-8-.359-.004.281c-4.196-5.638-5.163-5.178-7.516-2.665-6.995-.384-15.021-.778-22.014-1.162v.741c2.064.751 4.129 1.508 6.195 2.254 1.374 1.248 2.759 2.491 4.131 3.745h-2.066c-1.332.601-3.332 1.082-5.739 1.465-.379-.421-.745-.87-.967-1.416-2.158-5.335-2.158-2.664-8.614-2.664-6.445 0-10.747 5.329-16.133 5.329-2.745 0-4.391-.475-6.483-1.529 5.764-1.401 7.869-4.407 13.622-5.806l2.077-3c-2.771-1.243-5.516-2.492-8.262-3.74-.588 1.751-.052 1.02 1.034 3l-12.878 1.621c-1.881 1.313-3.398 2.189-4.837 2.865-2.849-1.562-4.392-2.773-5.045-3.227l-5.034 2.703s-5.386-3.552-9.687-6.217c-4.301-2.67-6.457 8.001-15.06 7.114-8.603-.897 1.085-3.562-8.603-3.562-5.738 0-4.718 1.287-6.261 2.951l-1.308.708c-2.417.416-2.731 1.345-3.92 1.952-1.243.01-2.761-.065-4.643-.276-1.698-.19-3.058-.395-4.286-.617.182-.469.366-.935.548-1.399-2.026-.092-3.725-.27-4.432-.881-1.124-.687-.391-1.52-2.823-1.369-1.138 0-1.321 1.288-2.315 1.817-2.051-.097-4.091-.189-6.132-.28-4.261-3.482-7.451-3.493-7.451-3.493s2.158 7.113-6.445 6.222c-1.869-.195-4.522-.168-7.542-.033l4.614-2.454 3.007-1.779c-11.399-2.67-15.557 1.493-21.073 2.996-3.098-.746-6.197-1.492-9.296-2.249 1.727-.497 3.439-1.001 5.164-1.492h2.066v-.757c-25.596-3.389-41.532 2.681-66.084 1.498 3.791 1.254 7.569 2.502 11.36 3.745-2.445 1.023-5.464 1.416-8.744 1.503-.197-.032-.407-.049-.59-.087-8.615-1.777-4.3-5.335-10.759-5.335-6.458 0-6.458 3.558-15.061 2.671-2.012-.21-3.463-.525-4.599-.865 1.203-.298 2.404-.59 3.606-.881.354-.497.694-1.001 1.034-1.492-2.327-1.356-3.569-1.459-8.262-1.503-7.217.746-14.447 1.503-21.675 2.244 5.308.773 10.615 1.546 15.936 2.313-.027 1.617.065 3.329-.824 4.141-1.751-.043-3.504-.087-5.269-.152-4.876-1.221-11.139-3.805-11.139-3.805l-9.673-2.671s-3.229 4.444-12.916 2.671c-9.453-1.746-2.472-6.022-2.158-6.217-.404.146-6.876 2.466-11.516 5.039l-2.72-1.109c-7.228-1.248-2.955-3.897-17.896-3.897 1.817 1.779.34 1.973 3.451 2.946-4.21 1.536-4.564 1.638-10.55 1.66-1.306-1.822-3.778-1.984-3.778-1.984s-9.505.827-10.38 2.189c-5.988-.017-4.118-.276-10.734-.79-.142-.172-.26-.313-.404-.508-3.111-4.297-7.231-2.767-10.407-.259-7.581-.438-11.608-.946-17.647.038 2.248 1.756 4.354 3.075 9.961 3.573-7.53 1.843-8.171 1.843-12.617.935-8.6-1.789.603-5.178-8-3.4-4.431.919-6.576 3.238-8.209 4.919l-6.25.287c-3.267-2.287-4.901-4.319-4.901-4.319s-4.301 6.227-11.833 6.227c-2.456 0-5.137-.687-7.634-1.584 4.407-1.832 8.812-3.66 13.232-5.492l-.904-1.503c-14.98-3.33-25.177 2.346-36.276 3.006-.34.496-.68 1-1.032 1.491 1.372.752 2.757 1.509 4.129 2.254-.836.428-1.778.855-2.783 1.233-3.4.768-7.085 1.141-10.682.595-.47-.065-.849-.156-1.267-.238.209-.156.966-.416 1.306-1.59-1.66.082-3.332.162-5.006.244-3.125-2.206 1.515-5.136-6.864-3.746-3.098.507-5.111 1.914-6.562 3.372-2.248-1.145-3.046-2.956-5.308-3.615l-3.621-.249c-2.876-5.805-2.681-3.259-5.74-.4-4.104-.286-8.221-.568-12.328-.854 1.687 1.432 5.073 2.459 8.931 3.179-5.152 3.004-2.667 3.01-9.792 3.01-7.518 0-4.303-3.556-4.303-3.556s-4.51.004-8.628.68c.812-.346 1.622-.708 2.432-1.064.693-.746 1.386-1.492 2.065-2.249v-.751c-5.737 1.135-12.523 2.275-18.263 3.411-.615-.492-7.788.518-8.444-.13zm596 68.427v65.456l-8-.359-.004.281c-4.196-5.638-5.163-5.178-7.516-2.665-6.995-.384-15.021-.778-22.014-1.162v.741c2.064.751 4.129 1.508 6.195 2.254 1.374 1.248 2.759 2.491 4.131 3.745h-2.066c-1.332.601-3.332 1.082-5.739 1.465-.379-.421-.745-.87-.967-1.416-2.158-5.335-2.158-2.664-8.614-2.664-6.445 0-10.747 5.329-16.133 5.329-2.745 0-4.391-.475-6.483-1.529 5.764-1.401 7.869-4.407 13.622-5.806l2.077-3c-2.771-1.243-5.516-2.492-8.262-3.74-.588 1.751-.052 1.02 1.034 3l-12.878 1.621c-1.881 1.313-3.398 2.189-4.837 2.865-2.849-1.562-4.392-2.773-5.045-3.227l-5.034 2.703s-5.386-3.552-9.687-6.217c-4.301-2.67-6.457 8.001-15.06 7.114-8.603-.897 1.085-3.562-8.603-3.562-5.738 0-4.718 1.287-6.261 2.951l-1.308.708c-2.417.416-2.731 1.345-3.92 1.952-1.243.01-2.761-.065-4.643-.276-1.698-.19-3.058-.395-4.286-.617.182-.469.366-.935.548-1.399-2.026-.092-3.725-.27-4.432-.881-1.124-.687-.391-1.52-2.823-1.369-1.138 0-1.321 1.288-2.315 1.817-2.051-.097-4.091-.189-6.132-.28-4.261-3.482-7.451-3.493-7.451-3.493s2.158 7.113-6.445 6.222c-1.869-.195-4.522-.168-7.542-.033l4.614-2.454 3.007-1.779c-11.399-2.67-15.557 1.493-21.073 2.996-3.098-.746-6.197-1.492-9.296-2.249 1.727-.497 3.439-1.001 5.164-1.492h2.066v-.757c-25.596-3.389-41.532 2.681-66.084 1.498 3.791 1.254 7.569 2.502 11.36 3.745-2.445 1.023-5.464 1.416-8.744 1.503-.197-.032-.407-.049-.59-.087-8.615-1.777-4.3-5.335-10.759-5.335-6.458 0-6.458 3.558-15.061 2.671-2.012-.21-3.463-.525-4.599-.865 1.203-.298 2.404-.59 3.606-.881.354-.497.694-1.001 1.034-1.492-2.327-1.356-3.569-1.459-8.262-1.503-7.217.746-14.447 1.503-21.675 2.244 5.308.773 10.615 1.546 15.936 2.313-.027 1.617.065 3.329-.824 4.141-1.751-.043-3.504-.087-5.269-.152-4.876-1.221-11.139-3.805-11.139-3.805l-9.673-2.671s-3.229 4.444-12.916 2.671c-9.453-1.746-2.472-6.022-2.158-6.217-.404.146-6.876 2.466-11.516 5.039l-2.72-1.109c-7.228-1.248-2.955-3.897-17.896-3.897 1.817 1.779.34 1.973 3.451 2.946-4.21 1.536-4.564 1.638-10.55 1.66-1.306-1.822-3.778-1.984-3.778-1.984s-9.505.827-10.38 2.189c-5.988-.017-4.118-.276-10.734-.79-.142-.172-.26-.313-.404-.508-3.111-4.297-7.231-2.767-10.407-.259-7.581-.438-11.608-.946-17.647.038 2.248 1.756 4.354 3.075 9.961 3.573-7.53 1.843-8.171 1.843-12.617.935-8.6-1.789.603-5.178-8-3.4-4.431.919-6.576 3.238-8.209 4.919l-6.25.287c-3.267-2.287-4.901-4.319-4.901-4.319s-4.301 6.227-11.833 6.227c-2.456 0-5.137-.687-7.634-1.584 4.407-1.832 8.812-3.66 13.232-5.492l-.904-1.503c-14.98-3.33-25.177 2.346-36.276 3.006-.34.496-.68 1-1.032 1.491 1.372.752 2.757 1.509 4.129 2.254-.836.428-1.778.855-2.783 1.233-3.4.768-7.085 1.141-10.682.595-.47-.065-.849-.156-1.267-.238.209-.156.966-.416 1.306-1.59-1.66.082-3.332.162-5.006.244-3.125-2.206 1.515-5.136-6.864-3.746-3.098.507-5.111 1.914-6.562 3.372-2.248-1.145-3.046-2.956-5.308-3.615l-3.621-.249c-2.876-5.805-2.681-3.259-5.74-.4-4.104-.286-8.221-.568-12.328-.854 1.687 1.432 5.073 2.459 8.931 3.179-5.152 3.004-2.667 3.01-9.792 3.01-7.518 0-4.303-3.556-4.303-3.556s-4.51.004-8.628.68c.812-.346 1.622-.708 2.432-1.064.693-.746 1.386-1.492 2.065-2.249v-.751c-5.737 1.135-12.523 2.275-18.263 3.411-.615-.492-7.785.517-8.443-.129l-.001-69.908 1.845 2.634c.667 1.125 9.347-.751 10.013.374l5.361 1c2.013 1.254 7.49 1.292 7.49 1.292s3.451-1.098 7.217-2.292h7.151c-1.006.93-2.014 1.87-3.021 2.81v.557c2.798-.449 5.688-1.038 8.629-1.638.706.546 1.411 1.145 2.079 1.892 4.196 4.665 10.497-3.995 13.647-2.665 2.968 1.26.354-1.632 8.838-1.41-.158.319 1.124.718 3.321 1.146-2.118.41-4.864.919-1.661 1.6 3.49.735 7.988.237 10.261-.574 5.283.714 11.455 1.351 15.336 1.649-2.354.94-4.707 1.882-7.06 2.811 5.712-.373 11.428-.746 17.14-1.119-1.687-.568-3.361-1.129-5.048-1.692h-2.012c3.136-1.168 6.276-2.325 9.413-3.497 2.692.431 4.614 1.01 4.902 1.746 1.059 2.676 3.152 3.34 8.406 2.676 4.824-.616-8.928-6.293 1.072-6.682 1.923.773 2.17 1.756 5.438 2.39 2.367.453 6.759.729 9.164.908-.431 1.102-2.132 2.053-2.132 2.053l5.453-1.897c2.418.065 4.824.033 7.23-.081-.21.378-.537.789-1.138 1.309-3.15 2.664 4.208 3.999 6.301 2 1.125-1.071 2.549-2.698 4.106-3.991 2.326-.215 4.613-.448 6.889-.658.68.816 1.124 1.815 1.358 2.513-2.796 1.13-5.045 2.585-6.012 4.589 9.857-.156 11.177-2.243 14.602-3.784h8.458s.928-.778 2.261-1.604c6.524.221 11.61 2.069 19.022.886v-.558c-2.589-1.599-3.832-1.971-9.059-2.253v-.557l11.072-1.124c-.981-.108-.027-.795-1.019-.903 3.582-.297 4.587.373 5.006 1.437 1.059 2.671 2.104 4.676 2.104 4.676s4.38-3.227 7.662-4.303c2.053 1.693 4.784.936 4.392 3.585 11.218-.947 14.629-1.352 26.198-1.119-1.346-.374-2.681-.752-4.025-1.124 1.11-.125 2.117-.277 3.033-.454 2.221.356 3.684.815 3.684 1.41 0 2.665 3.152 2.005 10.499 1.336 6.511-.595-5.896-5.893 2.158-5.693 3.464 1.649 7.686 2.995 12.366 4.141-.927.892-2.98 1.552-2.98 1.552l8.301-.357c2.654.551 5.359 1.06 8.079 1.54 6.575-.33 12.172-.2 17.361.173-.98-1.389-2.457-1.849-6.066-2.524l-1.019-1.124 8.837.172c.066.038.144.07.196.12 3.15 2.669 11.556 2.669 11.556 2.669s-1.503-1.345-1.764-2.589l9.398.183v-.555c-1.658-.579-3.32-1.162-4.994-1.747 2.694-.064 4.498-.556 5.883-1 1.609.081 3.19.113 4.656.06.143.108.301.173.456.308 3.152 2.671 1.059 5.34 1.059 5.34l9.44-2.669s-1.308-1.709-.458-2.909c1.712.13 3.41.243 5.124.368v3.934c3.895-.248 7.805-.486 11.7-.729 2.706 1.449 4.628 2.665 4.628 2.665s2.457-.903 4.72-2.163c6.052 1.817 13.544 3.514 24.302 1.909 1.347-.372 2.693-.747 4.028-1.124-1.008-.373-1.19-1.346-2.197-1.714v-.568c5.019.331 9.216 1.26 14.223 1.585.026.032.077.07.077.07s.016-.044.027-.061c6.367.412 1.949.18 8.315.596 3.908-1.887 3.595-1.459 2.025-3.93.289.011.578.011.864.022 1.072.081 2.261.102 3.544.081l3.307-.611c3.202.708 1.018 2.459 1.018 2.459s6.982 1.736 10.434.752c1.45.032 3.516.498 4.966.53v-.557c-.391-.092-1.854-1.67-2.248-1.762 1.058-.185 14.015-.85 14.981-.85 2.342 0 3.558.055 3.492.985-2.471.373-2.196-.043-4.968.816 2.014.183 3.7.616 5.7.805-2 .935-3.177.514-5.19 1.449l-2.301.632c16.288 1.936 21.232-1.378 33.95-2.092-.758.407-1.11.855-.236 1.412 1.531.972 4.575.669 7.532-.276 7.085 2.021 14.523.335 21.492-1.433l.692-.226c1.033-.26 1.346-.033 1.803.28 2.446.924 4.172 1.655 4.172 1.655s.444-.666 1.332-1.525l10.602.249c-.052 1.243.38 2.351 2.759 2.605 2.589.276 3.935-.924 5.282-2.417 3.556.812 7.805.796 11.765.481-.667.747-1.333 1.498-2.013 2.245z" fill="#fff" fill-opacity=".5"/><path d="m508 375h-184c-11.004-8.926-28.047-13-40-13-12 0-30 4-40 13h-150c-44-1-88-9-94-23v-337c0-10 5-15 15-15h572c10 0 15 5 15 15v337c-7 14-50 22-94 23zm-182.953-3c-11.536-8.958-28.778-13-41.047-13-12.265 0-30.461 4.077-41.12 13h-148.845c-30.374-.693-60.752-4.709-78.272-11.826-6.36-2.584-10.977-5.397-12.762-8.842-.001-.001-.001-336.332-.001-336.332 0-4.035.854-7.111 2.871-9.129 2.018-2.017 5.094-2.871 9.129-2.871h572c4.035 0 7.111.854 9.129 2.871 2.017 2.018 2.871 5.094 2.871 9.129v336.233c-.979 1.626-2.589 3.119-4.675 4.546-4.025 2.753-9.729 5.139-16.625 7.203-17.908 5.361-43.644 8.423-69.735 9.018z"/></svg>