<svg clip-rule="evenodd" fill-rule="evenodd" stroke-linejoin="round" stroke-miterlimit="2" viewBox="0 0 602 375" xmlns="http://www.w3.org/2000/svg"><path d="m507.965 372h-413.93c-30.374-.693-60.752-4.709-78.272-11.826-6.36-2.584-10.977-5.397-12.762-8.842-.001-.001-.001-336.332-.001-336.332 0-4.035.854-7.111 2.871-9.129 2.018-2.017 5.094-2.871 9.129-2.871h572c4.035 0 7.111.854 9.129 2.871 2.017 2.018 2.871 5.094 2.871 9.129v336.233c-.979 1.626-2.589 3.119-4.675 4.546-4.025 2.753-9.729 5.139-16.625 7.203-17.908 5.361-43.644 8.423-69.735 9.018z" fill="#fff" fill-opacity=".5"/><path d="m3 353.113c-1.371-1.306-2.385-2.678-3-4.113v-334c0-10 5-15 15-15h572c10 0 15 5 15 15v334c-.675 1.351-1.686 2.646-3 3.883v-89.357l-8-.359-.004.281c-4.196-5.638-5.163-5.178-7.516-2.665-6.995-.384-15.021-.778-22.014-1.162v.741c2.064.751 4.129 1.508 6.195 2.254 1.374 1.248 2.759 2.491 4.131 3.745h-2.066c-1.332.601-3.332 1.082-5.739 1.465-.379-.421-.745-.87-.967-1.416-2.158-5.335-2.158-2.664-8.614-2.664-6.445 0-10.747 5.329-16.133 5.329-2.745 0-4.391-.475-6.483-1.529 5.764-1.401 7.869-4.407 13.622-5.806l2.077-3c-2.771-1.243-5.516-2.492-8.262-3.74-.588 1.751-.052 1.02 1.034 3l-12.878 1.621c-1.881 1.313-3.398 2.189-4.837 2.865-2.849-1.562-4.392-2.773-5.045-3.227l-5.034 2.703s-5.386-3.552-9.687-6.217c-4.301-2.67-6.457 8.001-15.06 7.114-8.603-.897 1.085-3.562-8.603-3.562-5.738 0-4.718 1.287-6.261 2.951l-1.308.708c-2.417.416-2.731 1.345-3.92 1.952-1.243.01-2.761-.065-4.643-.276-1.698-.19-3.058-.395-4.286-.617.182-.469.366-.935.548-1.399-2.026-.092-3.725-.27-4.432-.881-1.124-.687-.391-1.52-2.823-1.369-1.138 0-1.321 1.288-2.315 1.817-2.051-.097-4.091-.189-6.132-.28-4.261-3.482-7.451-3.493-7.451-3.493s2.158 7.113-6.445 6.222c-1.869-.195-4.522-.168-7.542-.033l4.614-2.454 3.007-1.779c-11.399-2.67-15.557 1.493-21.073 2.996-3.098-.746-6.197-1.492-9.296-2.249 1.727-.497 3.439-1.001 5.164-1.492h2.066v-.757c-25.596-3.389-41.532 2.681-66.084 1.498 3.791 1.254 7.569 2.502 11.36 3.745-2.445 1.023-5.464 1.416-8.744 1.503-.197-.032-.407-.049-.59-.087-8.615-1.777-4.3-5.335-10.759-5.335-6.458 0-6.458 3.558-15.061 2.671-2.012-.21-3.463-.525-4.599-.865 1.203-.298 2.404-.59 3.606-.881.354-.497.694-1.001 1.034-1.492-2.327-1.356-3.569-1.459-8.262-1.503-7.217.746-14.447 1.503-21.675 2.244 5.308.773 10.615 1.546 15.936 2.313-.027 1.617.065 3.329-.824 4.141-1.751-.043-3.504-.087-5.269-.152-4.876-1.221-11.139-3.805-11.139-3.805l-9.673-2.671s-3.229 4.444-12.916 2.671c-9.453-1.746-2.472-6.022-2.158-6.217-.404.146-6.876 2.466-11.516 5.039l-2.72-1.109c-7.228-1.248-2.955-3.897-17.896-3.897 1.817 1.779.34 1.973 3.451 2.946-4.21 1.536-4.564 1.638-10.55 1.66-1.306-1.822-3.778-1.984-3.778-1.984s-9.505.827-10.38 2.189c-5.988-.017-4.118-.276-10.734-.79-.142-.172-.26-.313-.404-.508-3.111-4.297-7.231-2.767-10.407-.259-7.581-.438-11.608-.946-17.647.038 2.248 1.756 4.354 3.075 9.961 3.573-7.53 1.843-8.171 1.843-12.617.935-8.6-1.789.603-5.178-8-3.4-4.431.919-6.576 3.238-8.209 4.919l-6.25.287c-3.267-2.287-4.901-4.319-4.901-4.319s-4.301 6.227-11.833 6.227c-2.456 0-5.137-.687-7.634-1.584 4.407-1.832 8.812-3.66 13.232-5.492l-.904-1.503c-14.98-3.33-25.177 2.346-36.276 3.006-.34.496-.68 1-1.032 1.491 1.372.752 2.757 1.509 4.129 2.254-.836.428-1.778.855-2.783 1.233-3.4.768-7.085 1.141-10.682.595-.47-.065-.849-.156-1.267-.238.209-.156.966-.416 1.306-1.59-1.66.082-3.332.162-5.006.244-3.125-2.206 1.515-5.136-6.864-3.746-3.098.507-5.111 1.914-6.562 3.372-2.248-1.145-3.046-2.956-5.308-3.615l-3.621-.249c-2.876-5.805-2.681-3.259-5.74-.4-4.104-.286-8.221-.568-12.328-.854 1.687 1.432 5.073 2.459 8.931 3.179-5.152 3.004-2.667 3.01-9.792 3.01-7.518 0-4.303-3.556-4.303-3.556s-4.51.004-8.628.68c.812-.346 1.622-.708 2.432-1.064.693-.746 1.386-1.492 2.065-2.249v-.751c-5.737 1.135-12.523 2.275-18.263 3.411-.615-.492-7.789.518-8.444-.13zm0-176.378v-80.092c.655.648 7.829-.362 8.444.13 5.74-1.136 12.526-2.276 18.263-3.411v.751c-.679.757-1.372 1.503-2.065 2.249-.81.356-1.62.718-2.432 1.064 4.118-.676 8.628-.68 8.628-.68s-3.215 3.556 4.303 3.556c7.125 0 4.64-.006 9.792-3.01-3.858-.72-7.244-1.747-8.931-3.179 4.107.286 8.224.568 12.328.854 3.059-2.859 2.864-5.405 5.74.4l3.621.249c2.262.659 3.06 2.47 5.308 3.615 1.451-1.458 3.464-2.865 6.562-3.372 8.379-1.39 3.739 1.54 6.864 3.746 1.674-.082 3.346-.162 5.006-.244-.34 1.174-1.097 1.434-1.306 1.59.418.082.797.173 1.267.238 3.597.546 7.282.173 10.682-.595 1.005-.378 1.947-.805 2.783-1.233-1.372-.745-2.757-1.502-4.129-2.254.352-.491.692-.995 1.032-1.491 11.099-.66 21.296-6.336 36.276-3.006l.904 1.503c-4.42 1.832-8.825 3.66-13.232 5.492 2.497.897 5.178 1.584 7.634 1.584 7.532 0 11.833-6.227 11.833-6.227s1.634 2.032 4.901 4.319l6.25-.287c1.633-1.681 3.778-4 8.209-4.919 8.603-1.778-.6 1.611 8 3.4 4.446.908 5.087.908 12.617-.935-5.607-.498-7.713-1.817-9.961-3.573 6.039-.984 10.066-.476 17.647-.038 3.176-2.508 7.296-4.038 10.407.259.144.195.262.336.404.508 6.616.514 4.746.773 10.734.79.875-1.362 10.38-2.189 10.38-2.189s2.472.162 3.778 1.984c5.986-.022 6.34-.124 10.55-1.66-3.111-.973-1.634-1.167-3.451-2.946 14.941 0 10.668 2.649 17.896 3.897l2.72 1.109c4.64-2.573 11.112-4.893 11.516-5.039-.314.195-7.295 4.471 2.158 6.217 9.687 1.773 12.916-2.671 12.916-2.671l9.673 2.671s6.263 2.584 11.139 3.805c1.765.065 3.518.109 5.269.152.889-.812.797-2.524.824-4.141-5.321-.767-10.628-1.54-15.936-2.313 7.228-.741 14.458-1.498 21.675-2.244 4.693.044 5.935.147 8.262 1.503-.34.491-.68.995-1.034 1.492-1.202.291-2.403.583-3.606.881 1.136.34 2.587.655 4.599.865 8.603.887 8.603-2.671 15.061-2.671 6.459 0 2.144 3.558 10.759 5.335.183.038.393.055.59.087 3.28-.087 6.299-.48 8.744-1.503-3.791-1.243-7.569-2.491-11.36-3.745 24.552 1.183 40.488-4.887 66.084-1.498v.757h-2.066c-1.725.491-3.437.995-5.164 1.492 3.099.757 6.198 1.503 9.296 2.249 5.516-1.503 9.674-5.666 21.073-2.996l-3.007 1.779-4.614 2.454c3.02-.135 5.673-.162 7.542.033 8.603.891 6.445-6.222 6.445-6.222s3.19.011 7.451 3.493c2.041.091 4.081.183 6.132.28.994-.529 1.177-1.817 2.315-1.817 2.432-.151 1.699.682 2.823 1.369.707.611 2.406.789 4.432.881-.182.464-.366.93-.548 1.399 1.228.222 2.588.427 4.286.617 1.882.211 3.4.286 4.643.276 1.189-.607 1.503-1.536 3.92-1.952l1.308-.708c1.543-1.664.523-2.951 6.261-2.951 9.688 0 0 2.665 8.603 3.562 8.603.887 10.759-9.784 15.06-7.114 4.301 2.665 9.687 6.217 9.687 6.217l5.034-2.703c.653.454 2.196 1.665 5.045 3.227 1.439-.676 2.956-1.552 4.837-2.865l12.878-1.621c-1.086-1.98-1.622-1.249-1.034-3 2.746 1.248 5.491 2.497 8.262 3.74l-2.077 3c-5.753 1.399-7.858 4.405-13.622 5.806 2.092 1.054 3.738 1.529 6.483 1.529 5.386 0 9.688-5.329 16.133-5.329 6.456 0 6.456-2.671 8.614 2.664.222.546.588.995.967 1.416 2.407-.383 4.407-.864 5.739-1.465h2.066c-1.372-1.254-2.757-2.497-4.131-3.745-2.066-.746-4.131-1.503-6.195-2.254v-.741c6.993.384 15.019.778 22.014 1.162 2.353-2.513 3.32-2.973 7.516 2.665l.004-.281 8 .359v84.544l-39.966 2.604c.68-.747 1.346-1.498 2.013-2.245-3.96.315-8.209.331-11.765-.481-1.347 1.493-2.693 2.693-5.282 2.417-2.379-.254-2.811-1.362-2.759-2.605l-10.602-.249c-.888.859-1.332 1.525-1.332 1.525s-1.726-.731-4.172-1.655c-.457-.313-.77-.54-1.803-.28l-.692.226c-6.969 1.768-14.407 3.454-21.492 1.433-2.957.945-6.001 1.248-7.532.276-.874-.557-.522-1.005.236-1.412-12.718.714-17.662 4.028-33.95 2.092l2.301-.632c2.013-.935 3.19-.514 5.19-1.449-2-.189-3.686-.622-5.7-.805 2.772-.859 2.497-.443 4.968-.816.066-.93-1.15-.985-3.492-.985-.966 0-13.923.665-14.981.85.394.092 1.857 1.67 2.248 1.762v.557c-1.45-.032-3.516-.498-4.966-.53-3.452.984-10.434-.752-10.434-.752s2.184-1.751-1.018-2.459l-3.307.611c-1.283.021-2.472 0-3.544-.081-.286-.011-.575-.011-.864-.022 1.57 2.471 1.883 2.043-2.025 3.93-6.366-.416-1.948-.184-8.315-.596-.011.017-.027.061-.027.061s-.051-.038-.077-.07c-5.007-.325-9.204-1.254-14.223-1.585v.568c1.007.368 1.189 1.341 2.197 1.714-1.335.377-2.681.752-4.028 1.124-10.758 1.605-18.25-.092-24.302-1.909-2.263 1.26-4.72 2.163-4.72 2.163s-1.922-1.216-4.628-2.665c-3.895.243-7.805.481-11.7.729v-3.934c-1.714-.125-3.412-.238-5.124-.368-.85 1.2.458 2.909.458 2.909l-9.44 2.669s2.093-2.669-1.059-5.34c-.155-.135-.313-.2-.456-.308-1.466.053-3.047.021-4.656-.06-1.385.444-3.189.936-5.883 1 1.674.585 3.336 1.168 4.994 1.747v.555l-9.398-.183c.261 1.244 1.764 2.589 1.764 2.589s-8.406 0-11.556-2.669c-.052-.05-.13-.082-.196-.12l-8.837-.172 1.019 1.124c3.609.675 5.086 1.135 6.066 2.524-5.189-.373-10.786-.503-17.361-.173-2.72-.48-5.425-.989-8.079-1.54l-8.301.357s2.053-.66 2.98-1.552c-4.68-1.146-8.902-2.492-12.366-4.141-8.054-.2 4.353 5.098-2.158 5.693-7.347.669-10.499 1.329-10.499-1.336 0-.595-1.463-1.054-3.684-1.41-.916.177-1.923.329-3.033.454 1.344.372 2.679.75 4.025 1.124-11.569-.233-14.98.172-26.198 1.119.392-2.649-2.339-1.892-4.392-3.585-3.282 1.076-7.662 4.303-7.662 4.303s-1.045-2.005-2.104-4.676c-.419-1.064-1.424-1.734-5.006-1.437.992.108.038.795 1.019.903l-11.072 1.124v.557c5.227.282 6.47.654 9.059 2.253v.558c-7.412 1.183-12.498-.665-19.022-.886-1.333.826-2.261 1.604-2.261 1.604h-8.458c-3.425 1.541-4.745 3.628-14.602 3.784.967-2.004 3.216-3.459 6.012-4.589-.234-.698-.678-1.697-1.358-2.513-2.276.21-4.563.443-6.889.658-1.557 1.293-2.981 2.92-4.106 3.991-2.093 1.999-9.451.664-6.301-2 .601-.52.928-.931 1.138-1.309-2.406.114-4.812.146-7.23.081l-5.453 1.897s1.701-.951 2.132-2.053c-2.405-.179-6.797-.455-9.164-.908-3.268-.634-3.515-1.617-5.438-2.39-10 .389 3.752 6.066-1.072 6.682-5.254.664-7.347 0-8.406-2.676-.288-.736-2.21-1.315-4.902-1.746-3.137 1.172-6.277 2.329-9.413 3.497h2.012c1.687.563 3.361 1.124 5.048 1.692-5.712.373-11.428.746-17.14 1.119 2.353-.929 4.706-1.871 7.06-2.811-3.881-.298-10.053-.935-15.336-1.649-2.273.811-6.771 1.309-10.261.574-3.203-.681-.457-1.19 1.661-1.6-2.197-.428-3.479-.827-3.321-1.146-8.484-.222-5.87 2.67-8.838 1.41-3.15-1.33-9.451 7.33-13.647 2.665-.668-.747-1.373-1.346-2.079-1.892-2.941.6-5.831 1.189-8.629 1.638v-.557c1.007-.94 2.015-1.88 3.021-2.81h-7.151c-3.766 1.194-7.217 2.292-7.217 2.292s-5.477-.038-7.49-1.292l-5.361-1c-.666-1.125-9.346.751-10.013-.374z" fill="#fff" fill-opacity=".5"/><path d="m508 375h-414c-44-1-88-9-94-23v-337c0-10 5-15 15-15h572c10 0 15 5 15 15v337c-7 14-50 22-94 23zm-.035-3h-413.93c-30.374-.693-60.752-4.709-78.272-11.826-6.36-2.584-10.977-5.397-12.762-8.842-.001-.001-.001-336.332-.001-336.332 0-4.035.854-7.111 2.871-9.129 2.018-2.017 5.094-2.871 9.129-2.871h572c4.035 0 7.111.854 9.129 2.871 2.017 2.018 2.871 5.094 2.871 9.129v336.233c-.979 1.626-2.589 3.119-4.675 4.546-4.025 2.753-9.729 5.139-16.625 7.203-17.908 5.361-43.644 8.423-69.735 9.018z"/></svg>