<svg clip-rule="evenodd" fill-rule="evenodd" stroke-linejoin="round" stroke-miterlimit="2" viewBox="0 0 602 305" xmlns="http://www.w3.org/2000/svg"><path d="m94 305h414c44-1 87-9 94-23v-267c0-10-5-15-15-15h-572c-10 0-15 5-15 15v267c6 14 50 22 94 23zm-92-121.253v-86.702c.675.668-.176 1.689.458 2.196 5.918-1.171 12.915-2.346 18.83-3.517v.775c-.701.78-1.415 1.549-2.13 2.318-.835.368-1.67.741-2.507 1.098 4.246-.697 8.896-.702 8.896-.702s-3.315 3.667 4.436 3.667c7.346 0 4.784-.006 10.096-3.104-3.978-.742-7.469-1.801-9.208-3.277 4.234.295 8.479.585 12.711.88 3.154-2.948 2.953-5.573 5.918.413l3.733.256c2.332.68 3.155 2.547 5.473 3.728 1.496-1.504 3.571-2.954 6.766-3.477 8.639-1.433 3.855 1.588 7.077 3.862 1.725-.084 3.449-.167 5.161-.251-.351 1.21-1.131 1.478-1.347 1.639.431.084.822.178 1.307.245 3.708.563 7.508.179 11.013-.613 1.036-.39 2.008-.83 2.87-1.271-1.415-.769-2.843-1.549-4.258-2.324.363-.507.714-1.026 1.064-1.538 11.444-.68 21.957-6.532 37.402-3.099l.932 1.55c-4.557 1.889-9.099 3.773-13.642 5.662 2.574.925 5.338 1.633 7.871 1.633 7.765 0 12.2-6.42 12.2-6.42s1.685 2.095 5.053 4.453l6.444-.296c1.684-1.733 3.895-4.124 8.464-5.071 8.87-1.834-.619 1.661 8.248 3.505 4.584.936 5.245.936 13.008-.964-5.781-.513-7.952-1.873-10.27-3.684 6.227-1.014 10.379-.491 18.195-.039 3.275-2.586 7.522-4.163 10.73.267.148.201.27.346.417.524 6.821.53 4.893.797 11.067.814.902-1.404 10.702-2.257 10.702-2.257s2.549.167 3.895 2.046c6.172-.023 6.537-.128 10.877-1.712-3.207-1.003-1.684-1.203-3.558-3.037 15.405 0 10.999 2.731 18.452 4.018l2.804 1.143c4.784-2.653 11.457-5.044 11.874-5.195-.324.201-7.522 4.61 2.225 6.41 9.987 1.828 13.316-2.754 13.316-2.754l9.974 2.754s6.457 2.664 11.484 3.923c1.82.067 3.627.112 5.433.157.916-.837.822-2.603.849-4.27-5.486-.791-10.957-1.588-16.43-2.385 7.452-.764 14.906-1.544 22.347-2.313 4.839.045 6.12.151 8.519 1.549-.351.507-.701 1.026-1.066 1.539-1.24.3-2.478.601-3.718.908 1.171.351 2.667.675 4.742.892 8.87.914 8.87-2.754 15.528-2.754 6.659 0 2.211 3.668 11.093 5.501.189.039.405.056.608.089 3.382-.089 6.495-.495 9.016-1.549-3.909-1.282-7.804-2.569-11.713-3.862 25.314 1.22 41.745-5.038 68.135-1.544v.78h-2.13c-1.779.507-3.544 1.026-5.324 1.539 3.195.78 6.39 1.549 9.584 2.318 5.687-1.549 9.974-5.841 21.727-3.088l-3.1 1.834-4.758 2.53c3.114-.139 5.85-.167 7.777.034 8.87.919 6.645-6.415 6.645-6.415s3.289.011 7.682 3.601c2.104.094 4.207.189 6.322.289 1.025-.546 1.214-1.873 2.387-1.873 2.507-.156 1.752.703 2.911 1.411.729.63 2.48.813 4.569.908-.188.479-.377.959-.565 1.443 1.266.229 2.668.44 4.419.636 1.941.217 3.506.295 4.787.284 1.226-.625 1.55-1.583 4.042-2.012l1.348-.73c1.591-1.716.54-3.043 6.456-3.043 9.988 0 0 2.748 8.87 3.673 8.87.914 11.093-10.088 15.527-7.335 4.435 2.748 9.988 6.41 9.988 6.41l5.19-2.787c.673.468 2.264 1.717 5.202 3.327 1.483-.697 3.047-1.6 4.987-2.954l13.277-1.671c-1.119-2.041-1.672-1.288-1.066-3.093 2.831 1.287 5.662 2.574 8.519 3.856l-2.142 3.093c-5.931 1.443-8.102 4.542-14.045 5.986 2.157 1.087 3.854 1.577 6.685 1.577 5.553 0 9.988-5.495 16.633-5.495 6.657 0 6.657-2.753 8.882 2.747.229.563.606 1.026.997 1.46 2.481-.395 4.543-.891 5.917-1.51h2.13c-1.415-1.293-2.843-2.575-4.259-3.862-2.13-.769-4.26-1.549-6.388-2.324v-.764c7.21.396 15.486.803 22.698 1.198 2.426-2.591 3.423-3.065 7.749 2.748l.004-.29v89.6l-38.113 2.685c.701-.77 1.388-1.544 2.075-2.314-4.083.324-8.464.341-12.13-.496-1.389 1.539-2.776 2.776-5.446 2.492-2.453-.262-2.898-1.405-2.844-2.686l-10.931-.257c-.916.886-1.374 1.572-1.374 1.572s-1.779-.753-4.301-1.706c-.471-.323-.794-.557-1.859-.289l-.714.233c-7.185 1.823-14.854 3.562-22.159 1.478-3.048.974-6.187 1.287-7.765.284-.902-.574-.539-1.036.243-1.455-13.113.736-18.21 4.153-35.004 2.157l2.373-.652c2.075-.964 3.289-.53 5.351-1.494-2.062-.195-3.801-.641-5.877-.83 2.858-.886 2.574-.457 5.122-.841.068-.959-1.186-1.016-3.6-1.016-.996 0-14.355.686-15.446.876.406.095 1.914 1.722 2.317 1.817v.574c-1.495-.033-3.625-.513-5.12-.546-3.559 1.014-10.757-.775-10.757-.775s2.251-1.806-1.05-2.536l-3.41.63c-1.322.022-2.548 0-3.654-.083-.295-.012-.592-.012-.89-.023 1.618 2.548 1.941 2.107-2.088 4.052-6.564-.429-2.009-.19-8.573-.614-.012.017-.028.062-.028.062s-.053-.039-.08-.072c-5.162-.335-9.489-1.293-14.664-1.634v.586c1.038.379 1.226 1.382 2.265 1.767-1.376.389-2.764.775-4.153 1.159-11.092 1.655-18.816-.095-25.056-1.968-2.333 1.299-4.866 2.23-4.866 2.23s-1.982-1.254-4.772-2.748c-4.016.251-8.047.496-12.063.752v-4.057c-1.767-.128-3.518-.245-5.283-.379-.877 1.237.472 2.999.472 2.999l-9.733 2.752s2.158-2.752-1.092-5.506c-.16-.139-.323-.206-.47-.317-1.512.055-3.142.022-4.801-.062-1.427.458-3.287.965-6.065 1.031 1.726.603 3.439 1.204 5.149 1.801v.573l-9.69-.189c.269 1.282 1.819 2.669 1.819 2.669s-8.667 0-11.915-2.752c-.053-.051-.134-.084-.202-.123l-9.111-.178 1.051 1.159c3.721.696 5.243 1.17 6.254 2.603-5.35-.385-11.121-.519-17.9-.179-2.804-.495-5.593-1.02-8.33-1.588l-8.558.368s2.116-.68 3.072-1.6c-4.825-1.181-9.178-2.569-12.75-4.269-8.303-.206 4.489 5.256-2.225 5.869-7.575.69-10.824 1.371-10.824-1.377 0-.613-1.509-1.087-3.799-1.454-.944.183-1.982.339-3.127.468 1.386.384 2.762.774 4.15 1.159-11.928-.24-15.445.178-27.011 1.154.404-2.731-2.412-1.951-4.528-3.696-3.384 1.109-7.9 4.436-7.9 4.436s-1.077-2.067-2.169-4.821c-.432-1.097-1.469-1.788-5.162-1.482 1.023.112.04.82 1.051.931l-11.416 1.159v.575c5.39.29 6.671.674 9.34 2.323v.575c-7.642 1.22-12.885-.686-19.612-.914-1.374.852-2.331 1.654-2.331 1.654h-8.721c-3.531 1.589-4.892 3.741-15.055 3.902.997-2.067 3.316-3.567 6.199-4.732-.241-.719-.699-1.749-1.4-2.591-2.347.217-4.705.457-7.103.679-1.605 1.333-3.074 3.01-4.233 4.114-2.158 2.062-9.745.685-6.497-2.062.62-.536.957-.959 1.173-1.349-2.48.117-4.961.15-7.454.083l-5.622 1.956s1.753-.98 2.198-2.117c-2.48-.184-4.946-.469-7.386-.936-3.37-.653-3.625-1.667-5.607-2.464-10.311.401 3.868 6.254-1.106 6.889-5.417.685-7.575 0-8.666-2.759-.297-.758-2.279-1.355-5.055-1.8-3.234 1.209-6.471 2.402-9.705 3.606h2.075c1.739.58 3.465 1.159 5.204 1.744-5.889.385-11.782.769-17.671 1.154 2.426-.958 4.852-1.929 7.279-2.898-4.002-.307-10.365-.964-15.812-1.7-2.344.836-4.919 1.349-8.518.591-3.302-.702-.471-1.226 1.713-1.649-2.265-.441-3.587-.853-3.424-1.182-8.747-.229-6.052 2.753-9.112 1.454-3.248-1.371-9.745 7.557-14.071 2.748-.689-.77-1.416-1.388-2.144-1.951-3.032.619-6.011 1.226-8.896 1.689v-.574c1.038-.97 2.077-1.939 3.114-2.898h-7.373c-3.882 1.231-7.44 2.363-7.44 2.363s-1.523-1.07-3.599-2.363h-9.651c-.687-1.16-1.388-2.319-2.076-3.478-.278.115-.569.241-.871.376z" fill="#fff" fill-opacity=".5"/><g transform="translate(-87 -650)"><path d="m181 955h414c44-1 87-9 94-23v-267c0-10-5-15-15-15h-572c-10 0-15 5-15 15v267c6 14 50 22 94 23z" fill="#fff" fill-opacity=".5"/><path d="m181 955h414c44-1 87-9 94-23v-267c0-10-5-15-15-15h-572c-10 0-15 5-15 15v267c6 14 50 22 94 23zm413.965-3h-413.93c-30.374-.693-60.752-4.709-78.272-11.826-6.36-2.584-10.977-5.397-12.762-8.842-.001-.001-.001-266.332-.001-266.332 0-4.035.854-7.111 2.871-9.129 2.018-2.017 5.094-2.871 9.129-2.871h572c4.035 0 7.111.854 9.129 2.871 2.017 2.018 2.871 5.094 2.871 9.129v266.233c-.979 1.626-2.589 3.119-4.675 4.546-4.025 2.753-9.729 5.139-16.625 7.203-17.908 5.361-43.644 8.423-69.735 9.018z"/></g></svg>